{"glyphs":{"0":{"ha":956,"x_min":0,"x_max":0,"o":"m 478 1035 b 874 510 771 1035 874 763 b 478 -14 874 257 771 -14 b 82 510 185 -14 82 257 b 478 1035 82 763 185 1035 m 478 10 b 761 510 718 10 761 332 b 478 1011 761 688 718 1011 b 194 510 238 1011 194 688 b 478 10 194 332 238 10 "},"1":{"ha":424,"x_min":0,"x_max":0,"o":"m 374 10 b 371 0 378 8 376 0 l 60 0 b 58 10 54 0 53 8 b 164 104 115 31 164 69 l 164 856 b 58 961 164 890 139 931 b 60 971 53 963 54 971 l 267 1035 l 267 104 b 374 10 267 69 315 31 "},"2":{"ha":814,"x_min":0,"x_max":0,"o":"m 732 775 b 135 76 732 425 179 376 l 488 76 b 722 289 622 76 697 186 b 732 288 724 294 732 293 l 725 0 l 82 0 b 619 790 82 444 619 494 b 424 997 619 906 575 997 b 217 721 232 997 197 829 l 85 894 b 424 1035 149 956 267 1035 b 732 775 626 1035 732 921 "},"3":{"ha":810,"x_min":0,"x_max":0,"o":"m 381 553 b 728 274 588 553 728 464 b 396 -14 728 76 579 -14 b 47 126 239 -14 111 65 l 179 300 b 396 24 158 192 204 24 b 615 257 526 24 615 97 b 283 528 615 454 478 528 l 283 571 b 592 790 329 571 592 592 b 396 997 592 904 547 997 b 189 719 204 997 169 829 l 57 894 b 396 1035 121 954 239 1035 b 704 804 583 1035 704 950 b 381 553 704 632 532 553 "},"4":{"ha":771,"x_min":0,"x_max":0,"o":"m 474 369 l 474 954 l 72 369 m 33 369 l 483 1021 l 576 1021 l 576 369 l 717 369 l 717 292 l 576 292 l 576 0 l 474 0 l 474 292 l 33 292 "},"5":{"ha":833,"x_min":0,"x_max":0,"o":"m 161 617 b 375 650 240 640 311 650 b 751 300 621 650 751 494 b 382 -14 751 74 565 -14 b 33 126 225 -14 97 65 l 165 300 b 382 24 144 192 190 24 b 639 285 513 24 639 96 b 296 593 639 506 486 593 b 139 575 246 593 193 586 l 114 619 l 193 1021 l 701 1021 l 708 733 b 699 732 708 728 700 726 b 464 944 672 835 599 944 l 228 944 "},"6":{"ha":897,"x_min":0,"x_max":0,"o":"m 450 21 b 715 321 639 21 715 144 b 456 596 715 479 621 596 b 200 324 307 596 200 467 b 450 21 200 171 283 21 m 475 640 b 818 321 664 640 818 517 b 450 -14 818 94 661 -14 b 82 450 183 -14 82 214 b 457 1035 82 694 149 1035 b 796 894 582 1035 706 981 l 664 719 b 669 776 668 739 669 757 b 457 997 669 908 593 997 b 188 467 204 997 188 649 l 188 464 b 475 640 254 578 340 640 "},"7":{"ha":782,"x_min":0,"x_max":0,"o":"m 735 1021 l 333 0 l 204 0 l 658 944 l 319 944 b 85 732 185 944 111 835 b 75 733 83 726 75 728 l 82 1021 "},"8":{"ha":889,"x_min":0,"x_max":0,"o":"m 444 24 b 710 281 610 24 710 113 b 367 554 710 463 503 506 b 181 281 239 521 181 406 b 444 24 181 117 283 24 m 444 997 b 231 814 325 997 231 944 b 542 599 231 681 444 636 b 658 800 618 636 658 717 b 444 997 658 935 572 997 m 579 583 b 814 300 700 531 814 446 b 444 -14 814 65 663 -14 b 75 281 244 -14 75 56 b 339 565 75 442 189 536 b 126 785 242 601 126 668 b 444 1035 126 967 283 1035 b 764 800 589 1035 764 969 b 579 583 764 683 686 614 "},"9":{"ha":897,"x_min":0,"x_max":0,"o":"m 440 425 b 696 696 589 425 696 551 b 447 1000 696 847 614 1000 b 182 700 260 1000 182 876 b 440 425 182 542 275 425 m 447 1035 b 815 571 714 1035 815 807 b 439 -14 815 325 749 -14 b 100 126 313 -14 190 40 l 232 300 b 228 246 229 282 228 264 b 439 24 228 114 301 24 b 710 554 692 24 710 372 l 710 558 b 421 381 643 443 557 381 b 79 700 232 381 79 506 b 447 1035 79 926 236 1035 "},"\r":{"ha":347,"x_min":0,"x_max":0,"o":""}," ":{"ha":456,"x_min":0,"x_max":0,"o":""},"!":{"ha":336,"x_min":0,"x_max":0,"o":"m 229 1021 l 196 247 l 140 247 l 107 1021 m 168 144 b 247 65 211 144 247 108 b 168 -14 247 22 211 -14 b 89 65 125 -14 89 22 b 168 144 89 108 125 144 "},"\"":{"ha":382,"x_min":0,"x_max":0,"o":"m 161 1021 l 140 794 l 96 794 l 75 1021 m 307 1021 l 286 794 l 242 794 l 221 1021 "},"#":{"ha":1056,"x_min":0,"x_max":0,"o":"m 754 658 l 411 658 l 290 333 l 635 333 m 774 710 l 889 1021 l 943 1021 l 828 710 l 1008 710 l 1008 658 l 808 658 l 689 333 l 1008 333 l 1008 282 l 669 282 l 565 0 l 511 0 l 615 282 l 271 282 l 167 0 l 113 0 l 217 282 l 47 282 l 47 333 l 236 333 l 356 658 l 47 658 l 47 710 l 375 710 l 490 1021 l 544 1021 l 429 710 "},"$":{"ha":888,"x_min":0,"x_max":0,"o":"m 451 24 l 453 24 b 711 221 572 24 711 82 b 451 443 711 342 543 403 m 193 819 b 414 589 193 700 321 633 l 414 997 l 411 997 b 193 819 301 997 193 943 m 451 571 b 806 282 568 518 806 439 b 451 -14 806 72 640 -14 l 451 -175 l 414 -175 l 414 -12 b 61 126 303 -3 143 49 l 208 321 b 197 263 200 303 197 282 b 414 26 197 139 293 40 l 414 460 b 103 781 274 522 103 601 b 414 1035 103 946 265 1035 l 414 1128 l 451 1128 l 451 1033 b 793 894 563 1024 711 972 l 661 719 b 669 765 668 733 669 750 b 451 994 669 881 560 978 "},"%":{"ha":1035,"x_min":0,"x_max":0,"o":"m 475 785 b 275 536 475 660 415 536 b 75 785 135 536 75 660 b 275 1035 75 910 135 1035 b 475 785 415 1035 475 910 m 815 1021 l 876 1021 l 213 0 l 151 0 m 161 785 b 275 569 161 707 168 569 b 389 785 382 569 389 707 b 275 1000 389 863 382 1000 b 161 785 168 1000 161 863 m 760 485 b 960 236 900 485 960 361 b 760 -14 960 111 901 -14 b 560 236 618 -14 560 111 b 760 485 560 361 619 485 m 760 19 b 874 236 867 19 874 158 b 760 451 874 314 867 451 b 646 236 653 451 646 314 b 760 19 646 158 653 19 "},"&":{"ha":1090,"x_min":0,"x_max":0,"o":"m 465 10 b 713 86 553 10 640 36 l 367 574 b 168 308 258 517 168 440 b 465 10 168 114 272 10 m 488 997 b 343 850 399 997 343 938 b 439 649 343 769 394 711 b 625 853 540 685 625 732 b 488 997 625 939 576 997 m 944 0 b 1043 83 1000 0 1043 22 l 1057 83 b 924 -42 1057 6 989 -42 b 729 68 806 -42 778 14 b 464 -14 651 14 558 -14 b 68 285 275 -14 68 65 b 339 614 68 478 171 556 b 251 817 293 679 251 731 b 488 1035 251 949 360 1035 b 721 840 606 1035 721 971 b 460 619 721 719 550 660 b 786 153 568 465 672 303 b 871 382 840 217 871 297 b 807 610 871 463 844 540 l 822 624 b 897 394 869 557 897 476 b 800 133 897 299 861 206 b 944 0 831 88 885 0 "},"'":{"ha":236,"x_min":0,"x_max":0,"o":"m 161 1021 l 140 794 l 96 794 l 75 1021 "},"(":{"ha":549,"x_min":0,"x_max":0,"o":"m 82 381 b 501 1021 82 764 265 1021 l 501 993 b 185 381 332 993 185 808 b 501 -233 185 -49 332 -233 l 501 -261 b 82 381 265 -261 82 -4 "},")":{"ha":549,"x_min":0,"x_max":0,"o":"m 467 381 b 47 -261 467 -4 283 -261 l 47 -233 b 364 381 217 -233 364 -49 b 47 993 364 808 217 993 l 47 1021 b 467 381 283 1021 467 764 "},"*":{"ha":508,"x_min":0,"x_max":0,"o":"m 290 972 l 278 842 l 383 918 l 419 856 l 300 803 l 419 749 l 383 686 l 278 763 l 290 632 l 218 632 l 231 763 l 125 686 l 89 749 l 208 803 l 89 856 l 125 918 l 231 842 l 218 972 "},"+":{"ha":518,"x_min":0,"x_max":0,"o":"m 276 625 l 276 472 l 429 472 l 429 438 l 276 438 l 276 285 l 242 285 l 242 438 l 89 438 l 89 472 l 242 472 l 242 625 "},",":{"ha":411,"x_min":0,"x_max":0,"o":"m 199 144 b 278 65 242 144 278 108 b 153 -124 278 -24 224 -76 l 144 -111 b 178 -60 161 -99 178 -82 b 119 65 178 -14 119 14 b 199 144 119 108 156 144 "},"-":{"ha":424,"x_min":0,"x_max":0,"o":"m 89 472 l 335 472 l 335 419 l 89 419 "},".":{"ha":310,"x_min":0,"x_max":0,"o":"m 154 144 b 233 65 197 144 233 108 b 154 -14 233 22 197 -14 b 75 65 111 -14 75 22 b 154 144 75 108 111 144 "},"/":{"ha":682,"x_min":0,"x_max":0,"o":"m 635 1021 l 139 0 l 47 0 l 543 1021 "},":":{"ha":308,"x_min":0,"x_max":0,"o":"m 154 578 b 233 499 197 578 233 543 b 154 419 233 456 197 419 b 75 499 111 419 75 456 b 154 578 75 543 111 578 m 154 144 b 233 65 197 144 233 108 b 154 -14 233 22 197 -14 b 75 65 111 -14 75 22 b 154 144 75 108 111 144 "},";":{"ha":308,"x_min":0,"x_max":0,"o":"m 154 578 b 233 499 197 578 233 542 b 154 419 233 456 197 419 b 75 499 111 419 75 456 b 154 578 75 542 111 578 m 154 143 b 233 64 197 143 233 107 b 108 -125 233 -25 179 -78 l 100 -112 b 133 -61 117 -100 133 -83 b 75 64 133 -15 75 13 b 154 143 75 107 111 143 "},"<":{"ha":490,"x_min":0,"x_max":0,"o":"m 401 550 l 104 397 l 401 243 l 401 194 l 61 369 l 61 424 l 401 599 "},"=":{"ha":518,"x_min":0,"x_max":0,"o":"m 89 525 l 429 525 l 429 490 l 89 490 m 89 429 l 429 429 l 429 394 l 89 394 "},">":{"ha":490,"x_min":0,"x_max":0,"o":"m 429 436 l 429 382 l 89 207 l 89 256 l 386 410 l 89 563 l 89 611 "},"?":{"ha":783,"x_min":0,"x_max":0,"o":"m 386 1035 b 694 775 588 1035 694 921 b 378 244 694 492 378 518 l 328 244 b 582 790 328 611 582 531 b 386 997 582 904 538 997 b 179 719 193 997 158 829 l 47 894 b 386 1035 111 954 229 1035 m 357 144 b 436 65 400 144 436 108 b 357 -14 436 22 400 -14 b 278 65 313 -14 278 22 b 357 144 278 108 313 144 "},"@":{"ha":1558,"x_min":0,"x_max":0,"o":"m 967 392 b 765 656 967 517 910 656 b 522 275 565 656 522 433 b 708 24 522 151 561 24 b 967 392 894 24 967 238 m 840 1035 b 1476 401 1197 1035 1476 760 b 1144 -106 1476 206 1388 -106 b 944 86 1035 -106 944 -26 b 953 185 944 119 950 151 b 706 -14 911 79 826 -14 b 421 294 519 -14 421 117 b 768 694 421 504 542 694 b 979 492 885 694 956 596 b 997 694 985 560 990 626 l 1100 694 l 1046 89 b 1133 -86 1040 25 1049 -86 b 1386 424 1306 -86 1386 290 b 840 997 1386 751 1178 997 b 194 278 450 997 194 654 b 721 -317 194 -25 403 -317 b 1043 -176 832 -317 976 -271 b 718 -354 999 -301 839 -354 b 82 279 361 -354 82 -79 b 840 1035 82 686 435 1035 "},"A":{"ha":947,"x_min":0,"x_max":0,"o":"m 275 396 l 592 396 l 433 821 m 474 1035 l 819 107 b 932 10 846 38 878 42 b 935 7 933 8 935 8 b 929 0 935 3 933 0 l 631 0 b 626 7 626 0 626 4 b 629 10 626 8 628 8 b 706 78 658 28 706 32 b 606 358 706 119 624 310 l 261 358 b 161 76 243 310 161 118 b 239 10 161 32 210 28 b 242 7 240 8 242 8 b 238 0 242 4 242 0 l 17 0 b 13 7 13 0 13 4 b 15 10 13 8 14 8 b 128 107 67 40 104 42 "},"B":{"ha":776,"x_min":0,"x_max":0,"o":"m 604 296 b 315 554 604 488 496 554 l 261 554 l 261 38 l 315 38 b 604 296 494 38 604 103 m 261 983 l 261 592 l 322 592 b 538 788 468 592 538 633 b 322 983 538 942 469 983 m 510 578 b 715 296 647 542 715 435 b 386 0 715 93 578 0 l 43 0 b 40 7 40 0 40 4 b 43 10 40 8 42 8 b 149 104 78 28 149 56 l 149 917 b 43 1011 149 965 78 993 b 40 1014 43 1011 40 1013 b 43 1021 40 1017 40 1021 l 379 1021 b 650 788 525 1021 650 946 b 510 578 650 692 599 614 "},"C":{"ha":1013,"x_min":0,"x_max":0,"o":"m 571 -14 b 68 510 269 -14 68 185 b 571 1035 68 836 269 1035 b 951 894 728 1035 889 954 l 821 719 b 571 997 860 807 764 997 b 189 510 354 997 189 817 b 571 24 189 203 354 24 b 821 300 764 24 860 214 l 951 126 b 571 -14 889 65 728 -14 "},"D":{"ha":1011,"x_min":0,"x_max":0,"o":"m 851 511 b 458 983 851 743 714 983 l 261 983 l 261 38 l 458 38 b 851 511 714 38 851 281 m 471 1021 b 969 511 769 1021 969 804 b 471 0 969 217 771 0 l 44 0 b 40 7 40 0 40 4 b 43 10 40 8 42 8 b 149 104 78 26 149 56 l 149 917 b 43 1011 149 965 78 994 b 40 1014 42 1013 40 1013 b 44 1021 40 1017 40 1021 "},"E":{"ha":747,"x_min":0,"x_max":0,"o":"m 44 10 b 150 104 101 31 150 69 l 150 917 b 44 1011 150 951 101 990 b 46 1021 39 1013 40 1021 l 654 1021 l 660 814 b 650 813 660 808 653 807 b 451 983 631 869 586 983 l 263 983 l 263 574 l 394 574 b 489 679 429 574 469 622 b 499 678 492 685 499 683 l 499 432 b 489 429 499 425 492 424 b 394 536 469 488 429 536 l 263 536 l 263 38 l 428 38 b 663 250 563 38 636 147 b 672 247 664 256 672 253 l 665 0 l 46 0 b 44 10 40 0 39 8 "},"F":{"ha":707,"x_min":0,"x_max":0,"o":"m 44 10 b 150 104 101 31 150 69 l 150 917 b 44 1011 150 951 101 990 b 46 1021 39 1013 40 1021 l 639 1021 l 646 814 b 636 813 646 808 638 807 b 438 983 615 869 572 983 l 263 983 l 263 574 l 381 574 b 475 679 415 574 454 622 b 485 678 476 685 485 683 l 485 432 b 475 429 485 425 476 424 b 381 536 454 488 415 536 l 263 536 l 263 104 b 369 10 263 69 313 31 b 368 0 375 8 374 0 l 46 0 b 44 10 40 0 39 8 "},"G":{"ha":1083,"x_min":0,"x_max":0,"o":"m 571 -14 b 68 510 269 -14 68 185 b 571 1035 68 836 269 1035 b 951 894 728 1035 889 954 l 821 719 b 571 997 860 807 764 997 b 189 510 354 997 189 817 b 571 24 189 203 354 24 b 819 83 678 24 761 47 l 819 363 b 497 500 819 447 704 467 b 499 510 492 501 493 510 l 1038 510 b 1039 500 1043 510 1044 503 b 932 406 982 481 932 440 l 932 57 b 571 -14 832 17 728 -14 "},"H":{"ha":1067,"x_min":0,"x_max":0,"o":"m 44 10 b 150 104 101 31 150 69 l 150 917 b 44 1011 150 951 101 990 b 46 1021 39 1013 40 1021 l 368 1021 b 369 1011 374 1021 375 1013 b 263 917 313 990 263 951 l 263 574 l 804 574 l 804 917 b 697 1011 804 951 754 990 b 699 1021 692 1013 693 1021 l 1021 1021 b 1022 1011 1026 1021 1028 1013 b 915 917 965 990 915 951 l 915 104 b 1022 10 915 69 965 31 b 1021 0 1028 8 1026 0 l 699 0 b 697 10 693 0 692 8 b 804 104 754 31 804 69 l 804 536 l 263 536 l 263 104 b 369 10 263 69 313 31 b 368 0 375 8 374 0 l 46 0 b 44 10 40 0 39 8 "},"I":{"ha":414,"x_min":0,"x_max":0,"o":"m 44 10 b 150 104 101 31 150 69 l 150 917 b 44 1011 150 951 101 990 b 46 1021 39 1013 40 1021 l 368 1021 b 369 1011 374 1021 375 1013 b 263 917 313 990 263 951 l 263 104 b 369 10 263 69 313 31 b 368 0 375 8 374 0 l 46 0 b 44 10 40 0 39 8 "},"J":{"ha":417,"x_min":0,"x_max":0,"o":"m 374 1021 b 375 1011 379 1021 381 1013 b 269 917 318 990 269 951 l 269 72 b 32 -181 269 -97 153 -181 b 32 -171 25 -181 25 -171 b 157 22 85 -171 157 -89 l 157 914 b 50 1011 157 949 108 990 b 51 1021 44 1013 46 1021 "},"K":{"ha":982,"x_min":0,"x_max":0,"o":"m 46 0 b 44 10 40 0 39 8 b 150 104 101 31 150 69 l 150 917 b 44 1011 150 951 101 990 b 46 1021 39 1013 40 1021 l 368 1021 b 369 1011 374 1021 375 1013 b 263 918 313 990 263 953 l 263 476 l 661 918 b 606 1011 696 954 663 990 b 607 1021 600 1013 601 1021 l 864 1021 b 865 1011 869 1021 871 1013 b 708 911 808 990 753 961 l 457 633 l 842 110 b 965 10 878 60 908 31 b 964 0 971 8 969 0 l 638 0 b 636 10 632 0 631 8 b 704 106 693 31 733 65 l 704 107 l 381 549 l 263 418 l 263 104 b 369 10 263 69 313 31 b 368 0 375 8 374 0 "},"L":{"ha":728,"x_min":0,"x_max":0,"o":"m 11 10 b 117 104 68 31 117 69 l 117 917 b 11 1011 117 951 68 990 b 13 1021 6 1013 7 1021 l 335 1021 b 336 1011 340 1021 342 1013 b 229 917 279 990 229 951 l 229 38 l 422 38 b 657 250 557 38 631 147 b 667 247 658 256 667 253 l 660 0 l 13 0 b 11 10 7 0 6 8 "},"M":{"ha":1183,"x_min":0,"x_max":0,"o":"m 44 10 b 150 104 101 31 150 69 l 150 917 b 44 1011 150 951 101 990 b 46 1021 39 1013 40 1021 l 249 1021 l 585 222 l 946 1021 l 1138 1021 b 1139 1011 1143 1021 1144 1013 b 1032 917 1081 990 1032 951 l 1032 104 b 1139 10 1032 69 1081 31 b 1138 0 1144 8 1143 0 l 815 0 b 814 10 810 0 808 8 b 919 104 871 31 919 69 l 919 872 l 540 35 l 188 876 l 188 104 b 294 10 188 69 238 31 b 293 0 300 8 299 0 l 46 0 b 44 10 40 0 39 8 "},"N":{"ha":996,"x_min":0,"x_max":0,"o":"m 44 10 b 150 104 101 31 150 69 l 150 917 b 44 1011 150 951 101 990 b 46 1021 39 1013 40 1021 l 257 1021 l 814 233 l 814 917 b 708 1011 814 951 765 990 b 710 1021 703 1013 704 1021 l 957 1021 b 958 1011 963 1021 964 1013 b 851 917 901 990 851 951 l 851 -14 l 188 924 l 188 104 b 294 10 188 69 238 31 b 293 0 300 8 299 0 l 46 0 b 44 10 40 0 39 8 "},"O":{"ha":1142,"x_min":0,"x_max":0,"o":"m 571 -14 b 68 510 254 -14 68 200 b 571 1035 68 819 254 1035 b 1074 510 888 1035 1074 819 b 571 -14 1074 200 888 -14 m 571 997 b 189 510 301 997 189 746 b 571 24 189 274 301 24 b 953 510 840 24 953 274 b 571 997 953 746 840 997 "},"P":{"ha":754,"x_min":0,"x_max":0,"o":"m 263 983 l 263 500 l 365 500 b 581 733 524 500 581 589 b 365 983 581 878 536 983 m 44 10 b 150 104 101 31 150 69 l 150 917 b 44 1011 150 951 101 990 b 46 1021 39 1013 40 1021 l 422 1021 b 693 733 582 1021 693 901 b 422 463 693 604 601 463 l 263 463 l 263 104 b 369 10 263 69 313 31 b 368 0 375 8 374 0 l 46 0 b 44 10 40 0 39 8 "},"Q":{"ha":1142,"x_min":0,"x_max":0,"o":"m 571 24 b 953 510 840 24 953 274 b 571 997 953 746 840 997 b 189 510 301 997 189 746 b 571 24 189 274 301 24 m 1074 510 b 699 -1 1074 244 936 49 b 1026 -122 817 -43 879 -122 b 1246 -22 1125 -122 1192 -79 b 950 -221 1131 -221 990 -221 b 567 -14 807 -221 711 -49 b 68 510 253 -12 68 201 b 571 1035 68 819 254 1035 b 1074 510 888 1035 1074 819 "},"R":{"ha":961,"x_min":0,"x_max":0,"o":"m 261 983 l 261 563 l 433 563 b 649 769 583 563 649 615 b 433 983 649 921 585 983 m 261 525 l 261 104 b 368 10 261 54 333 28 b 371 6 368 10 371 8 b 364 0 371 3 368 0 l 47 0 b 40 6 43 0 40 3 b 43 10 40 8 43 10 b 149 104 78 29 149 54 l 149 917 b 43 1011 149 967 78 992 b 40 1015 43 1011 40 1013 b 46 1021 40 1018 42 1021 l 490 1021 b 761 769 640 1021 761 926 b 508 525 761 619 650 532 l 828 110 b 953 10 868 54 896 42 b 956 6 953 10 956 8 b 950 0 956 3 954 0 l 640 0 b 635 6 636 0 635 3 b 638 10 635 8 638 10 b 715 81 665 25 715 40 b 381 525 715 111 436 450 "},"S":{"ha":735,"x_min":0,"x_max":0,"o":"m 188 335 b 176 276 179 317 176 296 b 369 24 176 133 225 24 b 565 221 460 24 565 68 b 110 794 565 461 110 481 b 357 1035 110 958 244 1035 b 647 936 449 1035 565 1019 l 515 761 b 524 807 522 775 524 790 b 374 997 524 939 456 997 b 214 833 300 997 214 957 b 674 268 214 607 674 549 b 374 -14 674 61 536 -14 b 40 140 260 -14 114 57 "},"T":{"ha":889,"x_min":0,"x_max":0,"o":"m 269 983 b 93 865 185 983 129 938 b 71 813 85 849 79 828 b 67 810 71 813 69 810 b 61 815 64 810 61 811 l 68 1021 l 821 1021 l 828 815 b 822 810 828 811 825 810 b 818 813 819 810 818 813 b 796 865 810 828 804 849 b 619 983 760 938 704 983 l 500 983 l 500 104 b 607 10 500 54 572 28 b 610 6 607 10 610 8 b 604 0 610 3 608 0 l 285 0 b 279 6 281 0 279 3 b 282 10 279 8 282 10 b 388 104 317 29 388 54 l 388 983 "},"U":{"ha":993,"x_min":0,"x_max":0,"o":"m 510 -14 b 142 340 297 -14 142 124 l 142 917 b 36 1011 142 964 71 994 b 33 1015 36 1011 33 1013 b 39 1021 33 1018 35 1021 l 358 1021 b 364 1015 363 1021 364 1018 b 361 1011 364 1013 361 1011 b 254 917 328 994 254 964 l 254 303 b 533 24 254 135 367 24 b 813 303 706 24 813 129 l 813 917 b 707 1011 813 964 742 994 b 704 1015 707 1011 704 1013 b 710 1021 704 1018 706 1021 l 954 1021 b 960 1015 958 1021 960 1018 b 957 1011 960 1013 957 1011 b 850 917 924 994 850 964 l 850 322 b 510 -14 850 108 722 -14 "},"V":{"ha":950,"x_min":0,"x_max":0,"o":"m 933 1011 b 821 914 875 990 840 967 l 474 -14 l 128 914 b 17 1011 108 968 74 990 b 18 1021 11 1013 13 1021 l 318 1021 b 319 1011 324 1021 325 1013 b 247 914 263 990 226 969 l 514 200 l 781 914 l 781 915 b 710 1011 801 969 767 990 b 711 1021 704 1013 706 1021 l 931 1021 b 933 1011 938 1021 939 1013 "},"W":{"ha":1511,"x_min":0,"x_max":0,"o":"m 1494 1011 b 1382 914 1438 990 1401 967 l 1036 -14 l 756 739 l 474 -14 l 128 914 b 17 1011 108 968 74 990 b 18 1021 11 1013 13 1021 l 318 1021 b 319 1011 324 1021 325 1013 b 247 914 263 990 226 969 l 514 200 l 735 792 l 690 914 b 578 1011 671 968 636 990 b 581 1021 572 1013 574 1021 l 879 1021 b 881 1011 885 1021 886 1013 b 810 914 824 990 789 969 l 1076 200 l 1343 914 l 1343 915 b 1271 1011 1364 969 1328 990 b 1272 1021 1265 1013 1267 1021 l 1493 1021 b 1494 1011 1499 1021 1500 1013 "},"X":{"ha":1035,"x_min":0,"x_max":0,"o":"m 675 0 b 669 6 671 0 669 3 b 672 10 669 8 672 10 b 750 74 697 26 750 31 b 735 113 750 88 743 101 l 488 479 l 231 115 b 214 75 222 103 214 90 b 290 10 214 33 264 26 b 293 6 290 10 293 8 b 288 0 293 3 292 0 l 39 0 b 33 6 35 0 33 3 b 36 10 33 8 36 10 b 163 110 96 46 118 47 l 456 525 l 193 914 b 69 1011 151 976 128 976 b 67 1015 69 1011 67 1013 b 72 1021 67 1018 68 1021 l 392 1021 b 399 1015 396 1021 399 1019 b 396 1011 399 1013 396 1011 b 318 947 369 996 318 989 b 331 913 318 935 324 922 l 542 600 l 758 906 b 775 946 767 918 775 931 b 699 1011 775 988 725 994 b 696 1015 699 1011 696 1013 b 701 1021 696 1018 697 1021 l 950 1021 b 956 1015 954 1021 956 1018 b 953 1011 956 1013 953 1011 b 826 911 889 972 874 979 l 574 554 l 875 107 b 999 10 915 47 943 43 b 1001 6 999 10 1001 8 b 996 0 1001 3 1000 0 "},"Y":{"ha":914,"x_min":0,"x_max":0,"o":"m 515 510 l 515 104 b 622 10 515 53 589 29 b 625 6 622 10 625 8 b 619 0 625 3 624 0 l 300 0 b 294 6 296 0 294 3 b 297 10 294 8 297 10 b 404 104 331 29 404 53 l 404 500 l 136 913 b 15 1011 97 972 72 978 b 13 1015 15 1011 13 1013 b 18 1021 13 1018 14 1021 l 339 1021 b 344 1015 343 1021 344 1018 b 342 1011 344 1013 342 1011 b 261 946 315 996 261 989 b 276 910 261 931 269 921 l 494 571 l 711 903 b 724 940 718 914 724 928 b 646 1011 724 985 675 993 b 643 1015 646 1011 643 1013 b 649 1021 643 1018 644 1021 l 896 1021 b 901 1015 900 1021 901 1018 b 899 1011 901 1013 899 1011 b 779 911 836 975 813 961 "},"Z":{"ha":822,"x_min":0,"x_max":0,"o":"m 57 0 l 586 983 l 311 983 b 117 813 178 983 136 869 b 106 814 114 807 106 808 l 113 1021 l 739 1021 l 210 38 l 506 38 b 738 250 639 38 711 147 b 747 247 739 256 747 253 l 740 0 "},"[":{"ha":442,"x_min":0,"x_max":0,"o":"m 394 1021 l 394 988 l 257 988 l 257 -226 l 394 -226 l 394 -261 l 144 -261 l 144 1021 "},"\\":{"ha":682,"x_min":0,"x_max":0,"o":"m 635 0 l 543 0 l 47 1021 l 139 1021 "},"]":{"ha":442,"x_min":0,"x_max":0,"o":"m 297 -261 l 47 -261 l 47 -226 l 185 -226 l 185 988 l 47 988 l 47 1021 l 297 1021 "},"^":{"ha":554,"x_min":0,"x_max":0,"o":"m 304 972 l 479 632 l 431 632 l 278 929 l 124 632 l 75 632 l 250 972 "},"_":{"ha":785,"x_min":0,"x_max":0,"o":"m 75 -31 l 710 -31 l 710 -97 l 75 -97 "},"`":{"ha":378,"x_min":0,"x_max":0,"o":"m 317 879 l 293 843 l 61 964 l 106 1043 "},"a":{"ha":683,"x_min":0,"x_max":0,"o":"m 279 10 b 464 288 418 10 464 176 l 464 422 b 156 174 321 385 156 349 b 279 10 156 89 179 10 m 650 7 b 533 -14 650 -4 551 -14 b 464 135 443 -14 464 67 b 258 -14 429 40 360 -14 b 47 163 140 -14 47 33 b 464 444 47 342 331 407 b 325 671 464 549 464 671 b 178 536 235 671 178 628 b 196 444 178 506 183 472 l 74 576 b 325 694 149 650 217 694 b 567 519 435 694 567 650 l 567 75 b 647 10 567 31 617 22 b 650 7 647 10 650 8 "},"b":{"ha":779,"x_min":0,"x_max":0,"o":"m 417 10 b 613 340 594 10 613 204 b 417 671 613 476 593 671 b 221 340 240 671 221 475 b 417 10 221 204 240 10 m 417 694 b 725 340 629 694 725 536 b 417 -14 725 144 629 -14 b 221 126 322 -14 257 42 b 118 -14 221 60 196 -14 l 118 953 b 38 1017 118 993 69 1008 b 33 1022 38 1017 33 1018 b 39 1028 33 1026 39 1028 l 151 1042 b 221 957 213 1042 221 1017 l 221 553 b 417 694 256 639 321 694 "},"c":{"ha":701,"x_min":0,"x_max":0,"o":"m 381 -14 b 54 340 163 -14 54 133 b 367 694 54 538 156 694 b 651 576 472 694 575 649 l 528 444 b 538 504 535 463 538 485 b 367 671 538 610 472 671 b 167 378 211 671 167 504 b 410 44 167 204 206 44 b 668 178 507 44 611 99 b 381 -14 621 60 507 -14 "},"d":{"ha":785,"x_min":0,"x_max":0,"o":"m 363 10 b 558 340 539 10 558 204 b 363 671 558 475 539 671 b 167 340 186 671 167 476 b 363 10 167 204 185 10 m 744 7 b 628 -14 744 -4 646 -14 b 558 128 540 -14 558 61 b 363 -14 524 42 458 -14 b 54 340 150 -14 54 144 b 363 694 54 536 150 694 b 558 553 458 694 524 639 l 558 953 b 478 1017 558 993 510 1008 b 474 1022 478 1017 474 1018 b 479 1028 474 1025 476 1028 b 592 1042 514 1032 557 1042 b 661 957 653 1042 661 1017 l 661 75 b 742 10 661 31 711 24 b 744 7 742 10 744 8 "},"e":{"ha":719,"x_min":0,"x_max":0,"o":"m 365 671 b 174 474 243 671 190 586 l 544 474 b 365 671 544 581 479 671 m 367 -14 b 54 340 160 -14 54 149 b 361 694 54 524 163 694 b 661 443 522 694 661 618 l 169 443 b 167 374 168 419 167 397 b 410 44 167 207 214 44 b 668 178 504 44 613 100 b 367 -14 621 58 492 -14 "},"f":{"ha":625,"x_min":0,"x_max":0,"o":"m 125 681 b 367 1042 125 878 108 1042 b 619 924 476 1042 543 996 l 496 792 b 514 883 508 819 514 853 b 367 1018 514 976 456 1018 b 228 858 269 1018 228 949 l 228 681 l 440 681 l 440 657 l 228 657 l 228 93 b 385 11 228 36 342 17 b 389 6 385 11 389 10 b 383 0 389 3 386 0 b 46 0 251 0 50 0 b 40 6 42 0 40 3 b 125 75 40 19 125 19 l 125 657 l 40 657 l 40 681 "},"g":{"ha":689,"x_min":0,"x_max":0,"o":"m 347 231 b 494 450 469 231 494 350 b 347 671 494 549 469 671 b 201 450 226 671 201 549 b 347 231 201 351 226 231 m 576 -149 b 235 -11 576 -31 319 -11 b 125 -147 164 -11 125 -85 b 351 -331 125 -275 239 -331 b 576 -149 471 -331 576 -271 m 449 676 b 615 804 485 739 547 782 l 653 682 b 557 728 633 708 589 728 b 464 669 515 728 485 703 b 593 450 551 629 593 543 b 347 207 593 304 493 207 b 132 133 299 207 132 207 b 653 -97 132 4 653 147 b 344 -354 653 -278 508 -354 b 29 -147 210 -354 29 -317 b 200 -3 29 -50 111 -3 b 72 104 142 10 72 33 b 244 225 72 194 174 217 b 103 450 149 263 103 350 b 347 694 103 592 206 694 b 449 676 382 694 417 689 "},"h":{"ha":794,"x_min":0,"x_max":0,"o":"m 44 11 b 125 75 94 25 125 42 l 125 953 b 44 1018 125 986 94 1003 b 46 1028 39 1019 40 1026 b 158 1042 88 1035 121 1042 b 228 957 196 1042 228 1042 l 228 539 b 515 694 332 642 425 694 b 681 553 631 694 681 640 l 681 75 b 761 11 681 42 713 25 b 760 0 767 8 765 0 l 500 0 b 497 11 493 0 492 8 b 579 75 547 25 579 42 l 579 506 b 474 639 579 593 556 639 b 228 507 381 639 292 571 l 228 75 b 308 11 228 42 260 25 b 307 0 314 8 313 0 l 46 0 b 44 11 40 0 39 8 "},"i":{"ha":346,"x_min":0,"x_max":0,"o":"m 176 853 b 97 932 133 853 97 888 b 176 1011 97 975 133 1011 b 256 932 221 1011 256 975 b 176 853 256 888 221 853 m 44 11 b 125 75 94 25 125 42 l 125 606 b 44 671 125 639 94 656 b 46 681 39 672 40 681 l 158 694 b 228 610 196 694 228 694 l 228 75 b 308 11 228 42 260 25 b 307 0 314 8 313 0 l 46 0 b 44 11 40 0 39 8 "},"j":{"ha":335,"x_min":0,"x_max":0,"o":"m 242 933 b 163 854 242 889 207 854 b 83 933 119 854 83 889 b 163 1013 83 976 119 1013 b 242 933 207 1013 242 976 m 222 -140 b 6 -353 222 -228 181 -353 b 4 -333 -12 -353 -10 -333 b 119 -169 93 -333 119 -247 l 119 607 b 39 671 119 640 89 657 b 40 682 33 674 35 682 l 153 696 b 222 611 192 696 222 696 "},"k":{"ha":775,"x_min":0,"x_max":0,"o":"m 472 0 b 469 11 465 0 464 8 b 525 75 519 25 550 40 l 306 381 l 228 311 l 228 75 b 308 11 228 42 260 25 b 307 0 314 8 313 0 l 46 0 b 44 11 40 0 39 8 b 125 75 94 25 125 42 l 125 953 b 44 1018 125 986 94 1003 b 46 1028 39 1019 40 1028 l 158 1042 b 228 957 196 1042 228 1042 l 228 343 l 524 607 b 503 671 554 636 550 656 b 504 681 497 672 499 681 l 688 681 b 689 671 693 681 694 672 b 556 604 638 654 597 642 l 382 449 l 647 81 b 758 11 676 40 708 25 b 757 0 764 8 763 0 "},"l":{"ha":353,"x_min":0,"x_max":0,"o":"m 44 11 b 125 75 94 25 125 42 l 125 953 b 44 1018 125 986 94 1003 b 46 1028 39 1019 40 1028 l 158 1042 b 228 957 196 1042 228 1042 l 228 75 b 308 11 228 42 260 25 b 307 0 314 8 313 0 l 46 0 b 44 11 40 0 39 8 "},"m":{"ha":1167,"x_min":0,"x_max":0,"o":"m 844 639 b 640 515 768 639 696 579 l 640 75 b 721 11 640 42 672 25 b 719 0 726 8 725 0 l 458 0 b 457 11 453 0 451 8 b 538 75 507 25 538 42 l 538 506 b 433 639 538 593 515 639 b 228 515 356 639 283 579 l 228 75 b 308 11 228 42 260 25 b 307 0 314 8 313 0 l 46 0 b 44 11 40 0 39 8 b 125 75 94 25 125 42 l 125 606 b 44 671 125 639 94 656 b 46 681 39 672 40 681 l 158 694 b 228 610 196 694 228 694 l 228 549 b 474 694 308 643 389 694 b 640 553 590 694 640 640 l 640 550 b 886 694 719 643 801 694 b 1053 553 1003 694 1053 640 l 1053 75 b 1133 11 1053 42 1083 25 b 1132 0 1139 8 1138 0 l 871 0 b 869 11 865 0 864 8 b 950 75 918 25 950 42 l 950 506 b 844 639 950 593 928 639 "},"n":{"ha":794,"x_min":0,"x_max":0,"o":"m 44 671 b 46 681 39 672 40 681 l 158 694 b 228 610 196 694 228 694 l 228 539 b 515 694 332 642 425 694 b 681 553 631 694 681 640 l 681 75 b 761 11 681 42 713 25 b 760 0 767 8 765 0 l 500 0 b 497 11 493 0 492 8 b 579 75 547 25 579 42 l 579 506 b 474 639 579 593 556 639 b 228 507 381 639 292 571 l 228 75 b 308 11 228 42 260 25 b 307 0 314 8 313 0 l 46 0 b 44 11 40 0 39 8 b 125 75 94 25 125 42 l 125 606 b 44 671 125 639 94 656 "},"o":{"ha":786,"x_min":0,"x_max":0,"o":"m 393 -14 b 54 340 186 -14 54 139 b 393 694 54 542 186 694 b 732 340 600 694 732 542 b 393 -14 732 139 600 -14 m 393 671 b 167 340 210 671 167 490 b 393 10 167 189 208 10 b 619 340 578 10 619 189 b 393 671 619 490 576 671 "},"p":{"ha":779,"x_min":0,"x_max":0,"o":"m 417 10 b 613 340 593 10 613 204 b 417 671 613 476 594 671 b 222 340 240 671 222 475 b 417 10 222 206 242 10 m 725 340 b 417 -14 725 144 629 -14 b 221 128 321 -14 256 42 l 221 -265 b 385 -329 221 -306 354 -321 b 389 -335 385 -329 389 -331 b 383 -340 389 -337 386 -340 l 39 -340 b 33 -335 35 -340 33 -337 b 118 -265 33 -321 118 -321 l 118 606 b 38 671 118 650 69 657 b 35 674 38 671 35 672 b 151 694 35 685 133 694 b 221 553 239 694 221 619 b 417 694 256 639 321 694 b 725 340 629 694 725 536 "},"q":{"ha":779,"x_min":0,"x_max":0,"o":"m 363 10 b 558 340 539 10 558 206 b 363 671 558 476 539 671 b 167 340 185 671 167 476 b 363 10 167 204 186 10 m 558 553 b 628 694 558 619 540 694 b 744 674 646 694 744 685 b 742 671 744 672 742 671 b 661 606 711 657 661 650 l 661 -265 b 742 -329 661 -306 711 -321 b 746 -335 742 -329 746 -331 b 740 -340 746 -337 743 -340 l 396 -340 b 390 -335 393 -340 390 -339 b 558 -265 390 -321 558 -321 l 558 128 b 363 -14 524 42 458 -14 b 54 340 150 -14 54 144 b 363 694 54 536 150 694 b 558 553 458 694 524 639 "},"r":{"ha":618,"x_min":0,"x_max":0,"o":"m 44 11 b 125 75 94 25 125 42 l 125 606 b 44 671 125 639 94 656 b 46 681 39 672 40 681 l 158 694 b 228 610 196 694 228 694 l 228 567 b 413 694 261 631 328 694 b 596 574 514 694 553 640 l 482 475 b 381 650 510 524 494 650 b 228 494 301 650 246 574 l 228 75 b 392 11 228 42 343 25 b 390 0 397 8 396 0 l 46 0 b 44 11 40 0 39 8 "},"s":{"ha":629,"x_min":0,"x_max":0,"o":"m 203 564 b 568 160 203 374 568 385 b 322 -14 568 31 429 -14 b 54 104 228 -14 122 39 l 178 236 b 165 178 168 218 165 197 b 322 10 165 85 225 10 b 465 136 399 10 465 54 b 107 519 465 307 107 297 b 318 694 107 638 211 694 b 551 576 419 694 483 643 l 429 444 b 444 531 440 471 444 503 b 318 671 444 613 406 671 b 203 564 253 671 203 632 "},"t":{"ha":533,"x_min":0,"x_max":0,"o":"m 219 853 l 219 681 l 433 681 l 433 657 l 221 657 l 221 249 b 351 44 221 150 226 44 b 521 168 429 44 481 110 b 318 -14 482 64 442 -14 b 118 215 157 -14 118 69 l 118 657 l 33 657 l 33 681 b 196 853 125 681 196 764 "},"u":{"ha":788,"x_min":0,"x_max":0,"o":"m 33 669 b 35 681 28 672 29 681 l 147 694 b 217 610 185 694 217 694 l 217 175 b 322 42 217 88 239 42 b 568 172 414 42 503 110 l 568 606 b 486 669 568 639 536 656 b 489 681 481 672 482 681 l 600 694 b 669 610 639 694 669 694 l 669 75 b 750 10 669 40 701 25 b 749 0 756 8 754 0 l 636 -14 b 568 71 599 -14 568 -14 l 568 142 b 281 -14 463 39 369 -14 b 114 128 164 -14 114 40 l 114 606 b 33 669 114 639 83 656 "},"v":{"ha":724,"x_min":0,"x_max":0,"o":"m 707 669 b 625 600 665 657 643 640 l 351 -14 l 99 600 b 17 669 79 649 61 650 b 13 675 14 671 13 672 b 19 681 13 678 15 681 b 271 681 24 681 172 681 b 278 675 274 681 278 679 b 274 669 278 671 274 669 b 204 619 247 665 204 651 b 396 146 204 599 376 193 b 606 621 418 196 606 596 b 535 669 606 658 560 661 b 531 675 535 669 531 671 b 536 681 531 678 532 681 l 706 681 b 711 675 708 681 711 679 b 707 669 711 671 707 669 "},"w":{"ha":1011,"x_min":0,"x_max":0,"o":"m 993 669 b 938 643 969 663 951 654 b 908 600 925 631 915 617 l 667 -14 l 501 442 l 322 -14 l 99 600 b 17 669 86 635 67 656 b 18 681 11 672 13 681 l 267 681 b 268 669 272 681 274 671 b 200 601 215 661 188 635 l 364 153 l 490 474 l 443 600 b 363 669 431 635 411 656 b 364 681 356 672 357 681 l 611 681 b 613 669 618 681 619 671 b 546 601 561 661 533 635 l 708 153 l 886 601 b 821 669 899 635 874 661 b 822 681 815 671 817 681 l 992 681 b 993 669 999 681 1000 672 "},"x":{"ha":772,"x_min":0,"x_max":0,"o":"m 528 671 b 529 681 522 671 524 681 l 715 681 b 717 671 721 681 722 672 b 611 599 668 656 636 629 l 433 381 l 650 81 b 742 11 672 49 692 25 b 739 0 747 8 746 0 l 475 0 b 474 11 469 0 468 10 b 525 78 526 18 547 47 l 356 314 l 164 79 b 219 11 139 47 167 18 b 218 0 225 10 224 0 l 32 0 b 31 11 26 0 25 8 b 136 82 81 25 113 51 l 342 333 l 149 601 b 58 671 126 632 107 656 b 60 681 51 672 53 681 l 324 681 b 325 671 329 681 331 671 b 274 603 272 663 251 633 l 419 400 l 583 603 b 528 671 608 635 581 663 "},"y":{"ha":746,"x_min":0,"x_max":0,"o":"m 26 -204 b 128 -237 53 -218 88 -237 b 315 -56 183 -237 249 -200 l 339 -4 l 100 597 b 17 669 86 631 65 656 b 18 681 11 672 13 681 l 272 681 b 274 669 278 681 279 671 b 208 604 221 661 194 638 l 399 124 l 622 606 b 557 669 638 638 610 661 b 558 681 551 671 553 681 l 728 681 b 729 669 733 681 735 672 b 646 600 685 657 665 642 l 301 -146 b 106 -353 268 -217 203 -353 "},"z":{"ha":668,"x_min":0,"x_max":0,"o":"m 54 0 l 467 657 l 278 657 b 101 546 158 657 118 618 b 92 547 100 540 92 542 l 92 681 l 607 681 l 194 24 l 428 24 b 603 135 547 24 588 63 b 614 133 604 140 614 139 l 614 0 "},"{":{"ha":488,"x_min":0,"x_max":0,"o":"m 40 381 b 183 515 133 396 183 414 l 183 851 b 374 1021 183 967 265 1021 l 440 1021 l 440 989 b 269 864 335 989 269 990 l 269 517 b 135 381 269 433 215 383 b 269 243 217 378 269 326 l 269 -104 b 440 -229 269 -229 336 -229 l 440 -261 l 374 -261 b 183 -90 265 -261 183 -206 l 183 246 b 40 379 183 347 133 365 "},"|":{"ha":568,"x_min":0,"x_max":0,"o":"m 228 1042 l 340 1042 l 340 -319 l 228 -319 "},"}":{"ha":488,"x_min":0,"x_max":0,"o":"m 114 1021 b 304 851 222 1021 304 967 l 304 515 b 447 381 304 414 354 396 l 447 379 b 304 246 354 365 304 347 l 304 -90 b 114 -261 304 -206 222 -261 l 47 -261 l 47 -229 b 218 -104 151 -229 218 -229 l 218 243 b 353 381 218 326 271 378 b 218 517 272 383 218 433 l 218 864 b 47 989 218 990 153 989 l 47 1021 "},"~":{"ha":699,"x_min":0,"x_max":0,"o":"m 261 619 b 536 542 360 619 438 542 b 638 592 578 542 613 558 b 490 469 601 540 563 469 b 233 543 414 469 319 543 b 61 457 161 543 104 515 b 261 619 101 536 163 619 "},"¢":{"ha":747,"x_min":0,"x_max":0,"o":"m 188 535 b 283 243 188 436 199 307 l 425 824 b 388 826 413 825 400 826 b 188 535 232 826 188 663 m 431 201 b 689 335 529 201 633 254 b 401 143 642 217 528 143 b 301 154 368 143 335 147 l 261 -14 l 224 -4 l 265 165 b 75 497 128 219 75 358 b 388 850 75 693 178 850 b 432 849 403 850 417 850 l 475 1025 l 513 1017 l 469 842 b 672 733 546 825 615 786 l 549 600 b 558 660 557 619 558 639 b 463 814 558 726 529 790 l 318 222 b 431 201 353 206 392 201 "},"£":{"ha":879,"x_min":0,"x_max":0,"o":"m 793 289 b 804 288 794 294 804 293 l 797 0 l 153 0 l 176 76 b 218 476 242 278 239 388 l 47 476 l 47 544 l 199 544 b 153 775 178 611 153 676 b 461 1035 153 921 260 1035 b 800 894 618 1035 738 956 l 669 721 b 461 997 689 829 654 997 b 265 790 311 997 265 906 b 294 544 265 683 282 613 l 650 544 l 650 476 l 303 476 b 208 76 311 385 296 278 l 558 76 b 793 289 693 76 768 186 "},"¥":{"ha":944,"x_min":0,"x_max":0,"o":"m 914 1011 b 794 911 858 992 826 958 l 533 513 l 776 513 l 776 444 l 531 444 l 531 368 l 776 368 l 776 300 l 531 300 l 531 104 b 638 10 531 69 581 31 b 636 0 643 8 642 0 l 314 0 b 313 10 308 0 307 8 b 419 104 369 31 419 69 l 419 300 l 174 300 l 174 368 l 419 368 l 419 444 l 174 444 l 174 513 l 411 513 l 151 913 b 31 1011 122 957 88 990 b 32 1021 25 1013 26 1021 l 356 1021 b 357 1011 361 1021 363 1013 b 292 910 300 990 253 965 l 510 571 l 726 903 b 661 1011 763 960 718 990 b 663 1021 656 1013 657 1021 l 913 1021 b 914 1011 918 1021 919 1013 "},"¨":{"ha":471,"x_min":0,"x_max":0,"o":"m 206 949 b 133 876 206 908 174 876 b 61 949 93 876 61 908 b 133 1021 61 989 93 1021 b 206 949 174 1021 206 989 m 264 949 b 336 1021 264 989 297 1021 b 410 949 376 1021 410 989 b 336 876 410 908 376 876 b 264 949 297 876 264 908 "},"´":{"ha":378,"x_min":0,"x_max":0,"o":"m 317 942 l 85 821 l 61 857 l 272 1021 "},"¸":{"ha":356,"x_min":0,"x_max":0,"o":"m 294 -112 b 161 -215 294 -167 236 -215 b 61 -186 129 -215 96 -207 l 67 -176 b 128 -189 90 -186 110 -189 b 157 -65 228 -189 240 -65 b 103 -79 142 -65 124 -69 l 153 42 l 171 42 l 132 -50 b 210 -26 163 -33 188 -26 b 294 -112 267 -26 294 -75 "},"À":{"ha":975,"x_min":0,"x_max":0,"o":"m 592 396 l 433 821 l 275 396 m 474 1035 l 819 107 b 932 10 846 38 878 42 b 935 7 933 8 935 8 b 929 0 935 3 933 0 l 631 0 b 626 7 626 0 626 4 b 629 10 626 8 628 8 b 706 78 658 28 706 32 b 606 358 706 119 624 310 l 261 358 b 161 76 243 310 161 118 b 239 10 161 32 210 28 b 242 7 240 8 242 8 b 238 0 242 4 242 0 l 17 0 b 13 7 13 0 13 4 b 15 10 13 8 14 8 b 128 107 67 40 104 42 m 456 1257 b 603 1074 456 1182 519 1074 l 603 1068 b 357 1257 503 1068 357 1142 "},"Á":{"ha":975,"x_min":0,"x_max":0,"o":"m 592 396 l 433 821 l 275 396 m 474 1035 l 819 107 b 932 10 846 38 878 42 b 935 7 933 8 935 8 b 929 0 935 3 933 0 l 631 0 b 626 7 626 0 626 4 b 629 10 626 8 628 8 b 706 78 658 28 706 32 b 606 358 706 119 624 310 l 261 358 b 161 76 243 310 161 118 b 239 10 161 32 210 28 b 242 7 240 8 242 8 b 238 0 242 4 242 0 l 17 0 b 13 7 13 0 13 4 b 15 10 13 8 14 8 b 128 107 67 40 104 42 m 596 1257 b 350 1068 596 1142 453 1068 l 350 1074 b 497 1257 433 1074 497 1182 "},"Â":{"ha":975,"x_min":0,"x_max":0,"o":"m 433 821 l 275 396 l 592 396 m 474 1035 l 819 107 b 932 10 846 38 878 42 b 935 7 933 8 935 8 b 929 0 935 3 933 0 l 631 0 b 626 7 626 0 626 4 b 629 10 626 8 628 8 b 706 78 658 28 706 32 b 606 358 706 119 624 310 l 261 358 b 161 76 243 310 161 118 b 239 10 161 32 210 28 b 242 7 240 8 242 8 b 238 0 242 4 242 0 l 17 0 b 13 7 13 0 13 4 b 15 10 13 8 14 8 b 128 107 67 40 104 42 m 378 1143 b 432 1244 410 1179 428 1213 l 513 1244 b 665 1090 532 1185 596 1090 l 665 1083 b 474 1167 596 1083 521 1115 b 282 1083 426 1117 351 1083 l 282 1090 b 378 1143 315 1089 347 1107 "},"Ã":{"ha":975,"x_min":0,"x_max":0,"o":"m 592 396 l 433 821 l 275 396 m 474 1035 l 819 107 b 932 10 846 38 878 42 b 935 7 933 8 935 8 b 929 0 935 3 933 0 l 631 0 b 626 7 626 0 626 4 b 629 10 626 8 628 8 b 706 78 658 28 706 32 b 606 358 706 119 624 310 l 261 358 b 161 76 243 310 161 118 b 239 10 161 32 210 28 b 242 7 240 8 242 8 b 238 0 242 4 242 0 l 17 0 b 13 7 13 0 13 4 b 15 10 13 8 14 8 b 128 107 67 40 104 42 m 411 1142 b 308 1083 364 1142 336 1121 b 433 1196 332 1129 374 1196 b 608 1119 500 1196 546 1119 b 668 1154 633 1119 654 1135 b 578 1067 647 1124 621 1067 b 411 1142 531 1067 467 1142 "},"Ä":{"ha":975,"x_min":0,"x_max":0,"o":"m 592 396 l 433 821 l 275 396 m 474 1035 l 819 107 b 932 10 846 38 878 42 b 935 7 933 8 935 8 b 929 0 935 3 933 0 l 631 0 b 626 7 626 0 626 4 b 629 10 626 8 628 8 b 706 78 658 28 706 32 b 606 358 706 119 624 310 l 261 358 b 161 76 243 310 161 118 b 239 10 161 32 210 28 b 242 7 240 8 242 8 b 238 0 242 4 242 0 l 17 0 b 13 7 13 0 13 4 b 15 10 13 8 14 8 b 128 107 67 40 104 42 m 457 1139 b 385 1067 457 1099 425 1067 b 313 1139 344 1067 313 1099 b 385 1211 313 1179 344 1211 b 457 1139 425 1211 457 1179 m 515 1139 b 588 1211 515 1179 549 1211 b 661 1139 628 1211 661 1179 b 588 1067 661 1099 628 1067 b 515 1139 549 1067 515 1099 "},"Å":{"ha":975,"x_min":0,"x_max":0,"o":"m 592 396 l 433 821 l 275 396 m 417 1188 b 488 1118 417 1149 449 1118 b 558 1188 526 1118 558 1149 b 488 1260 558 1226 526 1260 b 417 1188 449 1260 417 1226 m 474 1035 l 819 107 b 932 10 846 38 878 42 b 935 7 933 8 935 8 b 929 0 935 3 933 0 l 631 0 b 626 7 626 0 626 4 b 629 10 626 8 628 8 b 706 78 658 28 706 32 b 606 358 706 119 624 310 l 261 358 b 161 76 243 310 161 118 b 239 10 161 32 210 28 b 242 7 240 8 242 8 b 238 0 242 4 242 0 l 17 0 b 13 7 13 0 13 4 b 15 10 13 8 14 8 b 128 107 67 40 104 42 m 610 1189 b 488 1067 610 1121 556 1067 b 365 1189 419 1067 365 1121 b 488 1311 365 1257 419 1311 b 610 1189 556 1311 610 1257 "},"Æ":{"ha":1349,"x_min":0,"x_max":0,"o":"m 711 911 l 389 396 l 711 396 m 1250 250 b 1260 247 1251 256 1260 253 l 1253 0 l 607 0 b 604 10 600 0 599 8 b 711 104 663 31 711 69 l 711 358 l 365 358 l 143 0 l 32 0 b 31 10 26 0 25 8 b 158 92 82 28 129 49 l 650 900 b 574 1011 675 942 631 990 b 575 1021 568 1013 569 1021 l 1228 1021 l 1235 814 b 1225 813 1235 808 1226 807 b 1026 983 1204 869 1161 983 l 824 983 l 824 574 l 982 574 b 1078 679 1017 574 1057 622 b 1088 678 1079 685 1088 683 l 1088 432 b 1078 429 1088 425 1079 424 b 982 536 1057 488 1017 536 l 824 536 l 824 38 l 1015 38 b 1250 250 1150 38 1225 147 "},"Ç":{"ha":1040,"x_min":0,"x_max":0,"o":"m 578 -14 b 68 510 258 -14 68 194 b 571 1035 68 836 269 1035 b 951 894 728 1035 889 954 l 821 719 b 571 997 860 807 764 997 b 189 510 354 997 189 817 b 571 24 189 203 354 24 b 821 300 764 24 860 214 l 951 126 b 597 -12 892 68 744 -6 l 564 -90 b 642 -67 594 -74 619 -67 b 726 -153 699 -67 726 -115 b 593 -256 726 -207 668 -256 b 493 -226 561 -256 528 -247 l 499 -217 b 560 -229 522 -226 542 -229 b 589 -106 660 -229 672 -106 b 535 -119 574 -106 556 -110 "},"È":{"ha":775,"x_min":0,"x_max":0,"o":"m 44 10 b 150 104 101 31 150 69 l 150 917 b 44 1011 150 951 101 990 b 46 1021 39 1013 40 1021 l 654 1021 l 660 814 b 650 813 660 808 653 807 b 451 983 631 869 586 983 l 263 983 l 263 574 l 394 574 b 489 679 429 574 469 622 b 499 678 492 685 499 683 l 499 432 b 489 429 499 425 492 424 b 394 536 469 488 429 536 l 263 536 l 263 38 l 428 38 b 663 250 563 38 636 147 b 672 247 664 256 672 253 l 665 0 l 46 0 b 44 10 40 0 39 8 m 361 1257 b 508 1074 361 1182 425 1074 l 508 1068 b 263 1257 408 1068 263 1142 "},"É":{"ha":775,"x_min":0,"x_max":0,"o":"m 44 10 b 150 104 101 31 150 69 l 150 917 b 44 1011 150 951 101 990 b 46 1021 39 1013 40 1021 l 654 1021 l 660 814 b 650 813 660 808 653 807 b 451 983 631 869 586 983 l 263 983 l 263 574 l 394 574 b 489 679 429 574 469 622 b 499 678 492 685 499 683 l 499 432 b 489 429 499 425 492 424 b 394 536 469 488 429 536 l 263 536 l 263 38 l 428 38 b 663 250 563 38 636 147 b 672 247 664 256 672 253 l 665 0 l 46 0 b 44 10 40 0 39 8 m 519 1257 b 274 1068 519 1142 376 1068 l 274 1074 b 421 1257 357 1074 421 1182 "},"Ê":{"ha":775,"x_min":0,"x_max":0,"o":"m 44 10 b 150 104 101 31 150 69 l 150 917 b 44 1011 150 951 101 990 b 46 1021 39 1013 40 1021 l 654 1021 l 660 814 b 650 813 660 808 653 807 b 451 983 631 869 586 983 l 263 983 l 263 574 l 394 574 b 489 679 429 574 469 622 b 499 678 492 685 499 683 l 499 432 b 489 429 499 425 492 424 b 394 536 469 488 429 536 l 263 536 l 263 38 l 428 38 b 663 250 563 38 636 147 b 672 247 664 256 672 253 l 665 0 l 46 0 b 44 10 40 0 39 8 m 283 1143 b 338 1244 315 1179 333 1213 l 418 1244 b 571 1090 438 1185 501 1090 l 571 1083 b 379 1167 501 1083 426 1115 b 188 1083 332 1117 257 1083 l 188 1090 b 283 1143 221 1089 253 1107 "},"Ë":{"ha":775,"x_min":0,"x_max":0,"o":"m 340 1139 b 268 1067 340 1099 308 1067 b 196 1139 228 1067 196 1099 b 268 1211 196 1179 228 1211 b 340 1139 308 1211 340 1179 m 399 1139 b 471 1211 399 1179 432 1211 b 544 1139 511 1211 544 1179 b 471 1067 544 1099 511 1067 b 399 1139 432 1067 399 1099 m 44 10 b 150 104 101 31 150 69 l 150 917 b 44 1011 150 951 101 990 b 46 1021 39 1013 40 1021 l 654 1021 l 660 814 b 650 813 660 808 653 807 b 451 983 631 869 586 983 l 263 983 l 263 574 l 394 574 b 489 679 429 574 469 622 b 499 678 492 685 499 683 l 499 432 b 489 429 499 425 492 424 b 394 536 469 488 429 536 l 263 536 l 263 38 l 428 38 b 663 250 563 38 636 147 b 672 247 664 256 672 253 l 665 0 l 46 0 b 44 10 40 0 39 8 "},"Ì":{"ha":442,"x_min":0,"x_max":0,"o":"m 44 10 b 150 104 101 31 150 69 l 150 917 b 44 1011 150 951 101 990 b 46 1021 39 1013 40 1021 l 368 1021 b 369 1011 374 1021 375 1013 b 263 917 313 990 263 951 l 263 104 b 369 10 263 69 313 31 b 368 0 375 8 374 0 l 46 0 b 44 10 40 0 39 8 m 190 1257 b 338 1074 190 1182 254 1074 l 338 1068 b 92 1257 238 1068 92 1142 "},"Í":{"ha":442,"x_min":0,"x_max":0,"o":"m 44 10 b 150 104 101 31 150 69 l 150 917 b 44 1011 150 951 101 990 b 46 1021 39 1013 40 1021 l 368 1021 b 369 1011 374 1021 375 1013 b 263 917 313 990 263 951 l 263 104 b 369 10 263 69 313 31 b 368 0 375 8 374 0 l 46 0 b 44 10 40 0 39 8 m 336 1257 b 90 1068 336 1142 193 1068 l 90 1074 b 238 1257 174 1074 238 1182 "},"Î":{"ha":442,"x_min":0,"x_max":0,"o":"m 250 1269 l 369 1067 l 311 1067 l 221 1219 l 131 1067 l 72 1067 l 192 1269 m 44 10 b 150 104 101 31 150 69 l 150 917 b 44 1011 150 951 101 990 b 46 1021 39 1013 40 1021 l 368 1021 b 369 1011 374 1021 375 1013 b 263 917 313 990 263 951 l 263 104 b 369 10 263 69 313 31 b 368 0 375 8 374 0 l 46 0 b 44 10 40 0 39 8 "},"Ï":{"ha":442,"x_min":0,"x_max":0,"o":"m 190 1139 b 118 1067 190 1099 158 1067 b 46 1139 78 1067 46 1099 b 118 1211 46 1179 78 1211 b 190 1139 158 1211 190 1179 m 249 1139 b 321 1211 249 1179 282 1211 b 394 1139 361 1211 394 1179 b 321 1067 394 1099 361 1067 b 249 1139 282 1067 249 1099 m 44 10 b 150 104 101 31 150 69 l 150 917 b 44 1011 150 951 101 990 b 46 1021 39 1013 40 1021 l 368 1021 b 369 1011 374 1021 375 1013 b 263 917 313 990 263 951 l 263 104 b 369 10 263 69 313 31 b 368 0 375 8 374 0 l 46 0 b 44 10 40 0 39 8 "},"Ð":{"ha":1065,"x_min":0,"x_max":0,"o":"m 851 511 b 458 983 851 743 714 983 l 261 983 l 261 542 l 342 542 l 342 489 l 261 489 l 261 38 l 458 38 b 851 511 714 38 851 281 m 471 1021 b 969 511 769 1021 969 804 b 471 0 969 217 771 0 l 44 0 b 40 7 40 0 40 4 b 43 10 40 8 42 8 b 149 104 78 26 149 56 l 149 489 l 96 489 l 96 542 l 149 542 l 149 917 b 43 1011 149 965 78 994 b 40 1014 42 1013 40 1013 b 44 1021 40 1017 40 1021 "},"Ñ":{"ha":1024,"x_min":0,"x_max":0,"o":"m 439 1142 b 336 1083 392 1142 364 1121 b 461 1196 360 1129 401 1196 b 636 1119 528 1196 574 1119 b 696 1154 661 1119 682 1135 b 606 1067 675 1124 649 1067 b 439 1142 558 1067 494 1142 m 44 10 b 150 104 101 31 150 69 l 150 917 b 44 1011 150 951 101 990 b 46 1021 39 1013 40 1021 l 257 1021 l 814 233 l 814 917 b 708 1011 814 951 765 990 b 710 1021 703 1013 704 1021 l 957 1021 b 958 1011 963 1021 964 1013 b 851 917 901 990 851 951 l 851 -14 l 188 924 l 188 104 b 294 10 188 69 238 31 b 293 0 300 8 299 0 l 46 0 b 44 10 40 0 39 8 "},"Ò":{"ha":1169,"x_min":0,"x_max":0,"o":"m 571 997 b 189 510 301 997 189 746 b 571 24 189 274 301 24 b 953 510 840 24 953 274 b 571 997 953 746 840 997 m 571 -14 b 68 510 254 -14 68 200 b 571 1035 68 819 254 1035 b 1074 510 888 1035 1074 819 b 571 -14 1074 200 888 -14 m 571 1263 b 718 1079 571 1188 635 1079 l 718 1074 b 472 1263 618 1074 472 1147 "},"Ó":{"ha":1169,"x_min":0,"x_max":0,"o":"m 571 997 b 189 510 301 997 189 746 b 571 24 189 274 301 24 b 953 510 840 24 953 274 b 571 997 953 746 840 997 m 571 -14 b 68 510 254 -14 68 200 b 571 1035 68 819 254 1035 b 1074 510 888 1035 1074 819 b 571 -14 1074 200 888 -14 m 669 1257 b 424 1068 669 1142 526 1068 l 424 1074 b 571 1257 507 1074 571 1182 "},"Ô":{"ha":1169,"x_min":0,"x_max":0,"o":"m 571 997 b 189 510 301 997 189 746 b 571 24 189 274 301 24 b 953 510 840 24 953 274 b 571 997 953 746 840 997 m 571 -14 b 68 510 254 -14 68 200 b 571 1035 68 819 254 1035 b 1074 510 888 1035 1074 819 b 571 -14 1074 200 888 -14 m 458 1143 b 513 1244 490 1179 508 1213 l 593 1244 b 746 1090 613 1185 676 1090 l 746 1083 b 554 1167 676 1083 601 1115 b 363 1083 507 1117 432 1083 l 363 1090 b 458 1143 396 1089 428 1107 "},"Õ":{"ha":1169,"x_min":0,"x_max":0,"o":"m 571 997 b 189 510 301 997 189 746 b 571 24 189 274 301 24 b 953 510 840 24 953 274 b 571 997 953 746 840 997 m 571 -14 b 68 510 254 -14 68 200 b 571 1035 68 819 254 1035 b 1074 510 888 1035 1074 819 b 571 -14 1074 200 888 -14 m 510 1142 b 407 1083 463 1142 435 1121 b 532 1196 431 1129 472 1196 b 707 1119 599 1196 644 1119 b 767 1154 732 1119 753 1135 b 676 1067 746 1124 719 1067 b 510 1142 629 1067 565 1142 "},"Ö":{"ha":1169,"x_min":0,"x_max":0,"o":"m 556 1139 b 483 1067 556 1099 524 1067 b 411 1139 443 1067 411 1099 b 483 1211 411 1179 443 1211 b 556 1139 524 1211 556 1179 m 614 1139 b 686 1211 614 1179 647 1211 b 760 1139 726 1211 760 1179 b 686 1067 760 1099 726 1067 b 614 1139 647 1067 614 1099 m 571 -14 b 68 510 254 -14 68 200 b 571 1035 68 819 254 1035 b 1074 510 888 1035 1074 819 b 571 -14 1074 200 888 -14 m 571 997 b 189 510 301 997 189 746 b 571 24 189 274 301 24 b 953 510 840 24 953 274 b 571 997 953 746 840 997 "},"Ø":{"ha":1169,"x_min":0,"x_max":0,"o":"m 571 997 b 189 510 301 997 189 746 b 328 119 189 364 232 214 l 760 944 b 571 997 708 978 646 997 m 393 69 b 571 24 443 40 501 24 b 953 510 840 24 953 274 b 824 892 953 650 913 796 m 829 1076 l 921 1076 l 858 957 b 1074 510 997 868 1074 708 b 571 -14 1074 200 888 -14 b 368 21 496 -14 428 -1 l 328 -56 l 236 -56 l 294 56 b 68 510 149 143 68 306 b 571 1035 68 819 254 1035 b 786 994 651 1035 724 1021 "},"Ù":{"ha":1021,"x_min":0,"x_max":0,"o":"m 510 -14 b 142 340 297 -14 142 124 l 142 917 b 36 1011 142 964 71 994 b 33 1015 36 1011 33 1013 b 39 1021 33 1018 35 1021 l 358 1021 b 364 1015 363 1021 364 1018 b 361 1011 364 1013 361 1011 b 254 917 328 994 254 964 l 254 303 b 533 24 254 135 367 24 b 813 303 706 24 813 129 l 813 917 b 707 1011 813 964 742 994 b 704 1015 707 1011 704 1013 b 710 1021 704 1018 706 1021 l 954 1021 b 960 1015 958 1021 960 1018 b 957 1011 960 1013 957 1011 b 850 917 924 994 850 964 l 850 322 b 510 -14 850 108 722 -14 m 472 1263 b 619 1079 472 1188 536 1079 l 619 1074 b 374 1263 519 1074 374 1147 "},"Ú":{"ha":1021,"x_min":0,"x_max":0,"o":"m 510 -14 b 142 340 297 -14 142 124 l 142 917 b 36 1011 142 964 71 994 b 33 1015 36 1011 33 1013 b 39 1021 33 1018 35 1021 l 358 1021 b 364 1015 363 1021 364 1018 b 361 1011 364 1013 361 1011 b 254 917 328 994 254 964 l 254 303 b 533 24 254 135 367 24 b 813 303 706 24 813 129 l 813 917 b 707 1011 813 964 742 994 b 704 1015 707 1011 704 1013 b 710 1021 704 1018 706 1021 l 954 1021 b 960 1015 958 1021 960 1018 b 957 1011 960 1013 957 1011 b 850 917 924 994 850 964 l 850 322 b 510 -14 850 108 722 -14 m 663 1257 b 417 1068 663 1142 519 1068 l 417 1074 b 564 1257 500 1074 564 1182 "},"Û":{"ha":1021,"x_min":0,"x_max":0,"o":"m 554 1269 l 674 1067 l 615 1067 l 525 1219 l 435 1067 l 376 1067 l 496 1269 m 510 -14 b 142 340 297 -14 142 124 l 142 917 b 36 1011 142 964 71 994 b 33 1015 36 1011 33 1013 b 39 1021 33 1018 35 1021 l 358 1021 b 364 1015 363 1021 364 1018 b 361 1011 364 1013 361 1011 b 254 917 328 994 254 964 l 254 303 b 533 24 254 135 367 24 b 813 303 706 24 813 129 l 813 917 b 707 1011 813 964 742 994 b 704 1015 707 1011 704 1013 b 710 1021 704 1018 706 1021 l 954 1021 b 960 1015 958 1021 960 1018 b 957 1011 960 1013 957 1011 b 850 917 924 994 850 964 l 850 322 b 510 -14 850 108 722 -14 "},"Ü":{"ha":1021,"x_min":0,"x_max":0,"o":"m 494 1139 b 422 1067 494 1099 463 1067 b 350 1139 382 1067 350 1099 b 422 1211 350 1179 382 1211 b 494 1139 463 1211 494 1179 m 553 1139 b 625 1211 553 1179 586 1211 b 699 1139 665 1211 699 1179 b 625 1067 699 1099 665 1067 b 553 1139 586 1067 553 1099 m 510 -14 b 142 340 297 -14 142 124 l 142 917 b 36 1011 142 964 71 994 b 33 1015 36 1011 33 1013 b 39 1021 33 1018 35 1021 l 358 1021 b 364 1015 363 1021 364 1018 b 361 1011 364 1013 361 1011 b 254 917 328 994 254 964 l 254 303 b 533 24 254 135 367 24 b 813 303 706 24 813 129 l 813 917 b 707 1011 813 964 742 994 b 704 1015 707 1011 704 1013 b 710 1021 704 1018 706 1021 l 954 1021 b 960 1015 958 1021 960 1018 b 957 1011 960 1013 957 1011 b 850 917 924 994 850 964 l 850 322 b 510 -14 850 108 722 -14 "},"Ý":{"ha":942,"x_min":0,"x_max":0,"o":"m 515 510 l 515 104 b 622 10 515 53 589 29 b 625 6 622 10 625 8 b 619 0 625 3 624 0 l 300 0 b 294 6 296 0 294 3 b 297 10 294 8 297 10 b 404 104 331 29 404 53 l 404 500 l 136 913 b 15 1011 97 972 72 978 b 13 1015 15 1011 13 1013 b 18 1021 13 1018 14 1021 l 339 1021 b 344 1015 343 1021 344 1018 b 342 1011 344 1013 342 1011 b 261 946 315 996 261 989 b 276 910 261 931 269 921 l 494 571 l 711 903 b 724 940 718 914 724 928 b 646 1011 724 985 675 993 b 643 1015 646 1011 643 1013 b 649 1021 643 1018 644 1021 l 896 1021 b 901 1015 900 1021 901 1018 b 899 1011 901 1013 899 1011 b 779 911 836 975 813 961 m 639 1257 b 393 1068 639 1142 496 1068 l 393 1074 b 540 1257 476 1074 540 1182 "},"Þ":{"ha":875,"x_min":0,"x_max":0,"o":"m 276 769 l 276 251 l 400 251 b 689 511 596 251 689 331 b 400 769 689 690 596 769 m 58 10 b 164 104 115 31 164 69 l 164 917 b 58 1011 164 951 115 990 b 60 1021 53 1013 54 1021 l 382 1021 b 383 1011 388 1021 389 1013 b 276 917 326 990 276 951 l 276 807 l 471 807 b 800 511 706 807 800 674 b 471 214 800 347 706 214 l 276 214 l 276 104 b 383 10 276 69 326 31 b 382 0 389 8 388 0 l 60 0 b 58 10 54 0 53 8 "},"ß":{"ha":936,"x_min":0,"x_max":0,"o":"m 861 289 b 574 -14 861 101 760 -14 b 318 60 494 -14 388 10 l 415 225 b 411 183 413 211 411 199 b 572 24 411 86 485 24 b 750 289 725 24 750 160 b 406 554 750 529 601 554 l 406 592 b 683 788 567 592 683 590 b 468 997 683 931 593 997 b 268 794 349 997 268 915 l 268 114 b 156 0 268 51 218 0 l 53 0 b 47 6 49 0 47 3 b 50 10 47 8 50 10 b 156 106 85 26 156 56 l 156 756 b 483 1035 156 947 311 1035 b 796 794 624 1035 796 965 b 656 578 796 696 744 615 b 861 289 793 540 861 432 "},"à":{"ha":711,"x_min":0,"x_max":0,"o":"m 279 10 b 464 288 418 10 464 176 l 464 422 b 156 174 321 385 156 349 b 279 10 156 89 179 10 m 650 7 b 533 -14 650 -4 551 -14 b 464 135 443 -14 464 67 b 258 -14 429 40 360 -14 b 47 163 140 -14 47 33 b 464 444 47 342 331 407 b 325 671 464 549 464 671 b 178 536 235 671 178 628 b 196 444 178 506 183 472 l 74 576 b 325 694 149 650 217 694 b 567 519 435 694 567 650 l 567 75 b 647 10 567 31 617 22 b 650 7 647 10 650 8 m 314 943 b 461 760 314 868 378 760 l 461 754 b 215 943 361 754 215 828 "},"á":{"ha":711,"x_min":0,"x_max":0,"o":"m 279 10 b 464 288 418 10 464 176 l 464 422 b 156 174 321 385 156 349 b 279 10 156 89 179 10 m 650 7 b 533 -14 650 -4 551 -14 b 464 135 443 -14 464 67 b 258 -14 429 40 360 -14 b 47 163 140 -14 47 33 b 464 444 47 342 331 407 b 325 671 464 549 464 671 b 178 536 235 671 178 628 b 196 444 178 506 183 472 l 74 576 b 325 694 149 650 217 694 b 567 519 435 694 567 650 l 567 75 b 647 10 567 31 617 22 b 650 7 647 10 650 8 m 454 943 b 208 754 454 828 311 754 l 208 760 b 356 943 292 760 356 868 "},"â":{"ha":711,"x_min":0,"x_max":0,"o":"m 279 10 b 464 288 418 10 464 176 l 464 422 b 156 174 321 385 156 349 b 279 10 156 89 179 10 m 650 7 b 533 -14 650 -4 551 -14 b 464 135 443 -14 464 67 b 258 -14 429 40 360 -14 b 47 163 140 -14 47 33 b 464 444 47 342 331 407 b 325 671 464 549 464 671 b 178 536 235 671 178 628 b 196 444 178 506 183 472 l 74 576 b 325 694 149 650 217 694 b 567 519 435 694 567 650 l 567 75 b 647 10 567 31 617 22 b 650 7 647 10 650 8 m 236 796 b 290 897 268 832 286 865 l 371 897 b 524 743 390 838 454 743 l 524 736 b 332 819 454 736 379 768 b 140 736 285 769 210 736 l 140 743 b 236 796 174 742 206 760 "},"ã":{"ha":711,"x_min":0,"x_max":0,"o":"m 279 10 b 464 288 418 10 464 176 l 464 422 b 156 174 321 385 156 349 b 279 10 156 89 179 10 m 650 7 b 533 -14 650 -4 551 -14 b 464 135 443 -14 464 67 b 258 -14 429 40 360 -14 b 47 163 140 -14 47 33 b 464 444 47 342 331 407 b 325 671 464 549 464 671 b 178 536 235 671 178 628 b 196 444 178 506 183 472 l 74 576 b 325 694 149 650 217 694 b 567 519 435 694 567 650 l 567 75 b 647 10 567 31 617 22 b 650 7 647 10 650 8 m 263 825 b 160 767 215 825 188 804 b 285 879 183 813 225 879 b 460 803 351 879 397 803 b 519 838 485 803 506 818 b 429 750 499 807 472 750 b 263 825 382 750 318 825 "},"ä":{"ha":711,"x_min":0,"x_max":0,"o":"m 279 10 b 464 288 418 10 464 176 l 464 422 b 156 174 321 385 156 349 b 279 10 156 89 179 10 m 650 7 b 533 -14 650 -4 551 -14 b 464 135 443 -14 464 67 b 258 -14 429 40 360 -14 b 47 163 140 -14 47 33 b 464 444 47 342 331 407 b 325 671 464 549 464 671 b 178 536 235 671 178 628 b 196 444 178 506 183 472 l 74 576 b 325 694 149 650 217 694 b 567 519 435 694 567 650 l 567 75 b 647 10 567 31 617 22 b 650 7 647 10 650 8 m 308 822 b 236 750 308 782 276 750 b 164 822 196 750 164 782 b 236 894 164 863 196 894 b 308 822 276 894 308 863 m 367 822 b 439 894 367 863 400 894 b 513 822 479 894 513 863 b 439 750 513 782 479 750 b 367 822 400 750 367 782 "},"å":{"ha":711,"x_min":0,"x_max":0,"o":"m 279 10 b 464 288 418 10 464 176 l 464 422 b 156 174 321 385 156 349 b 279 10 156 89 179 10 m 268 871 b 339 801 268 832 300 801 b 410 871 378 801 410 832 b 339 943 410 910 378 943 b 268 871 300 943 268 910 m 650 7 b 533 -14 650 -4 551 -14 b 464 135 443 -14 464 67 b 258 -14 429 40 360 -14 b 47 163 140 -14 47 33 b 464 444 47 342 331 407 b 325 671 464 549 464 671 b 178 536 235 671 178 628 b 196 444 178 506 183 472 l 74 576 b 325 694 149 650 217 694 b 567 519 435 694 567 650 l 567 75 b 647 10 567 31 617 22 b 650 7 647 10 650 8 m 461 872 b 339 750 461 804 407 750 b 217 872 271 750 217 804 b 339 994 217 940 271 994 b 461 872 407 994 461 940 "},"æ":{"ha":1157,"x_min":0,"x_max":0,"o":"m 293 10 b 478 288 432 10 478 176 l 478 422 b 169 174 335 385 169 349 b 293 10 169 89 193 10 m 789 671 b 590 371 619 671 590 508 l 969 371 b 789 671 969 496 951 671 m 61 163 b 478 444 61 342 344 407 b 339 671 478 549 478 671 b 192 536 249 671 192 628 b 210 444 192 506 197 472 l 88 576 b 339 694 163 650 231 694 b 563 592 422 694 521 672 b 785 694 618 658 699 694 b 1086 340 1003 694 1086 539 l 592 340 b 833 44 597 182 654 44 b 1092 178 929 44 1036 100 b 790 -14 1046 57 915 -14 b 497 207 646 -14 539 69 b 272 -14 476 83 408 -14 b 61 163 154 -14 61 33 "},"ç":{"ha":729,"x_min":0,"x_max":0,"o":"m 383 -14 b 54 340 165 -17 54 132 b 367 694 54 538 156 694 b 651 576 472 694 575 649 l 528 444 b 538 504 535 463 538 485 b 367 671 538 610 472 671 b 167 378 211 671 167 504 b 410 44 167 204 206 44 b 668 178 507 44 611 99 b 403 -12 624 67 519 -6 l 369 -90 b 447 -67 400 -74 425 -67 b 532 -153 504 -67 532 -115 b 399 -256 532 -207 474 -256 b 299 -226 367 -256 333 -247 l 304 -217 b 365 -229 328 -226 347 -229 b 394 -106 465 -229 478 -106 b 340 -119 379 -106 361 -110 "},"è":{"ha":747,"x_min":0,"x_max":0,"o":"m 365 671 b 174 474 243 671 190 586 l 544 474 b 365 671 544 581 479 671 m 367 -14 b 54 340 160 -14 54 149 b 361 694 54 524 163 694 b 661 443 522 694 661 618 l 169 443 b 167 374 168 419 167 397 b 410 44 167 207 214 44 b 668 178 504 44 613 100 b 367 -14 621 58 492 -14 m 360 943 b 507 760 360 868 424 760 l 507 754 b 261 943 407 754 261 828 "},"é":{"ha":747,"x_min":0,"x_max":0,"o":"m 365 671 b 174 474 243 671 190 586 l 544 474 b 365 671 544 581 479 671 m 367 -14 b 54 340 160 -14 54 149 b 361 694 54 524 163 694 b 661 443 522 694 661 618 l 169 443 b 167 374 168 419 167 397 b 410 44 167 207 214 44 b 668 178 504 44 613 100 b 367 -14 621 58 492 -14 m 507 943 b 261 754 507 828 364 754 l 261 760 b 408 943 344 760 408 868 "},"ê":{"ha":747,"x_min":0,"x_max":0,"o":"m 365 671 b 174 474 243 671 190 586 l 544 474 b 365 671 544 581 479 671 m 367 -14 b 54 340 160 -14 54 149 b 361 694 54 524 163 694 b 661 443 522 694 661 618 l 169 443 b 167 374 168 419 167 397 b 410 44 167 207 214 44 b 668 178 504 44 613 100 b 367 -14 621 58 492 -14 m 172 743 l 175 743 b 322 897 242 743 314 836 l 403 897 b 556 743 422 838 486 743 l 556 736 b 364 819 486 736 411 768 b 172 736 317 769 242 736 "},"ë":{"ha":747,"x_min":0,"x_max":0,"o":"m 365 671 b 174 474 243 671 190 586 l 544 474 b 365 671 544 581 479 671 m 367 -14 b 54 340 160 -14 54 149 b 361 694 54 524 163 694 b 661 443 522 694 661 618 l 169 443 b 167 374 168 419 167 397 b 410 44 167 207 214 44 b 668 178 504 44 613 100 b 367 -14 621 58 492 -14 m 344 822 b 272 750 344 782 313 750 b 200 822 232 750 200 782 b 272 894 200 863 232 894 b 344 822 313 894 344 863 m 403 822 b 475 894 403 863 436 894 b 549 822 515 894 549 863 b 475 750 549 782 515 750 b 403 822 436 750 403 782 "},"ì":{"ha":374,"x_min":0,"x_max":0,"o":"m 58 11 b 139 75 108 25 139 42 l 139 606 b 58 671 139 639 108 656 b 60 681 53 672 54 681 l 172 694 b 242 610 210 694 242 694 l 242 75 b 322 11 242 42 274 25 b 321 0 328 8 326 0 l 60 0 b 58 11 54 0 53 8 m 139 943 b 286 760 139 868 203 760 l 286 754 b 40 943 186 754 40 828 "},"í":{"ha":374,"x_min":0,"x_max":0,"o":"m 58 11 b 139 75 108 25 139 42 l 139 606 b 58 671 139 639 108 656 b 60 681 53 672 54 681 l 172 694 b 242 610 210 694 242 694 l 242 75 b 322 11 242 42 274 25 b 321 0 328 8 326 0 l 60 0 b 58 11 54 0 53 8 m 289 943 b 43 754 289 828 146 754 l 43 760 b 190 943 126 760 190 868 "},"î":{"ha":374,"x_min":0,"x_max":0,"o":"m 215 958 l 335 756 l 276 756 l 186 908 l 96 756 l 38 756 l 157 958 m 58 11 b 139 75 108 25 139 42 l 139 606 b 58 671 139 639 108 656 b 60 681 53 672 54 681 l 172 694 b 242 610 210 694 242 694 l 242 75 b 322 11 242 42 274 25 b 321 0 328 8 326 0 l 60 0 b 58 11 54 0 53 8 "},"ï":{"ha":374,"x_min":0,"x_max":0,"o":"m 157 865 b 85 793 157 825 125 793 b 13 865 44 793 13 825 b 85 938 13 906 44 938 b 157 865 125 938 157 906 m 215 865 b 288 938 215 906 249 938 b 361 865 328 938 361 906 b 288 793 361 825 328 793 b 215 865 249 793 215 825 m 58 11 b 139 75 108 25 139 42 l 139 606 b 58 671 139 639 108 656 b 60 681 53 672 54 681 l 172 694 b 242 610 210 694 242 694 l 242 75 b 322 11 242 42 274 25 b 321 0 328 8 326 0 l 60 0 b 58 11 54 0 53 8 "},"ð":{"ha":839,"x_min":0,"x_max":0,"o":"m 418 10 b 644 340 603 10 644 189 b 418 671 644 490 601 671 b 192 340 235 671 192 490 b 418 10 192 189 233 10 m 418 694 b 608 640 485 694 553 678 b 511 868 589 721 557 799 l 428 783 l 408 803 l 494 890 b 372 997 461 933 421 972 l 386 1021 b 533 929 440 999 489 967 l 610 1007 l 629 988 l 554 911 b 757 340 710 764 757 547 b 418 -14 757 139 625 -14 b 79 340 211 -14 79 139 b 418 694 79 542 211 694 "},"ñ":{"ha":822,"x_min":0,"x_max":0,"o":"m 340 825 b 238 767 293 825 265 804 b 363 879 261 813 303 879 b 538 803 429 879 475 803 b 597 838 563 803 583 818 b 507 750 576 807 550 750 b 340 825 460 750 396 825 m 44 671 b 46 681 39 672 40 681 l 158 694 b 228 610 196 694 228 694 l 228 539 b 515 694 332 642 425 694 b 681 553 631 694 681 640 l 681 75 b 761 11 681 42 713 25 b 760 0 767 8 765 0 l 500 0 b 497 11 493 0 492 8 b 579 75 547 25 579 42 l 579 506 b 474 639 579 593 556 639 b 228 507 381 639 292 571 l 228 75 b 308 11 228 42 260 25 b 307 0 314 8 313 0 l 46 0 b 44 11 40 0 39 8 b 125 75 94 25 125 42 l 125 606 b 44 671 125 639 94 656 "},"ò":{"ha":814,"x_min":0,"x_max":0,"o":"m 393 671 b 167 340 210 671 167 490 b 393 10 167 189 208 10 b 619 340 578 10 619 189 b 393 671 619 490 576 671 m 393 -14 b 54 340 186 -14 54 139 b 393 694 54 542 186 694 b 732 340 600 694 732 542 b 393 -14 732 139 600 -14 m 393 943 b 540 760 393 868 457 760 l 540 754 b 294 943 440 754 294 828 "},"ó":{"ha":814,"x_min":0,"x_max":0,"o":"m 393 671 b 167 340 210 671 167 490 b 393 10 167 189 208 10 b 619 340 578 10 619 189 b 393 671 619 490 576 671 m 393 -14 b 54 340 186 -14 54 139 b 393 694 54 542 186 694 b 732 340 600 694 732 542 b 393 -14 732 139 600 -14 m 492 943 b 246 754 492 828 349 754 l 246 760 b 393 943 329 760 393 868 "},"ô":{"ha":814,"x_min":0,"x_max":0,"o":"m 393 671 b 167 340 210 671 167 490 b 393 10 167 189 208 10 b 619 340 578 10 619 189 b 393 671 619 490 576 671 m 393 -14 b 54 340 186 -14 54 139 b 393 694 54 542 186 694 b 732 340 600 694 732 542 b 393 -14 732 139 600 -14 m 297 796 b 351 897 329 832 347 865 l 432 897 b 585 743 451 838 515 743 l 585 736 b 393 819 515 736 440 768 b 201 736 346 769 271 736 l 201 743 b 297 796 235 742 267 760 "},"õ":{"ha":814,"x_min":0,"x_max":0,"o":"m 393 671 b 167 340 210 671 167 490 b 393 10 167 189 208 10 b 619 340 578 10 619 189 b 393 671 619 490 576 671 m 393 -14 b 54 340 186 -14 54 139 b 393 694 54 542 186 694 b 732 340 600 694 732 542 b 393 -14 732 139 600 -14 m 331 825 b 228 767 283 825 256 804 b 353 879 251 813 293 879 b 528 803 419 879 465 803 b 588 838 553 803 574 818 b 497 750 567 807 540 750 b 331 825 450 750 386 825 "},"ö":{"ha":814,"x_min":0,"x_max":0,"o":"m 376 822 b 304 750 376 782 344 750 b 232 822 264 750 232 782 b 304 894 232 863 264 894 b 376 822 344 894 376 863 m 435 822 b 507 894 435 863 468 894 b 581 822 547 894 581 863 b 507 750 581 782 547 750 b 435 822 468 750 435 782 m 393 -14 b 54 340 186 -14 54 139 b 393 694 54 542 186 694 b 732 340 600 694 732 542 b 393 -14 732 139 600 -14 m 393 671 b 167 340 210 671 167 490 b 393 10 167 189 208 10 b 619 340 578 10 619 189 b 393 671 619 490 576 671 "},"ø":{"ha":814,"x_min":0,"x_max":0,"o":"m 393 671 b 167 340 210 671 167 490 b 229 89 167 253 181 156 l 500 643 b 393 671 471 661 436 671 m 271 46 b 393 10 303 24 343 10 b 619 340 578 10 619 189 b 546 606 619 433 603 539 m 565 776 l 629 776 l 568 650 b 732 340 671 592 732 476 b 393 -14 732 139 600 -14 b 256 13 342 -14 296 -4 l 204 -92 l 140 -92 l 204 39 b 54 340 110 100 54 210 b 393 694 54 542 186 694 b 515 675 438 694 478 688 "},"ù":{"ha":815,"x_min":0,"x_max":0,"o":"m 378 943 b 525 760 378 868 442 760 l 525 754 b 279 943 425 754 279 828 m 33 669 b 35 681 28 672 29 681 l 147 694 b 217 610 185 694 217 694 l 217 175 b 322 42 217 88 239 42 b 568 172 414 42 503 110 l 568 606 b 486 669 568 639 536 656 b 489 681 481 672 482 681 l 600 694 b 669 610 639 694 669 694 l 669 75 b 750 10 669 40 701 25 b 749 0 756 8 754 0 l 636 -14 b 568 71 599 -14 568 -14 l 568 142 b 281 -14 463 39 369 -14 b 114 128 164 -14 114 40 l 114 606 b 33 669 114 639 83 656 "},"ú":{"ha":815,"x_min":0,"x_max":0,"o":"m 33 669 b 35 681 28 672 29 681 l 147 694 b 217 610 185 694 217 694 l 217 175 b 322 42 217 88 239 42 b 568 172 414 42 503 110 l 568 606 b 486 669 568 639 536 656 b 489 681 481 672 482 681 l 600 694 b 669 610 639 694 669 694 l 669 75 b 750 10 669 40 701 25 b 749 0 756 8 754 0 l 636 -14 b 568 71 599 -14 568 -14 l 568 142 b 281 -14 463 39 369 -14 b 114 128 164 -14 114 40 l 114 606 b 33 669 114 639 83 656 m 515 938 b 269 749 515 822 372 749 l 269 754 b 417 938 353 754 417 863 "},"û":{"ha":815,"x_min":0,"x_max":0,"o":"m 438 953 l 557 750 l 499 750 l 408 903 l 318 750 l 260 750 l 379 953 m 33 669 b 35 681 28 672 29 681 l 147 694 b 217 610 185 694 217 694 l 217 175 b 322 42 217 88 239 42 b 568 172 414 42 503 110 l 568 606 b 486 669 568 639 536 656 b 489 681 481 672 482 681 l 600 694 b 669 610 639 694 669 694 l 669 75 b 750 10 669 40 701 25 b 749 0 756 8 754 0 l 636 -14 b 568 71 599 -14 568 -14 l 568 142 b 281 -14 463 39 369 -14 b 114 128 164 -14 114 40 l 114 606 b 33 669 114 639 83 656 "},"ü":{"ha":815,"x_min":0,"x_max":0,"o":"m 378 822 b 306 750 378 782 346 750 b 233 822 265 750 233 782 b 306 894 233 863 265 894 b 378 822 346 894 378 863 m 436 822 b 508 894 436 863 469 894 b 582 822 549 894 582 863 b 508 750 582 782 549 750 b 436 822 469 750 436 782 m 33 669 b 35 681 28 672 29 681 l 147 694 b 217 610 185 694 217 694 l 217 175 b 322 42 217 88 239 42 b 568 172 414 42 503 110 l 568 606 b 486 669 568 639 536 656 b 489 681 481 672 482 681 l 600 694 b 669 610 639 694 669 694 l 669 75 b 750 10 669 40 701 25 b 749 0 756 8 754 0 l 636 -14 b 568 71 599 -14 568 -14 l 568 142 b 281 -14 463 39 369 -14 b 114 128 164 -14 114 40 l 114 606 b 33 669 114 639 83 656 "},"ý":{"ha":774,"x_min":0,"x_max":0,"o":"m 26 -204 b 128 -237 53 -218 88 -237 b 315 -56 183 -237 249 -200 l 339 -4 l 100 597 b 17 669 86 631 65 656 b 18 681 11 672 13 681 l 272 681 b 274 669 278 681 279 671 b 208 604 221 661 194 638 l 399 124 l 622 606 b 557 669 638 638 610 661 b 558 681 551 671 553 681 l 728 681 b 729 669 733 681 735 672 b 646 600 685 657 665 642 l 301 -146 b 106 -353 268 -217 203 -353 m 546 943 b 300 754 546 828 403 754 l 300 760 b 447 943 383 760 447 868 "},"þ":{"ha":807,"x_min":0,"x_max":0,"o":"m 431 671 b 236 340 254 671 236 475 b 431 10 236 206 256 10 b 626 340 607 10 626 204 b 431 671 626 476 608 671 m 132 953 b 51 1018 132 997 82 1004 b 49 1021 51 1018 49 1019 b 165 1042 49 1032 147 1042 b 235 957 226 1042 235 1017 l 235 553 b 431 694 269 639 335 694 b 739 340 643 694 739 536 b 431 -14 739 144 643 -14 b 235 128 335 -14 269 42 l 235 -265 b 315 -329 235 -306 285 -321 b 319 -335 315 -329 319 -331 b 314 -340 319 -339 317 -340 l 53 -340 b 47 -335 49 -340 47 -337 b 132 -265 47 -321 132 -321 "},"ÿ":{"ha":774,"x_min":0,"x_max":0,"o":"m 361 822 b 289 750 361 782 329 750 b 217 822 249 750 217 782 b 289 894 217 863 249 894 b 361 822 329 894 361 863 m 419 822 b 492 894 419 863 453 894 b 565 822 532 894 565 863 b 492 750 565 782 532 750 b 419 822 453 750 419 782 m 26 -204 b 128 -237 53 -218 88 -237 b 315 -56 183 -237 249 -200 l 339 -4 l 100 597 b 17 669 86 631 65 656 b 18 681 11 672 13 681 l 272 681 b 274 669 278 681 279 671 b 208 604 221 661 194 638 l 399 124 l 622 606 b 557 669 638 638 610 661 b 558 681 551 671 553 681 l 728 681 b 729 669 733 681 735 672 b 646 600 685 657 665 642 l 301 -146 b 106 -353 268 -217 203 -353 "},"Ă":{"ha":947,"x_min":0,"x_max":0,"o":"m 592 396 l 433 821 l 275 396 m 474 1035 l 819 107 b 932 10 846 38 878 42 b 935 7 933 8 935 8 b 929 0 935 3 933 0 l 631 0 b 626 7 626 0 626 4 b 629 10 626 8 628 8 b 706 78 658 28 706 32 b 606 358 706 119 624 310 l 261 358 b 161 76 243 310 161 118 b 239 10 161 32 210 28 b 242 7 240 8 242 8 b 238 0 242 4 242 0 l 17 0 b 13 7 13 0 13 4 b 15 10 13 8 14 8 b 128 107 67 40 104 42 m 338 1243 b 469 1163 351 1179 413 1163 b 611 1243 540 1163 600 1185 l 621 1243 b 472 1094 614 1135 549 1094 b 326 1243 399 1094 333 1135 "},"ă":{"ha":683,"x_min":0,"x_max":0,"o":"m 279 10 b 464 288 418 10 464 176 l 464 422 b 156 174 321 385 156 349 b 279 10 156 89 179 10 m 650 7 b 533 -14 650 -4 551 -14 b 464 135 443 -14 464 67 b 258 -14 429 40 360 -14 b 47 163 140 -14 47 33 b 464 444 47 342 331 407 b 325 671 464 549 464 671 b 178 536 235 671 178 628 b 196 444 178 506 183 472 l 74 576 b 325 694 149 650 217 694 b 567 519 435 694 567 650 l 567 75 b 647 10 567 31 617 22 b 650 7 647 10 650 8 m 213 896 b 344 815 226 832 288 815 b 486 896 415 815 475 838 l 496 896 b 347 747 489 788 424 747 b 201 896 274 747 208 788 "},"Đ":{"ha":1011,"x_min":0,"x_max":0,"o":"m 851 511 b 458 983 851 743 714 983 l 261 983 l 261 542 l 351 542 l 351 489 l 261 489 l 261 38 l 458 38 b 851 511 714 38 851 281 m 471 1021 b 969 511 769 1021 969 804 b 471 0 969 217 771 0 l 44 0 b 40 7 40 0 40 4 b 43 10 40 8 42 8 b 149 104 78 26 149 56 l 149 489 l 83 489 l 83 542 l 149 542 l 149 917 b 43 1011 149 965 78 994 b 40 1014 42 1013 40 1013 b 44 1021 40 1017 40 1021 "},"đ":{"ha":813,"x_min":0,"x_max":0,"o":"m 363 10 b 558 340 539 10 558 204 b 363 671 558 475 539 671 b 167 340 186 671 167 476 b 363 10 167 204 185 10 m 744 7 b 628 -14 744 -4 646 -14 b 558 128 540 -14 558 61 b 363 -14 524 42 458 -14 b 54 340 150 -14 54 144 b 363 694 54 536 150 694 b 558 553 458 694 524 639 l 558 815 l 467 815 l 467 868 l 558 868 l 558 953 b 478 1017 558 993 510 1008 b 474 1022 478 1017 474 1018 b 479 1028 474 1025 476 1028 b 592 1042 514 1032 557 1042 b 661 957 653 1042 661 1017 l 661 868 l 731 868 l 731 815 l 661 815 l 661 75 b 742 10 661 31 711 24 b 744 7 742 10 744 8 "},"Ĩ":{"ha":414,"x_min":0,"x_max":0,"o":"m 44 10 b 150 104 101 31 150 69 l 150 917 b 44 1011 150 951 101 990 b 46 1021 39 1013 40 1021 l 368 1021 b 369 1011 374 1021 375 1013 b 263 917 313 990 263 951 l 263 104 b 369 10 263 69 313 31 b 368 0 375 8 374 0 l 46 0 b 44 10 40 0 39 8 m 131 1144 b 28 1086 83 1144 56 1124 b 153 1199 51 1132 93 1199 b 328 1122 219 1199 265 1122 b 388 1157 353 1122 374 1138 b 297 1069 367 1126 340 1069 b 131 1144 250 1069 186 1144 "},"ĩ":{"ha":346,"x_min":0,"x_max":0,"o":"m 99 825 b -4 767 51 825 24 804 b 121 879 19 813 61 879 b 296 803 188 879 233 803 b 356 838 321 803 342 818 b 265 750 335 807 308 750 b 99 825 218 750 154 825 m 44 11 b 125 75 94 25 125 42 l 125 606 b 44 671 125 639 94 656 b 46 681 39 672 40 681 l 158 694 b 228 610 196 694 228 694 l 228 75 b 308 11 228 42 260 25 b 307 0 314 8 313 0 l 46 0 b 44 11 40 0 39 8 "},"ı":{"ha":374,"x_min":0,"x_max":0,"o":"m 58 11 b 139 75 108 25 139 42 l 139 606 b 58 671 139 639 108 656 b 60 681 53 672 54 681 l 172 694 b 242 610 210 694 242 694 l 242 75 b 322 11 242 42 274 25 b 321 0 328 8 326 0 l 60 0 b 58 11 54 0 53 8 "},"Ł":{"ha":756,"x_min":0,"x_max":0,"o":"m 61 458 l 117 500 l 117 917 b 11 1011 117 951 68 990 b 13 1021 6 1013 7 1021 l 335 1021 b 336 1011 340 1021 342 1013 b 229 917 279 990 229 951 l 229 585 l 376 694 l 376 621 l 229 511 l 229 38 l 422 38 b 657 250 557 38 631 147 b 667 247 658 256 667 253 l 660 0 l 13 0 b 11 10 7 0 6 8 b 117 104 68 31 117 69 l 117 426 l 61 385 "},"ł":{"ha":381,"x_min":0,"x_max":0,"o":"m 67 472 l 125 508 l 125 953 b 44 1018 125 986 94 1003 b 46 1028 39 1019 40 1028 l 158 1042 b 228 957 196 1042 228 1042 l 228 572 l 313 625 l 313 553 l 228 500 l 228 75 b 308 11 228 42 260 25 b 307 0 314 8 313 0 l 46 0 b 44 11 40 0 39 8 b 125 75 94 25 125 42 l 125 436 l 67 400 "},"Œ":{"ha":1490,"x_min":0,"x_max":0,"o":"m 585 997 b 203 510 315 997 203 746 b 585 24 203 274 315 24 b 853 157 697 24 789 63 l 853 864 b 585 997 789 958 697 997 m 585 -14 b 82 510 268 -14 82 200 b 585 1035 82 819 268 1035 b 853 1021 675 1035 763 1021 l 1383 1021 l 1390 814 b 1385 808 1390 810 1388 808 b 1361 860 1378 808 1378 822 b 1182 983 1326 935 1268 983 l 964 983 l 964 574 l 1124 574 b 1218 679 1174 574 1200 644 b 1224 682 1218 679 1219 682 b 1228 676 1226 682 1228 681 l 1228 432 b 1222 426 1228 428 1225 426 b 1218 429 1219 426 1218 429 b 1124 536 1200 465 1174 536 l 964 536 l 964 38 l 1157 38 b 1371 190 1258 38 1332 100 b 1392 249 1381 210 1383 229 b 1396 251 1392 249 1393 251 b 1401 246 1399 251 1401 250 l 1394 0 l 851 0 b 585 -14 763 0 674 -14 "},"œ":{"ha":1315,"x_min":0,"x_max":0,"o":"m 407 10 b 633 340 592 10 633 189 b 407 671 633 490 590 671 b 181 340 224 671 181 490 b 407 10 181 189 222 10 m 947 671 b 749 371 778 671 749 508 l 1128 371 b 947 671 1128 496 1110 671 m 949 -14 b 688 131 839 -14 744 35 b 407 -14 625 33 521 -14 b 68 340 200 -14 68 139 b 407 694 68 542 200 694 b 689 547 522 694 626 646 b 943 694 744 640 835 694 b 1244 340 1161 694 1244 539 l 750 340 b 992 44 756 182 814 44 b 1250 178 1088 44 1194 100 b 949 -14 1204 57 1074 -14 "},"Š":{"ha":763,"x_min":0,"x_max":0,"o":"m 519 1269 l 400 1067 l 342 1067 l 222 1269 l 281 1269 l 371 1115 l 461 1269 m 188 335 b 176 276 179 317 176 296 b 369 24 176 133 225 24 b 565 221 460 24 565 68 b 110 794 565 461 110 481 b 357 1035 110 958 244 1035 b 647 936 449 1035 565 1019 l 515 761 b 524 807 522 775 524 790 b 374 997 524 939 456 997 b 214 833 300 997 214 957 b 674 268 214 607 674 549 b 374 -14 674 61 536 -14 b 40 140 260 -14 114 57 "},"š":{"ha":657,"x_min":0,"x_max":0,"o":"m 472 953 l 353 750 l 294 750 l 175 953 l 233 953 l 324 799 l 414 953 m 203 564 b 568 160 203 374 568 385 b 322 -14 568 31 429 -14 b 54 104 228 -14 122 39 l 178 236 b 165 178 168 218 165 197 b 322 10 165 85 225 10 b 465 136 399 10 465 54 b 107 519 465 307 107 297 b 318 694 107 638 211 694 b 551 576 419 694 483 643 l 429 444 b 444 531 440 471 444 503 b 318 671 444 613 406 671 b 203 564 253 671 203 632 "},"Ũ":{"ha":993,"x_min":0,"x_max":0,"o":"m 510 -14 b 142 340 297 -14 142 124 l 142 917 b 36 1011 142 964 71 994 b 33 1015 36 1011 33 1013 b 39 1021 33 1018 35 1021 l 358 1021 b 364 1015 363 1021 364 1018 b 361 1011 364 1013 361 1011 b 254 917 328 994 254 964 l 254 303 b 533 24 254 135 367 24 b 813 303 706 24 813 129 l 813 917 b 707 1011 813 964 742 994 b 704 1015 707 1011 704 1013 b 710 1021 704 1018 706 1021 l 954 1021 b 960 1015 958 1021 960 1018 b 957 1011 960 1013 957 1011 b 850 917 924 994 850 964 l 850 322 b 510 -14 850 108 722 -14 m 419 1144 b 317 1086 372 1144 344 1124 b 442 1199 340 1132 382 1199 b 617 1122 508 1199 554 1122 b 676 1157 642 1122 663 1138 b 586 1069 656 1126 629 1069 b 419 1144 539 1069 475 1144 "},"ũ":{"ha":788,"x_min":0,"x_max":0,"o":"m 315 825 b 213 767 268 825 240 804 b 338 879 236 813 278 879 b 513 803 404 879 450 803 b 572 838 538 803 558 818 b 482 750 551 807 525 750 b 315 825 435 750 371 825 m 33 669 b 35 681 28 672 29 681 l 147 694 b 217 610 185 694 217 694 l 217 175 b 322 42 217 88 239 42 b 568 172 414 42 503 110 l 568 606 b 486 669 568 639 536 656 b 489 681 481 672 482 681 l 600 694 b 669 610 639 694 669 694 l 669 75 b 750 10 669 40 701 25 b 749 0 756 8 754 0 l 636 -14 b 568 71 599 -14 568 -14 l 568 142 b 281 -14 463 39 369 -14 b 114 128 164 -14 114 40 l 114 606 b 33 669 114 639 83 656 "},"Ÿ":{"ha":942,"x_min":0,"x_max":0,"o":"m 453 1139 b 381 1067 453 1099 421 1067 b 308 1139 340 1067 308 1099 b 381 1211 308 1179 340 1211 b 453 1139 421 1211 453 1179 m 511 1139 b 583 1211 511 1179 544 1211 b 657 1139 624 1211 657 1179 b 583 1067 657 1099 624 1067 b 511 1139 544 1067 511 1099 m 515 510 l 515 104 b 622 10 515 53 589 29 b 625 6 622 10 625 8 b 619 0 625 3 624 0 l 300 0 b 294 6 296 0 294 3 b 297 10 294 8 297 10 b 404 104 331 29 404 53 l 404 500 l 136 913 b 15 1011 97 972 72 978 b 13 1015 15 1011 13 1013 b 18 1021 13 1018 14 1021 l 339 1021 b 344 1015 343 1021 344 1018 b 342 1011 344 1013 342 1011 b 261 946 315 996 261 989 b 276 910 261 931 269 921 l 494 571 l 711 903 b 724 940 718 914 724 928 b 646 1011 724 985 675 993 b 643 1015 646 1011 643 1013 b 649 1021 643 1018 644 1021 l 896 1021 b 901 1015 900 1021 901 1018 b 899 1011 901 1013 899 1011 b 779 911 836 975 813 961 "},"Ž":{"ha":850,"x_min":0,"x_max":0,"o":"m 564 1269 l 444 1067 l 386 1067 l 267 1269 l 325 1269 l 415 1115 l 506 1269 m 57 0 l 586 983 l 311 983 b 117 813 178 983 136 869 b 106 814 114 807 106 808 l 113 1021 l 739 1021 l 210 38 l 506 38 b 738 250 639 38 711 147 b 747 247 739 256 747 253 l 740 0 "},"ž":{"ha":696,"x_min":0,"x_max":0,"o":"m 496 953 l 376 750 l 318 750 l 199 953 l 257 953 l 347 799 l 438 953 m 54 0 l 467 657 l 278 657 b 101 546 158 657 118 618 b 92 547 100 540 92 542 l 92 681 l 607 681 l 194 24 l 428 24 b 603 135 547 24 588 63 b 614 133 604 140 614 139 l 614 0 "},"Ơ":{"ha":1142,"x_min":0,"x_max":0,"o":"m 571 997 b 189 510 301 997 189 746 b 571 24 189 274 301 24 b 953 510 840 24 953 274 b 571 997 953 746 840 997 m 882 940 b 1074 510 1006 849 1074 697 b 571 -14 1074 200 888 -14 b 68 510 254 -14 68 200 b 571 1035 68 819 254 1035 b 853 961 682 1035 776 1008 b 922 1118 892 963 922 1031 l 1001 1118 b 882 940 1001 1018 964 946 "},"ơ":{"ha":786,"x_min":0,"x_max":0,"o":"m 393 671 b 167 340 210 671 167 490 b 393 10 167 189 208 10 b 619 340 578 10 619 189 b 393 671 619 490 576 671 m 393 -14 b 54 340 186 -14 54 139 b 393 694 54 542 186 694 b 575 646 463 694 525 676 b 625 679 594 647 611 658 b 644 779 638 701 644 735 l 724 779 b 606 625 724 697 699 628 b 732 340 686 561 732 460 b 393 -14 732 139 600 -14 "},"Ư":{"ha":993,"x_min":0,"x_max":0,"o":"m 850 322 b 510 -14 850 108 722 -14 b 142 340 297 -14 142 124 l 142 917 b 36 1011 142 964 71 994 b 33 1015 36 1011 33 1013 b 39 1021 33 1018 35 1021 l 358 1021 b 364 1015 363 1021 364 1018 b 361 1011 364 1013 361 1011 b 254 917 328 994 254 964 l 254 303 b 533 24 254 135 367 24 b 813 303 706 24 813 129 l 813 917 b 707 1011 813 964 742 994 b 704 1015 707 1011 704 1013 b 710 1021 704 1018 706 1021 l 843 1021 b 914 1154 883 1021 914 1065 l 993 1154 b 850 1000 993 1049 957 1000 "},"ư":{"ha":788,"x_min":0,"x_max":0,"o":"m 33 669 b 35 681 28 672 29 681 l 147 694 b 217 610 185 694 217 694 l 217 175 b 322 42 217 88 239 42 b 568 172 414 42 503 110 l 568 606 b 486 669 568 639 536 656 b 489 681 481 672 482 681 l 600 694 b 665 654 631 694 656 694 b 714 782 708 669 714 746 l 793 782 b 669 628 793 678 753 629 b 669 610 669 622 669 617 l 669 75 b 750 10 669 40 701 25 b 749 0 756 8 754 0 l 636 -14 b 568 71 599 -14 568 -14 l 568 142 b 281 -14 463 39 369 -14 b 114 128 164 -14 114 40 l 114 606 b 33 669 114 639 83 656 "},"ˆ":{"ha":419,"x_min":0,"x_max":0,"o":"m 239 1042 l 358 839 l 300 839 l 210 992 l 119 839 l 61 839 l 181 1042 "},"ˇ":{"ha":419,"x_min":0,"x_max":0,"o":"m 358 1021 l 239 818 l 181 818 l 61 1021 l 119 1021 l 210 867 l 300 1021 "},"˘":{"ha":367,"x_min":0,"x_max":0,"o":"m 306 1021 b 183 899 306 953 251 899 b 61 1021 115 899 61 953 l 113 1021 b 183 950 113 982 144 950 b 256 1021 224 950 256 982 "},"˙":{"ha":267,"x_min":0,"x_max":0,"o":"m 61 969 b 133 1042 61 1010 93 1042 b 206 969 174 1042 206 1010 b 133 897 206 929 174 897 b 61 969 93 897 61 929 "},"˚":{"ha":367,"x_min":0,"x_max":0,"o":"m 306 919 b 183 797 306 851 251 797 b 61 919 115 797 61 851 b 183 1042 61 988 115 1042 b 306 919 251 1042 306 988 m 113 918 b 183 849 113 879 144 849 b 254 918 222 849 254 879 b 183 990 254 957 222 990 b 113 918 144 990 113 957 "},"˛":{"ha":336,"x_min":0,"x_max":0,"o":"m 107 -72 b 197 -171 107 -139 149 -171 b 283 -136 226 -171 258 -160 l 289 -140 b 168 -236 289 -140 264 -236 b 146 32 47 -236 17 -36 l 158 28 b 107 -72 135 8 107 -18 "},"˜":{"ha":510,"x_min":0,"x_max":0,"o":"m 178 967 b 75 908 131 967 103 946 b 200 1021 99 954 140 1021 b 375 944 267 1021 313 944 b 435 979 400 944 421 960 b 344 892 414 949 388 892 b 178 967 297 892 233 967 "},"˝":{"ha":569,"x_min":0,"x_max":0,"o":"m 328 1042 l 125 878 l 61 878 l 203 1042 m 508 1042 l 306 878 l 242 878 l 383 1042 "},"Ạ":{"ha":947,"x_min":0,"x_max":0,"o":"m 592 396 l 433 821 l 275 396 m 474 1035 l 819 107 b 932 10 846 38 878 42 b 935 7 933 8 935 8 b 929 0 935 3 933 0 l 631 0 b 626 7 626 0 626 4 b 629 10 626 8 628 8 b 706 78 658 28 706 32 b 606 358 706 119 624 310 l 261 358 b 161 76 243 310 161 118 b 239 10 161 32 210 28 b 242 7 240 8 242 8 b 238 0 242 4 242 0 l 17 0 b 13 7 13 0 13 4 b 15 10 13 8 14 8 b 128 107 67 40 104 42 m 411 -144 b 474 -82 411 -110 439 -82 b 535 -144 508 -82 535 -110 b 474 -206 535 -179 508 -206 b 411 -144 439 -206 411 -179 "},"ạ":{"ha":683,"x_min":0,"x_max":0,"o":"m 279 10 b 464 288 418 10 464 176 l 464 422 b 156 174 321 385 156 349 b 279 10 156 89 179 10 m 650 7 b 533 -14 650 -4 551 -14 b 464 135 443 -14 464 67 b 258 -14 429 40 360 -14 b 47 163 140 -14 47 33 b 464 444 47 342 331 407 b 325 671 464 549 464 671 b 178 536 235 671 178 628 b 196 444 178 506 183 472 l 74 576 b 325 694 149 650 217 694 b 567 519 435 694 567 650 l 567 75 b 647 10 567 31 617 22 b 650 7 647 10 650 8 m 286 -144 b 349 -82 286 -110 314 -82 b 410 -144 383 -82 410 -110 b 349 -206 410 -179 383 -206 b 286 -144 314 -206 286 -179 "},"Ả":{"ha":947,"x_min":0,"x_max":0,"o":"m 592 396 l 433 821 l 275 396 m 474 1035 l 819 107 b 932 10 846 38 878 42 b 935 7 933 8 935 8 b 929 0 935 3 933 0 l 631 0 b 626 7 626 0 626 4 b 629 10 626 8 628 8 b 706 78 658 28 706 32 b 606 358 706 119 624 310 l 261 358 b 161 76 243 310 161 118 b 239 10 161 32 210 28 b 242 7 240 8 242 8 b 238 0 242 4 242 0 l 17 0 b 13 7 13 0 13 4 b 15 10 13 8 14 8 b 128 107 67 40 104 42 m 407 1271 b 436 1274 417 1272 426 1274 b 544 1208 483 1274 529 1250 b 443 1078 563 1165 549 1096 l 443 1081 b 401 1211 511 1097 525 1211 "},"ả":{"ha":683,"x_min":0,"x_max":0,"o":"m 279 10 b 464 288 418 10 464 176 l 464 422 b 156 174 321 385 156 349 b 279 10 156 89 179 10 m 650 7 b 533 -14 650 -4 551 -14 b 464 135 443 -14 464 67 b 258 -14 429 40 360 -14 b 47 163 140 -14 47 33 b 464 444 47 342 331 407 b 325 671 464 549 464 671 b 178 536 235 671 178 628 b 196 444 178 506 183 472 l 74 576 b 325 694 149 650 217 694 b 567 519 435 694 567 650 l 567 75 b 647 10 567 31 617 22 b 650 7 647 10 650 8 m 286 951 b 315 954 296 953 306 954 b 424 889 363 954 408 931 b 431 856 428 879 431 868 b 322 758 431 856 435 778 l 322 761 b 374 826 357 769 374 804 b 281 892 374 875 322 892 "},"Ấ":{"ha":947,"x_min":0,"x_max":0,"o":"m 433 821 l 275 396 l 592 396 m 474 1035 l 819 107 b 932 10 846 38 878 42 b 935 7 933 8 935 8 b 929 0 935 3 933 0 l 631 0 b 626 7 626 0 626 4 b 629 10 626 8 628 8 b 706 78 658 28 706 32 b 606 358 706 119 624 310 l 261 358 b 161 76 243 310 161 118 b 239 10 161 32 210 28 b 242 7 240 8 242 8 b 238 0 242 4 242 0 l 17 0 b 13 7 13 0 13 4 b 15 10 13 8 14 8 b 128 107 67 40 104 42 m 378 1138 b 432 1239 410 1174 428 1207 l 513 1239 b 665 1085 532 1179 596 1085 l 665 1063 b 474 1161 596 1063 521 1110 b 282 1063 426 1111 351 1063 l 282 1085 b 378 1138 315 1083 347 1101 m 815 1385 b 592 1213 815 1281 685 1213 l 592 1218 b 725 1385 668 1218 725 1317 "},"ấ":{"ha":683,"x_min":0,"x_max":0,"o":"m 279 10 b 464 288 418 10 464 176 l 464 422 b 156 174 321 385 156 349 b 279 10 156 89 179 10 m 650 7 b 533 -14 650 -4 551 -14 b 464 135 443 -14 464 67 b 258 -14 429 40 360 -14 b 47 163 140 -14 47 33 b 464 444 47 342 331 407 b 325 671 464 549 464 671 b 178 536 235 671 178 628 b 196 444 178 506 183 472 l 74 576 b 325 694 149 650 217 694 b 567 519 435 694 567 650 l 567 75 b 647 10 567 31 617 22 b 650 7 647 10 650 8 m 236 796 b 290 897 268 832 286 865 l 371 897 b 524 743 390 838 454 743 l 524 736 b 332 819 454 736 379 768 b 140 736 285 769 210 736 l 140 743 b 236 796 174 742 206 760 m 674 1043 b 450 871 674 939 543 871 l 450 876 b 583 1043 526 876 583 975 "},"Ầ":{"ha":947,"x_min":0,"x_max":0,"o":"m 433 821 l 275 396 l 592 396 m 474 1035 l 819 107 b 932 10 846 38 878 42 b 935 7 933 8 935 8 b 929 0 935 3 933 0 l 631 0 b 626 7 626 0 626 4 b 629 10 626 8 628 8 b 706 78 658 28 706 32 b 606 358 706 119 624 310 l 261 358 b 161 76 243 310 161 118 b 239 10 161 32 210 28 b 242 7 240 8 242 8 b 238 0 242 4 242 0 l 17 0 b 13 7 13 0 13 4 b 15 10 13 8 14 8 b 128 107 67 40 104 42 m 378 1143 b 432 1244 410 1179 428 1213 l 513 1244 b 665 1090 532 1185 596 1090 l 665 1083 b 474 1167 596 1083 521 1115 b 282 1083 426 1117 351 1083 l 282 1090 b 378 1143 315 1089 347 1107 m 578 1396 b 711 1229 578 1326 633 1229 l 711 1224 b 489 1396 619 1224 489 1290 "},"ầ":{"ha":683,"x_min":0,"x_max":0,"o":"m 279 10 b 464 288 418 10 464 176 l 464 422 b 156 174 321 385 156 349 b 279 10 156 89 179 10 m 650 7 b 533 -14 650 -4 551 -14 b 464 135 443 -14 464 67 b 258 -14 429 40 360 -14 b 47 163 140 -14 47 33 b 464 444 47 342 331 407 b 325 671 464 549 464 671 b 178 536 235 671 178 628 b 196 444 178 506 183 472 l 74 576 b 325 694 149 650 217 694 b 567 519 435 694 567 650 l 567 75 b 647 10 567 31 617 22 b 650 7 647 10 650 8 m 236 796 b 290 897 268 832 286 865 l 371 897 b 524 743 390 838 454 743 l 524 736 b 332 819 454 736 379 768 b 140 736 285 769 210 736 l 140 743 b 236 796 174 742 206 760 m 436 1049 b 569 882 436 979 492 882 l 569 876 b 347 1049 478 876 347 943 "},"Ẩ":{"ha":947,"x_min":0,"x_max":0,"o":"m 433 821 l 275 396 l 592 396 m 474 1083 l 819 107 b 932 10 844 38 878 42 b 935 7 933 8 935 8 b 929 0 935 3 933 0 l 631 0 b 626 7 626 0 626 4 b 629 10 626 8 628 8 b 706 78 658 28 706 32 b 606 358 706 119 624 310 l 261 358 b 161 76 243 310 161 118 b 239 10 161 32 210 28 b 242 7 240 8 242 8 b 238 0 242 4 242 0 l 17 0 b 13 7 13 0 13 4 b 15 10 13 8 14 8 b 128 107 67 40 104 42 m 378 1171 b 432 1272 410 1207 428 1240 l 513 1272 b 665 1118 532 1213 596 1118 l 665 1111 b 474 1194 596 1111 521 1143 b 282 1111 426 1144 351 1111 l 282 1118 b 378 1171 315 1117 347 1135 m 553 1421 b 582 1424 563 1422 572 1424 b 690 1358 629 1424 675 1400 b 589 1228 708 1315 694 1246 l 589 1231 b 547 1361 657 1247 671 1361 "},"ẩ":{"ha":683,"x_min":0,"x_max":0,"o":"m 279 10 b 464 288 418 10 464 176 l 464 422 b 156 174 321 385 156 349 b 279 10 156 89 179 10 m 650 7 b 533 -14 650 -4 551 -14 b 464 135 443 -14 464 67 b 258 -14 429 40 360 -14 b 47 163 140 -14 47 33 b 464 444 47 342 331 407 b 325 671 464 549 464 671 b 178 536 235 671 178 628 b 196 444 178 506 183 472 l 74 576 b 325 694 149 650 217 694 b 567 519 435 694 567 650 l 567 75 b 647 10 567 31 617 22 b 650 7 647 10 650 8 m 236 796 b 290 897 268 832 286 865 l 371 897 b 524 743 390 838 454 743 l 524 736 b 332 819 454 736 379 768 b 140 736 285 769 210 736 l 140 743 b 236 796 174 742 206 760 m 411 1046 b 440 1049 421 1047 431 1049 b 549 983 488 1049 533 1025 b 447 853 567 940 553 871 l 447 856 b 406 986 515 872 529 986 "},"Ẫ":{"ha":947,"x_min":0,"x_max":0,"o":"m 433 821 l 275 396 l 592 396 m 474 1035 l 819 107 b 932 10 846 38 878 42 b 935 7 933 8 935 8 b 929 0 935 3 933 0 l 631 0 b 626 7 626 0 626 4 b 629 10 626 8 628 8 b 706 78 658 28 706 32 b 606 358 706 119 624 310 l 261 358 b 161 76 243 310 161 118 b 239 10 161 32 210 28 b 242 7 240 8 242 8 b 238 0 242 4 242 0 l 17 0 b 13 7 13 0 13 4 b 15 10 13 8 14 8 b 128 107 67 40 104 42 m 378 1143 b 432 1244 410 1179 428 1213 l 513 1244 b 665 1090 532 1185 596 1090 l 665 1083 b 474 1167 596 1083 521 1115 b 282 1083 426 1117 351 1083 l 282 1090 b 378 1143 315 1089 347 1107 m 413 1365 b 310 1307 365 1365 338 1344 b 435 1419 333 1353 375 1419 b 610 1343 501 1419 547 1343 b 669 1378 635 1343 656 1358 b 579 1290 649 1347 622 1290 b 413 1365 532 1290 468 1365 "},"ẫ":{"ha":683,"x_min":0,"x_max":0,"o":"m 279 10 b 464 288 418 10 464 176 l 464 422 b 156 174 321 385 156 349 b 279 10 156 89 179 10 m 650 7 b 533 -14 650 -4 551 -14 b 464 135 443 -14 464 67 b 258 -14 429 40 360 -14 b 47 163 140 -14 47 33 b 464 444 47 342 331 407 b 325 671 464 549 464 671 b 178 536 235 671 178 628 b 196 444 178 506 183 472 l 74 576 b 325 694 149 650 217 694 b 567 519 435 694 567 650 l 567 75 b 647 10 567 31 617 22 b 650 7 647 10 650 8 m 236 796 b 290 897 268 832 286 865 l 371 897 b 524 743 390 838 454 743 l 524 736 b 332 819 454 736 379 768 b 140 736 285 769 210 736 l 140 743 b 236 796 174 742 206 760 m 271 1018 b 168 960 224 1018 196 997 b 293 1072 192 1006 233 1072 b 468 996 360 1072 406 996 b 528 1031 493 996 514 1011 b 438 943 507 1000 481 943 b 271 1018 390 943 326 1018 "},"Ậ":{"ha":947,"x_min":0,"x_max":0,"o":"m 433 821 l 275 396 l 592 396 m 474 1035 l 819 107 b 932 10 846 38 878 42 b 935 7 933 8 935 8 b 929 0 935 3 933 0 l 631 0 b 626 7 626 0 626 4 b 629 10 626 8 628 8 b 706 78 658 28 706 32 b 606 358 706 119 624 310 l 261 358 b 161 76 243 310 161 118 b 239 10 161 32 210 28 b 242 7 240 8 242 8 b 238 0 242 4 242 0 l 17 0 b 13 7 13 0 13 4 b 15 10 13 8 14 8 b 128 107 67 40 104 42 m 378 1143 b 432 1244 410 1179 428 1213 l 513 1244 b 665 1090 532 1185 596 1090 l 665 1083 b 474 1167 596 1083 521 1115 b 282 1083 426 1117 351 1083 l 282 1090 b 378 1143 315 1089 347 1107 m 411 -144 b 474 -82 411 -110 439 -82 b 535 -144 508 -82 535 -110 b 474 -206 535 -179 508 -206 b 411 -144 439 -206 411 -179 "},"ậ":{"ha":683,"x_min":0,"x_max":0,"o":"m 279 10 b 464 288 418 10 464 176 l 464 422 b 156 174 321 385 156 349 b 279 10 156 89 179 10 m 650 7 b 533 -14 650 -4 551 -14 b 464 135 443 -14 464 67 b 258 -14 429 40 360 -14 b 47 163 140 -14 47 33 b 464 444 47 342 331 407 b 325 671 464 549 464 671 b 178 536 235 671 178 628 b 196 444 178 506 183 472 l 74 576 b 325 694 149 650 217 694 b 567 519 435 694 567 650 l 567 75 b 647 10 567 31 617 22 b 650 7 647 10 650 8 m 236 796 b 290 897 268 832 286 865 l 371 897 b 524 743 390 838 454 743 l 524 736 b 332 819 454 736 379 768 b 140 736 285 769 210 736 l 140 743 b 236 796 174 742 206 760 m 286 -144 b 349 -82 286 -110 314 -82 b 410 -144 383 -82 410 -110 b 349 -206 410 -179 383 -206 b 286 -144 314 -206 286 -179 "},"Ắ":{"ha":947,"x_min":0,"x_max":0,"o":"m 592 396 l 433 821 l 275 396 m 474 1035 l 819 107 b 932 10 846 38 878 42 b 935 7 933 8 935 8 b 929 0 935 3 933 0 l 631 0 b 626 7 626 0 626 4 b 629 10 626 8 628 8 b 706 78 658 28 706 32 b 606 358 706 119 624 310 l 261 358 b 161 76 243 310 161 118 b 239 10 161 32 210 28 b 242 7 240 8 242 8 b 238 0 242 4 242 0 l 17 0 b 13 7 13 0 13 4 b 15 10 13 8 14 8 b 128 107 67 40 104 42 m 338 1243 b 469 1163 351 1179 413 1163 b 611 1243 540 1163 600 1185 l 621 1243 b 472 1094 614 1135 549 1094 b 326 1243 399 1094 333 1135 m 644 1443 b 399 1254 644 1328 501 1254 l 399 1260 b 546 1443 482 1260 546 1368 "},"ắ":{"ha":683,"x_min":0,"x_max":0,"o":"m 279 10 b 464 288 418 10 464 176 l 464 422 b 156 174 321 385 156 349 b 279 10 156 89 179 10 m 650 7 b 533 -14 650 -4 551 -14 b 464 135 443 -14 464 67 b 258 -14 429 40 360 -14 b 47 163 140 -14 47 33 b 464 444 47 342 331 407 b 325 671 464 549 464 671 b 178 536 235 671 178 628 b 196 444 178 506 183 472 l 74 576 b 325 694 149 650 217 694 b 567 519 435 694 567 650 l 567 75 b 647 10 567 31 617 22 b 650 7 647 10 650 8 m 213 896 b 344 815 226 832 288 815 b 486 896 415 815 475 838 l 496 896 b 347 747 489 788 424 747 b 201 896 274 747 208 788 m 519 1096 b 274 907 519 981 376 907 l 274 913 b 421 1096 357 913 421 1021 "},"Ằ":{"ha":947,"x_min":0,"x_max":0,"o":"m 592 396 l 433 821 l 275 396 m 474 1035 l 819 107 b 932 10 846 38 878 42 b 935 7 933 8 935 8 b 929 0 935 3 933 0 l 631 0 b 626 7 626 0 626 4 b 629 10 626 8 628 8 b 706 78 658 28 706 32 b 606 358 706 119 624 310 l 261 358 b 161 76 243 310 161 118 b 239 10 161 32 210 28 b 242 7 240 8 242 8 b 238 0 242 4 242 0 l 17 0 b 13 7 13 0 13 4 b 15 10 13 8 14 8 b 128 107 67 40 104 42 m 394 1450 b 542 1267 394 1375 458 1267 l 542 1261 b 296 1450 442 1261 296 1335 m 338 1243 b 469 1163 351 1179 413 1163 b 611 1243 540 1163 600 1185 l 621 1243 b 472 1094 614 1135 549 1094 b 326 1243 399 1094 333 1135 "},"ằ":{"ha":683,"x_min":0,"x_max":0,"o":"m 279 10 b 464 288 418 10 464 176 l 464 422 b 156 174 321 385 156 349 b 279 10 156 89 179 10 m 650 7 b 533 -14 650 -4 551 -14 b 464 135 443 -14 464 67 b 258 -14 429 40 360 -14 b 47 163 140 -14 47 33 b 464 444 47 342 331 407 b 325 671 464 549 464 671 b 178 536 235 671 178 628 b 196 444 178 506 183 472 l 74 576 b 325 694 149 650 217 694 b 567 519 435 694 567 650 l 567 75 b 647 10 567 31 617 22 b 650 7 647 10 650 8 m 269 1103 b 417 919 269 1028 333 919 l 417 914 b 171 1103 317 914 171 988 m 213 896 b 344 815 226 832 288 815 b 486 896 415 815 475 838 l 496 896 b 347 747 489 788 424 747 b 201 896 274 747 208 788 "},"Ẳ":{"ha":947,"x_min":0,"x_max":0,"o":"m 592 396 l 433 821 l 275 396 m 474 1035 l 819 107 b 932 10 846 38 878 42 b 935 7 933 8 935 8 b 929 0 935 3 933 0 l 631 0 b 626 7 626 0 626 4 b 629 10 626 8 628 8 b 706 78 658 28 706 32 b 606 358 706 119 624 310 l 261 358 b 161 76 243 310 161 118 b 239 10 161 32 210 28 b 242 7 240 8 242 8 b 238 0 242 4 242 0 l 17 0 b 13 7 13 0 13 4 b 15 10 13 8 14 8 b 128 107 67 40 104 42 m 338 1243 b 469 1163 351 1179 413 1163 b 611 1243 540 1163 600 1185 l 621 1243 b 472 1094 614 1135 549 1094 b 326 1243 399 1094 333 1135 m 419 1428 b 449 1431 429 1429 439 1431 b 557 1365 496 1431 542 1407 b 456 1235 575 1322 561 1253 l 456 1238 b 414 1368 524 1254 538 1368 "},"ẳ":{"ha":683,"x_min":0,"x_max":0,"o":"m 279 10 b 464 288 418 10 464 176 l 464 422 b 156 174 321 385 156 349 b 279 10 156 89 179 10 m 650 7 b 533 -14 650 -4 551 -14 b 464 135 443 -14 464 67 b 258 -14 429 40 360 -14 b 47 163 140 -14 47 33 b 464 444 47 342 331 407 b 325 671 464 549 464 671 b 178 536 235 671 178 628 b 196 444 178 506 183 472 l 74 576 b 325 694 149 650 217 694 b 567 519 435 694 567 650 l 567 75 b 647 10 567 31 617 22 b 650 7 647 10 650 8 m 213 896 b 344 815 226 832 288 815 b 486 896 415 815 475 838 l 496 896 b 347 747 489 788 424 747 b 201 896 274 747 208 788 m 294 1081 b 324 1083 304 1082 314 1083 b 432 1018 371 1083 417 1060 b 331 888 450 975 436 906 l 331 890 b 289 1021 399 907 413 1021 "},"Ẵ":{"ha":947,"x_min":0,"x_max":0,"o":"m 592 396 l 433 821 l 275 396 m 474 1035 l 819 107 b 932 10 846 38 878 42 b 935 7 933 8 935 8 b 929 0 935 3 933 0 l 631 0 b 626 7 626 0 626 4 b 629 10 626 8 628 8 b 706 78 658 28 706 32 b 606 358 706 119 624 310 l 261 358 b 161 76 243 310 161 118 b 239 10 161 32 210 28 b 242 7 240 8 242 8 b 238 0 242 4 242 0 l 17 0 b 13 7 13 0 13 4 b 15 10 13 8 14 8 b 128 107 67 40 104 42 m 393 1349 b 290 1290 346 1349 318 1328 b 415 1403 314 1336 356 1403 b 590 1326 482 1403 528 1326 b 650 1361 615 1326 636 1342 b 560 1274 629 1331 603 1274 b 393 1349 513 1274 449 1349 m 338 1243 b 469 1163 351 1179 413 1163 b 611 1243 540 1163 600 1185 l 621 1243 b 472 1094 614 1135 549 1094 b 326 1243 399 1094 333 1135 "},"ẵ":{"ha":683,"x_min":0,"x_max":0,"o":"m 279 10 b 464 288 418 10 464 176 l 464 422 b 156 174 321 385 156 349 b 279 10 156 89 179 10 m 650 7 b 533 -14 650 -4 551 -14 b 464 135 443 -14 464 67 b 258 -14 429 40 360 -14 b 47 163 140 -14 47 33 b 464 444 47 342 331 407 b 325 671 464 549 464 671 b 178 536 235 671 178 628 b 196 444 178 506 183 472 l 74 576 b 325 694 149 650 217 694 b 567 519 435 694 567 650 l 567 75 b 647 10 567 31 617 22 b 650 7 647 10 650 8 m 268 1001 b 165 943 221 1001 193 981 b 290 1056 189 989 231 1056 b 465 979 357 1056 403 979 b 525 1014 490 979 511 994 b 435 926 504 983 478 926 b 268 1001 388 926 324 1001 m 213 896 b 344 815 226 832 288 815 b 486 896 415 815 475 838 l 496 896 b 347 747 489 788 424 747 b 201 896 274 747 208 788 "},"Ặ":{"ha":947,"x_min":0,"x_max":0,"o":"m 592 396 l 433 821 l 275 396 m 474 1035 l 819 107 b 932 10 846 38 878 42 b 935 7 933 8 935 8 b 929 0 935 3 933 0 l 631 0 b 626 7 626 0 626 4 b 629 10 626 8 628 8 b 706 78 658 28 706 32 b 606 358 706 119 624 310 l 261 358 b 161 76 243 310 161 118 b 239 10 161 32 210 28 b 242 7 240 8 242 8 b 238 0 242 4 242 0 l 17 0 b 13 7 13 0 13 4 b 15 10 13 8 14 8 b 128 107 67 40 104 42 m 338 1243 b 469 1163 351 1179 413 1163 b 611 1243 540 1163 600 1185 l 621 1243 b 472 1094 614 1135 549 1094 b 326 1243 399 1094 333 1135 m 411 -144 b 474 -82 411 -110 439 -82 b 535 -144 508 -82 535 -110 b 474 -206 535 -179 508 -206 b 411 -144 439 -206 411 -179 "},"ặ":{"ha":683,"x_min":0,"x_max":0,"o":"m 279 10 b 464 288 418 10 464 176 l 464 422 b 156 174 321 385 156 349 b 279 10 156 89 179 10 m 650 7 b 533 -14 650 -4 551 -14 b 464 135 443 -14 464 67 b 258 -14 429 40 360 -14 b 47 163 140 -14 47 33 b 464 444 47 342 331 407 b 325 671 464 549 464 671 b 178 536 235 671 178 628 b 196 444 178 506 183 472 l 74 576 b 325 694 149 650 217 694 b 567 519 435 694 567 650 l 567 75 b 647 10 567 31 617 22 b 650 7 647 10 650 8 m 213 896 b 344 815 226 832 288 815 b 486 896 415 815 475 838 l 496 896 b 347 747 489 788 424 747 b 201 896 274 747 208 788 m 286 -144 b 349 -82 286 -110 314 -82 b 410 -144 383 -82 410 -110 b 349 -206 410 -179 383 -206 b 286 -144 314 -206 286 -179 "},"Ẹ":{"ha":747,"x_min":0,"x_max":0,"o":"m 44 10 b 150 104 101 31 150 69 l 150 917 b 44 1011 150 951 101 990 b 46 1021 39 1013 40 1021 l 654 1021 l 660 814 b 650 813 660 808 653 807 b 451 983 631 869 586 983 l 263 983 l 263 574 l 394 574 b 489 679 429 574 469 622 b 499 678 492 685 499 683 l 499 432 b 489 429 499 425 492 424 b 394 536 469 488 429 536 l 263 536 l 263 38 l 428 38 b 663 250 563 38 636 147 b 672 247 664 256 672 253 l 665 0 l 46 0 b 44 10 40 0 39 8 m 317 -144 b 379 -82 317 -110 344 -82 b 440 -144 414 -82 440 -110 b 379 -206 440 -179 414 -206 b 317 -144 344 -206 317 -179 "},"ẹ":{"ha":719,"x_min":0,"x_max":0,"o":"m 365 671 b 174 474 243 671 190 586 l 544 474 b 365 671 544 581 479 671 m 367 -14 b 54 340 160 -14 54 149 b 361 694 54 524 163 694 b 661 443 522 694 661 618 l 169 443 b 167 374 168 419 167 397 b 410 44 167 207 214 44 b 668 178 504 44 613 100 b 367 -14 621 58 492 -14 m 301 -144 b 364 -82 301 -110 329 -82 b 425 -144 399 -82 425 -110 b 364 -206 425 -179 399 -206 b 301 -144 329 -206 301 -179 "},"Ẻ":{"ha":747,"x_min":0,"x_max":0,"o":"m 44 10 b 150 104 101 31 150 69 l 150 917 b 44 1011 150 951 101 990 b 46 1021 39 1013 40 1021 l 654 1021 l 660 814 b 650 813 660 808 653 807 b 451 983 631 869 586 983 l 263 983 l 263 574 l 394 574 b 489 679 429 574 469 622 b 499 678 492 685 499 683 l 499 432 b 489 429 499 425 492 424 b 394 536 469 488 429 536 l 263 536 l 263 38 l 428 38 b 663 250 563 38 636 147 b 672 247 664 256 672 253 l 665 0 l 46 0 b 44 10 40 0 39 8 m 326 1271 b 356 1274 336 1272 346 1274 b 464 1208 403 1274 449 1250 b 363 1078 482 1165 468 1096 l 363 1081 b 321 1211 431 1097 444 1211 "},"ẻ":{"ha":719,"x_min":0,"x_max":0,"o":"m 365 671 b 174 474 243 671 190 586 l 544 474 b 365 671 544 581 479 671 m 367 -14 b 54 340 160 -14 54 149 b 361 694 54 524 163 694 b 661 443 522 694 661 618 l 169 443 b 167 374 168 419 167 397 b 410 44 167 207 214 44 b 668 178 504 44 613 100 b 367 -14 621 58 492 -14 m 299 951 b 328 954 308 953 318 954 b 436 889 375 954 421 931 b 443 856 440 879 443 868 b 335 758 443 856 447 778 l 335 761 b 386 826 369 769 386 804 b 293 892 386 875 335 892 "},"Ẽ":{"ha":747,"x_min":0,"x_max":0,"o":"m 44 10 b 150 104 101 31 150 69 l 150 917 b 44 1011 150 951 101 990 b 46 1021 39 1013 40 1021 l 654 1021 l 660 814 b 650 813 660 808 653 807 b 451 983 631 869 586 983 l 263 983 l 263 574 l 394 574 b 489 679 429 574 469 622 b 499 678 492 685 499 683 l 499 432 b 489 429 499 425 492 424 b 394 536 469 488 429 536 l 263 536 l 263 38 l 428 38 b 663 250 563 38 636 147 b 672 247 664 256 672 253 l 665 0 l 46 0 b 44 10 40 0 39 8 m 279 1144 b 176 1086 232 1144 204 1124 b 301 1199 200 1132 242 1199 b 476 1122 368 1199 414 1122 b 536 1157 501 1122 522 1138 b 446 1069 515 1126 489 1069 b 279 1144 399 1069 335 1144 "},"ẽ":{"ha":719,"x_min":0,"x_max":0,"o":"m 365 671 b 174 474 243 671 190 586 l 544 474 b 365 671 544 581 479 671 m 367 -14 b 54 340 160 -14 54 149 b 361 694 54 524 163 694 b 661 443 522 694 661 618 l 169 443 b 167 374 168 419 167 397 b 410 44 167 207 214 44 b 668 178 504 44 613 100 b 367 -14 621 58 492 -14 m 283 825 b 181 767 236 825 208 804 b 306 879 204 813 246 879 b 481 803 372 879 418 803 b 540 838 506 803 526 818 b 450 750 519 807 493 750 b 283 825 403 750 339 825 "},"Ế":{"ha":747,"x_min":0,"x_max":0,"o":"m 44 10 b 150 104 101 31 150 69 l 150 917 b 44 1011 150 951 101 990 b 46 1021 39 1013 40 1021 l 654 1021 l 660 814 b 650 813 660 808 653 807 b 451 983 631 869 586 983 l 263 983 l 263 574 l 394 574 b 489 679 429 574 469 622 b 499 678 492 685 499 683 l 499 432 b 489 429 499 425 492 424 b 394 536 469 488 429 536 l 263 536 l 263 38 l 428 38 b 663 250 563 38 636 147 b 672 247 664 256 672 253 l 665 0 l 46 0 b 44 10 40 0 39 8 m 283 1143 b 338 1244 315 1179 333 1213 l 418 1244 b 571 1090 438 1185 501 1090 l 571 1083 b 379 1167 501 1083 426 1115 b 188 1083 332 1117 257 1083 l 188 1090 b 283 1143 221 1089 253 1107 m 721 1390 b 497 1218 721 1286 590 1218 l 497 1224 b 631 1390 574 1224 631 1322 "},"ế":{"ha":719,"x_min":0,"x_max":0,"o":"m 365 671 b 174 474 243 671 190 586 l 544 474 b 365 671 544 581 479 671 m 367 -14 b 54 340 160 -14 54 149 b 361 694 54 524 163 694 b 661 443 522 694 661 618 l 169 443 b 167 374 168 419 167 397 b 410 44 167 207 214 44 b 668 178 504 44 613 100 b 367 -14 621 58 492 -14 m 172 743 l 175 743 b 322 897 242 743 314 836 l 403 897 b 556 743 422 838 486 743 l 556 736 b 364 819 486 736 411 768 b 172 736 317 769 242 736 m 706 1043 b 482 871 706 940 575 871 l 482 876 b 615 1043 557 876 615 975 "},"Ề":{"ha":747,"x_min":0,"x_max":0,"o":"m 44 10 b 150 104 101 31 150 69 l 150 917 b 44 1011 150 951 101 990 b 46 1021 39 1013 40 1021 l 654 1021 l 660 814 b 650 813 660 808 653 807 b 451 983 631 869 586 983 l 263 983 l 263 574 l 394 574 b 489 679 429 574 469 622 b 499 678 492 685 499 683 l 499 432 b 489 429 499 425 492 424 b 394 536 469 488 429 536 l 263 536 l 263 38 l 428 38 b 663 250 563 38 636 147 b 672 247 664 256 672 253 l 665 0 l 46 0 b 44 10 40 0 39 8 m 283 1143 b 338 1244 315 1179 333 1213 l 418 1244 b 571 1090 438 1185 501 1090 l 571 1083 b 379 1167 501 1083 426 1115 b 188 1083 332 1117 257 1083 l 188 1090 b 283 1143 221 1089 253 1107 m 483 1396 b 617 1229 483 1326 539 1229 l 617 1224 b 394 1396 525 1224 394 1290 "},"ề":{"ha":719,"x_min":0,"x_max":0,"o":"m 365 671 b 174 474 243 671 190 586 l 544 474 b 365 671 544 581 479 671 m 367 -14 b 54 340 160 -14 54 149 b 361 694 54 524 163 694 b 661 443 522 694 661 618 l 169 443 b 167 374 168 419 167 397 b 410 44 167 207 214 44 b 668 178 504 44 613 100 b 367 -14 621 58 492 -14 m 268 796 b 322 897 300 832 318 865 l 403 897 b 556 743 422 838 486 743 l 556 736 b 364 819 486 736 411 768 b 172 736 317 769 242 736 l 172 743 b 268 796 206 742 238 760 m 468 1049 b 601 882 468 979 524 882 l 601 876 b 379 1049 510 876 379 943 "},"Ể":{"ha":747,"x_min":0,"x_max":0,"o":"m 44 10 b 150 104 101 31 150 69 l 150 917 b 44 1011 150 951 101 990 b 46 1021 39 1013 40 1021 l 654 1021 l 660 814 b 650 813 660 808 653 807 b 451 983 631 869 586 983 l 263 983 l 263 574 l 394 574 b 489 679 429 574 469 622 b 499 678 492 685 499 683 l 499 432 b 489 429 499 425 492 424 b 394 536 469 488 429 536 l 263 536 l 263 38 l 428 38 b 663 250 563 38 636 147 b 672 247 664 256 672 253 l 665 0 l 46 0 b 44 10 40 0 39 8 m 283 1143 b 338 1244 315 1179 333 1213 l 418 1244 b 571 1090 438 1185 501 1090 l 571 1083 b 379 1167 501 1083 426 1115 b 188 1083 332 1117 257 1083 l 188 1090 b 283 1143 221 1089 253 1107 m 458 1393 b 488 1396 468 1394 478 1396 b 596 1331 535 1396 581 1372 b 494 1200 614 1288 600 1218 l 494 1203 b 453 1333 563 1219 576 1333 "},"ể":{"ha":719,"x_min":0,"x_max":0,"o":"m 365 671 b 174 474 243 671 190 586 l 544 474 b 365 671 544 581 479 671 m 367 -14 b 54 340 160 -14 54 149 b 361 694 54 524 163 694 b 661 443 522 694 661 618 l 169 443 b 167 374 168 419 167 397 b 410 44 167 207 214 44 b 668 178 504 44 613 100 b 367 -14 621 58 492 -14 m 268 796 b 322 897 300 832 318 865 l 403 897 b 556 743 422 838 486 743 l 556 736 b 364 819 486 736 411 768 b 172 736 317 769 242 736 l 172 743 b 268 796 206 742 238 760 m 443 1046 b 472 1049 453 1047 463 1049 b 581 983 519 1049 565 1025 b 479 853 599 940 585 871 l 479 856 b 438 986 547 872 561 986 "},"Ễ":{"ha":747,"x_min":0,"x_max":0,"o":"m 44 10 b 150 104 101 31 150 69 l 150 917 b 44 1011 150 951 101 990 b 46 1021 39 1013 40 1021 l 654 1021 l 660 814 b 650 813 660 808 653 807 b 451 983 631 869 586 983 l 263 983 l 263 574 l 394 574 b 489 679 429 574 469 622 b 499 678 492 685 499 683 l 499 432 b 489 429 499 425 492 424 b 394 536 469 488 429 536 l 263 536 l 263 38 l 428 38 b 663 250 563 38 636 147 b 672 247 664 256 672 253 l 665 0 l 46 0 b 44 10 40 0 39 8 m 283 1143 b 338 1244 315 1179 333 1213 l 418 1244 b 571 1090 438 1185 501 1090 l 571 1083 b 379 1167 501 1083 426 1115 b 188 1083 332 1117 257 1083 l 188 1090 b 283 1143 221 1089 253 1107 m 318 1365 b 215 1307 271 1365 243 1344 b 340 1419 239 1353 281 1419 b 515 1343 407 1419 453 1343 b 575 1378 540 1343 561 1358 b 485 1290 554 1347 528 1290 b 318 1365 438 1290 374 1365 "},"ễ":{"ha":719,"x_min":0,"x_max":0,"o":"m 365 671 b 174 474 243 671 190 586 l 544 474 b 365 671 544 581 479 671 m 367 -14 b 54 340 160 -14 54 149 b 361 694 54 524 163 694 b 661 443 522 694 661 618 l 169 443 b 167 374 168 419 167 397 b 410 44 167 207 214 44 b 668 178 504 44 613 100 b 367 -14 621 58 492 -14 m 268 796 b 322 897 300 832 318 865 l 403 897 b 556 743 422 838 486 743 l 556 736 b 364 819 486 736 411 768 b 172 736 317 769 242 736 l 172 743 b 268 796 206 742 238 760 m 303 1018 b 200 960 256 1018 228 997 b 325 1072 224 1006 265 1072 b 500 996 392 1072 438 996 b 560 1031 525 996 546 1011 b 469 943 539 1000 513 943 b 303 1018 422 943 358 1018 "},"Ệ":{"ha":747,"x_min":0,"x_max":0,"o":"m 44 10 b 150 104 101 31 150 69 l 150 917 b 44 1011 150 951 101 990 b 46 1021 39 1013 40 1021 l 654 1021 l 660 814 b 650 813 660 808 653 807 b 451 983 631 869 586 983 l 263 983 l 263 574 l 394 574 b 489 679 429 574 469 622 b 499 678 492 685 499 683 l 499 432 b 489 429 499 425 492 424 b 394 536 469 488 429 536 l 263 536 l 263 38 l 428 38 b 663 250 563 38 636 147 b 672 247 664 256 672 253 l 665 0 l 46 0 b 44 10 40 0 39 8 m 317 -144 b 379 -82 317 -110 344 -82 b 440 -144 414 -82 440 -110 b 379 -206 440 -179 414 -206 b 317 -144 344 -206 317 -179 m 283 1143 b 338 1244 315 1179 333 1213 l 418 1244 b 571 1090 438 1185 501 1090 l 571 1083 b 379 1167 501 1083 426 1115 b 188 1083 332 1117 257 1083 l 188 1090 b 283 1143 221 1089 253 1107 "},"ệ":{"ha":719,"x_min":0,"x_max":0,"o":"m 365 671 b 174 474 243 671 190 586 l 544 474 b 365 671 544 581 479 671 m 367 -14 b 54 340 160 -14 54 149 b 361 694 54 524 163 694 b 661 443 522 694 661 618 l 169 443 b 167 374 168 419 167 397 b 410 44 167 207 214 44 b 668 178 504 44 613 100 b 367 -14 621 58 492 -14 m 172 743 l 175 743 b 322 897 242 743 314 836 l 403 897 b 556 743 422 838 486 743 l 556 736 b 364 819 486 736 411 768 b 172 736 317 769 242 736 m 301 -144 b 364 -82 301 -110 329 -82 b 425 -144 399 -82 425 -110 b 364 -206 425 -179 399 -206 b 301 -144 329 -206 301 -179 "},"Ỉ":{"ha":414,"x_min":0,"x_max":0,"o":"m 44 10 b 150 104 101 31 150 69 l 150 917 b 44 1011 150 951 101 990 b 46 1021 39 1013 40 1021 l 368 1021 b 369 1011 374 1021 375 1013 b 263 917 313 990 263 951 l 263 104 b 369 10 263 69 313 31 b 368 0 375 8 374 0 l 46 0 b 44 10 40 0 39 8 m 140 1271 b 169 1274 150 1272 160 1274 b 278 1208 217 1274 263 1250 b 176 1078 296 1165 282 1096 l 176 1081 b 135 1211 244 1097 258 1211 "},"ỉ":{"ha":346,"x_min":0,"x_max":0,"o":"m 107 951 b 136 954 117 953 126 954 b 244 889 183 954 229 931 b 251 856 249 879 251 868 b 143 758 251 856 256 778 l 143 761 b 194 826 178 769 194 804 b 101 892 194 875 143 892 m 44 11 b 125 75 94 25 125 42 l 125 606 b 44 671 125 639 94 656 b 46 681 39 672 40 681 l 158 694 b 228 610 196 694 228 694 l 228 75 b 308 11 228 42 260 25 b 307 0 314 8 313 0 l 46 0 b 44 11 40 0 39 8 "},"Ị":{"ha":414,"x_min":0,"x_max":0,"o":"m 44 10 b 150 104 101 31 150 69 l 150 917 b 44 1011 150 951 101 990 b 46 1021 39 1013 40 1021 l 368 1021 b 369 1011 374 1021 375 1013 b 263 917 313 990 263 951 l 263 104 b 369 10 263 69 313 31 b 368 0 375 8 374 0 l 46 0 b 44 10 40 0 39 8 m 144 -144 b 207 -82 144 -110 172 -82 b 268 -144 242 -82 268 -110 b 207 -206 268 -179 242 -206 b 144 -144 172 -206 144 -179 "},"ị":{"ha":346,"x_min":0,"x_max":0,"o":"m 176 853 b 97 932 133 853 97 888 b 176 1011 97 975 133 1011 b 256 932 221 1011 256 975 b 176 853 256 888 221 853 m 44 11 b 125 75 94 25 125 42 l 125 606 b 44 671 125 639 94 656 b 46 681 39 672 40 681 l 158 694 b 228 610 196 694 228 694 l 228 75 b 308 11 228 42 260 25 b 307 0 314 8 313 0 l 46 0 b 44 11 40 0 39 8 m 114 -144 b 176 -82 114 -110 142 -82 b 238 -144 211 -82 238 -110 b 176 -206 238 -179 211 -206 b 114 -144 142 -206 114 -179 "},"Ọ":{"ha":1142,"x_min":0,"x_max":0,"o":"m 571 -14 b 68 510 254 -14 68 200 b 571 1035 68 819 254 1035 b 1074 510 888 1035 1074 819 b 571 -14 1074 200 888 -14 m 571 997 b 189 510 301 997 189 746 b 571 24 189 274 301 24 b 953 510 840 24 953 274 b 571 997 953 746 840 997 m 510 -144 b 572 -82 510 -110 538 -82 b 633 -144 607 -82 633 -110 b 572 -206 633 -179 607 -206 b 510 -144 538 -206 510 -179 "},"ọ":{"ha":786,"x_min":0,"x_max":0,"o":"m 393 -14 b 54 340 186 -14 54 139 b 393 694 54 542 186 694 b 732 340 600 694 732 542 b 393 -14 732 139 600 -14 m 393 671 b 167 340 210 671 167 490 b 393 10 167 189 208 10 b 619 340 578 10 619 189 b 393 671 619 490 576 671 m 331 -144 b 393 -82 331 -110 358 -82 b 454 -144 428 -82 454 -110 b 393 -206 454 -179 428 -206 b 331 -144 358 -206 331 -179 "},"Ỏ":{"ha":1142,"x_min":0,"x_max":0,"o":"m 571 997 b 189 510 301 997 189 746 b 571 24 189 274 301 24 b 953 510 840 24 953 274 b 571 997 953 746 840 997 m 571 -14 b 68 510 254 -14 68 200 b 571 1035 68 819 254 1035 b 1074 510 888 1035 1074 819 b 571 -14 1074 200 888 -14 m 510 1271 b 539 1274 519 1272 529 1274 b 647 1208 586 1274 632 1250 b 546 1078 665 1165 651 1096 l 546 1081 b 504 1211 614 1097 628 1211 "},"ỏ":{"ha":786,"x_min":0,"x_max":0,"o":"m 393 671 b 167 340 210 671 167 490 b 393 10 167 189 208 10 b 619 340 578 10 619 189 b 393 671 619 490 576 671 m 393 -14 b 54 340 186 -14 54 139 b 393 694 54 542 186 694 b 732 340 600 694 732 542 b 393 -14 732 139 600 -14 m 338 951 b 367 954 347 953 357 954 b 475 889 414 954 460 931 b 374 758 493 846 479 776 l 374 761 b 332 892 442 778 456 892 "},"Ố":{"ha":1142,"x_min":0,"x_max":0,"o":"m 571 997 b 189 510 301 997 189 746 b 571 24 189 274 301 24 b 953 510 840 24 953 274 b 571 997 953 746 840 997 m 571 -14 b 68 510 254 -14 68 200 b 571 1035 68 819 254 1035 b 1074 510 888 1035 1074 819 b 571 -14 1074 200 888 -14 m 475 1143 b 529 1244 507 1179 525 1213 l 610 1244 b 763 1090 629 1185 693 1090 l 763 1083 b 571 1167 693 1083 618 1115 b 379 1083 524 1117 449 1083 l 379 1090 b 475 1143 413 1089 444 1107 m 913 1390 b 689 1218 913 1286 782 1218 l 689 1224 b 822 1390 765 1224 822 1322 "},"ố":{"ha":786,"x_min":0,"x_max":0,"o":"m 393 671 b 167 340 210 671 167 490 b 393 10 167 189 208 10 b 619 340 578 10 619 189 b 393 671 619 490 576 671 m 393 -14 b 54 340 186 -14 54 139 b 393 694 54 542 186 694 b 732 340 600 694 732 542 b 393 -14 732 139 600 -14 m 297 796 b 351 897 329 832 347 865 l 432 897 b 585 743 451 838 515 743 l 585 736 b 393 819 515 736 440 768 b 201 736 346 769 271 736 l 201 743 b 297 796 235 742 267 760 m 735 1043 b 511 871 735 939 604 871 l 511 876 b 644 1043 588 876 644 975 "},"Ồ":{"ha":1142,"x_min":0,"x_max":0,"o":"m 571 997 b 189 510 301 997 189 746 b 571 24 189 274 301 24 b 953 510 840 24 953 274 b 571 997 953 746 840 997 m 571 -14 b 68 510 254 -14 68 200 b 571 1035 68 819 254 1035 b 1074 510 888 1035 1074 819 b 571 -14 1074 200 888 -14 m 475 1143 b 529 1244 507 1179 525 1213 l 610 1244 b 763 1090 629 1185 693 1090 l 763 1083 b 571 1167 693 1083 618 1115 b 379 1083 524 1117 449 1083 l 379 1090 b 475 1143 413 1089 444 1107 m 675 1396 b 808 1229 675 1326 731 1229 l 808 1224 b 586 1396 717 1224 586 1290 "},"ồ":{"ha":786,"x_min":0,"x_max":0,"o":"m 393 671 b 167 340 210 671 167 490 b 393 10 167 189 208 10 b 619 340 578 10 619 189 b 393 671 619 490 576 671 m 393 -14 b 54 340 186 -14 54 139 b 393 694 54 542 186 694 b 732 340 600 694 732 542 b 393 -14 732 139 600 -14 m 297 796 b 351 897 329 832 347 865 l 432 897 b 585 743 451 838 515 743 l 585 736 b 393 819 515 736 440 768 b 201 736 346 769 271 736 l 201 743 b 297 796 235 742 267 760 m 497 1049 b 631 882 497 979 553 882 l 631 876 b 408 1049 539 876 408 943 "},"Ổ":{"ha":1142,"x_min":0,"x_max":0,"o":"m 571 997 b 189 510 301 997 189 746 b 571 24 189 274 301 24 b 953 510 840 24 953 274 b 571 997 953 746 840 997 m 571 -14 b 68 510 254 -14 68 200 b 571 1035 68 819 254 1035 b 1074 510 888 1035 1074 819 b 571 -14 1074 200 888 -14 m 475 1143 b 529 1244 507 1179 525 1213 l 610 1244 b 763 1090 629 1185 693 1090 l 763 1083 b 571 1167 693 1083 618 1115 b 379 1083 524 1117 449 1083 l 379 1090 b 475 1143 413 1089 444 1107 m 650 1393 b 679 1396 660 1394 669 1396 b 788 1331 726 1396 772 1372 b 686 1200 806 1288 792 1218 l 686 1203 b 644 1333 754 1219 768 1333 "},"ổ":{"ha":786,"x_min":0,"x_max":0,"o":"m 393 671 b 167 340 210 671 167 490 b 393 10 167 189 208 10 b 619 340 578 10 619 189 b 393 671 619 490 576 671 m 393 -14 b 54 340 186 -14 54 139 b 393 694 54 542 186 694 b 732 340 600 694 732 542 b 393 -14 732 139 600 -14 m 297 796 b 351 897 329 832 347 865 l 432 897 b 585 743 451 838 515 743 l 585 736 b 393 819 515 736 440 768 b 201 736 346 769 271 736 l 201 743 b 297 796 235 742 267 760 m 472 1046 b 501 1049 482 1047 492 1049 b 610 983 549 1049 594 1025 b 508 853 628 940 614 871 l 508 856 b 467 986 576 872 590 986 "},"Ỗ":{"ha":1142,"x_min":0,"x_max":0,"o":"m 571 997 b 189 510 301 997 189 746 b 571 24 189 274 301 24 b 953 510 840 24 953 274 b 571 997 953 746 840 997 m 571 -14 b 68 510 254 -14 68 200 b 571 1035 68 819 254 1035 b 1074 510 888 1035 1074 819 b 571 -14 1074 200 888 -14 m 475 1143 b 529 1244 507 1179 525 1213 l 610 1244 b 763 1090 629 1185 693 1090 l 763 1083 b 571 1167 693 1083 618 1115 b 379 1083 524 1117 449 1083 l 379 1090 b 475 1143 413 1089 444 1107 m 510 1365 b 407 1307 463 1365 435 1344 b 532 1419 431 1353 472 1419 b 707 1343 599 1419 644 1343 b 767 1378 732 1343 753 1358 b 676 1290 746 1347 719 1290 b 510 1365 629 1290 565 1365 "},"ỗ":{"ha":786,"x_min":0,"x_max":0,"o":"m 393 671 b 167 340 210 671 167 490 b 393 10 167 189 208 10 b 619 340 578 10 619 189 b 393 671 619 490 576 671 m 393 -14 b 54 340 186 -14 54 139 b 393 694 54 542 186 694 b 732 340 600 694 732 542 b 393 -14 732 139 600 -14 m 297 796 b 351 897 329 832 347 865 l 432 897 b 585 743 451 838 515 743 l 585 736 b 393 819 515 736 440 768 b 201 736 346 769 271 736 l 201 743 b 297 796 235 742 267 760 m 332 1018 b 229 960 285 1018 257 997 b 354 1072 253 1006 294 1072 b 529 996 421 1072 467 996 b 589 1031 554 996 575 1011 b 499 943 568 1000 542 943 b 332 1018 451 943 388 1018 "},"Ộ":{"ha":1142,"x_min":0,"x_max":0,"o":"m 571 997 b 189 510 301 997 189 746 b 571 24 189 274 301 24 b 953 510 840 24 953 274 b 571 997 953 746 840 997 m 571 -14 b 68 510 254 -14 68 200 b 571 1035 68 819 254 1035 b 1074 510 888 1035 1074 819 b 571 -14 1074 200 888 -14 m 475 1143 b 529 1244 507 1179 525 1213 l 610 1244 b 763 1090 629 1185 693 1090 l 763 1083 b 571 1167 693 1083 618 1115 b 379 1083 524 1117 449 1083 l 379 1090 b 475 1143 413 1089 444 1107 m 510 -144 b 572 -82 510 -110 538 -82 b 633 -144 607 -82 633 -110 b 572 -206 633 -179 607 -206 b 510 -144 538 -206 510 -179 "},"ộ":{"ha":786,"x_min":0,"x_max":0,"o":"m 393 671 b 167 340 210 671 167 490 b 393 10 167 189 208 10 b 619 340 578 10 619 189 b 393 671 619 490 576 671 m 393 -14 b 54 340 186 -14 54 139 b 393 694 54 542 186 694 b 732 340 600 694 732 542 b 393 -14 732 139 600 -14 m 297 796 b 351 897 329 832 347 865 l 432 897 b 585 743 451 838 515 743 l 585 736 b 393 819 515 736 440 768 b 201 736 346 769 271 736 l 201 743 b 297 796 235 742 267 760 m 331 -144 b 393 -82 331 -110 358 -82 b 454 -144 428 -82 454 -110 b 393 -206 454 -179 428 -206 b 331 -144 358 -206 331 -179 "},"Ớ":{"ha":1142,"x_min":0,"x_max":0,"o":"m 571 997 b 189 510 301 997 189 746 b 571 24 189 274 301 24 b 953 510 840 24 953 274 b 571 997 953 746 840 997 m 882 940 b 1074 510 1006 849 1074 697 b 571 -14 1074 200 888 -14 b 68 510 254 -14 68 200 b 571 1035 68 819 254 1035 b 853 961 682 1035 776 1008 b 922 1118 892 963 922 1031 l 1001 1118 b 882 940 1001 1018 964 946 m 669 1257 b 424 1068 669 1142 526 1068 l 424 1074 b 571 1257 507 1074 571 1182 "},"ớ":{"ha":786,"x_min":0,"x_max":0,"o":"m 393 671 b 167 340 210 671 167 490 b 393 10 167 189 208 10 b 619 340 578 10 619 189 b 393 671 619 490 576 671 m 393 -14 b 54 340 186 -14 54 139 b 393 694 54 542 186 694 b 572 647 463 694 522 678 b 640 781 632 651 640 736 l 719 781 b 603 626 719 697 694 633 b 732 340 685 564 732 461 b 393 -14 732 139 600 -14 m 492 938 b 246 749 492 822 349 749 l 246 754 b 393 938 329 754 393 863 "},"Ờ":{"ha":1142,"x_min":0,"x_max":0,"o":"m 571 997 b 189 510 301 997 189 746 b 571 24 189 274 301 24 b 953 510 840 24 953 274 b 571 997 953 746 840 997 m 882 940 b 1074 510 1006 849 1074 697 b 571 -14 1074 200 888 -14 b 68 510 254 -14 68 200 b 571 1035 68 819 254 1035 b 853 961 682 1035 776 1008 b 922 1118 892 963 922 1031 l 1001 1118 b 882 940 1001 1018 964 946 m 571 1263 b 718 1079 571 1188 635 1079 l 718 1074 b 472 1263 618 1074 472 1147 "},"ờ":{"ha":786,"x_min":0,"x_max":0,"o":"m 393 671 b 167 340 210 671 167 490 b 393 10 167 189 208 10 b 619 340 578 10 619 189 b 393 671 619 490 576 671 m 393 -14 b 54 340 186 -14 54 139 b 393 694 54 542 186 694 b 572 647 463 694 522 678 b 640 781 632 651 640 736 l 719 781 b 603 626 719 697 694 633 b 732 340 685 564 732 461 b 393 -14 732 139 600 -14 m 393 943 b 540 760 393 868 457 760 l 540 754 b 294 943 440 754 294 828 "},"Ở":{"ha":1142,"x_min":0,"x_max":0,"o":"m 571 997 b 189 510 301 997 189 746 b 571 24 189 274 301 24 b 953 510 840 24 953 274 b 571 997 953 746 840 997 m 882 940 b 1074 510 1006 849 1074 697 b 571 -14 1074 200 888 -14 b 68 510 254 -14 68 200 b 571 1035 68 819 254 1035 b 853 961 682 1035 776 1008 b 922 1118 892 963 922 1031 l 1001 1118 b 882 940 1001 1018 964 946 m 510 1271 b 539 1274 519 1272 529 1274 b 647 1208 586 1274 632 1250 b 546 1078 665 1165 651 1096 l 546 1081 b 504 1211 614 1097 628 1211 "},"ở":{"ha":786,"x_min":0,"x_max":0,"o":"m 393 671 b 167 340 210 671 167 490 b 393 10 167 189 208 10 b 619 340 578 10 619 189 b 393 671 619 490 576 671 m 603 626 b 732 340 685 564 732 461 b 393 -14 732 139 600 -14 b 54 340 186 -14 54 139 b 393 694 54 542 186 694 b 574 647 463 694 522 678 b 640 781 611 650 640 694 l 719 781 b 603 626 719 682 683 632 m 338 951 b 367 954 347 953 357 954 b 475 889 414 954 460 931 b 374 758 493 846 479 776 l 374 761 b 332 892 442 778 456 892 "},"Ỡ":{"ha":1142,"x_min":0,"x_max":0,"o":"m 571 997 b 189 510 301 997 189 746 b 571 24 189 274 301 24 b 953 510 840 24 953 274 b 571 997 953 746 840 997 m 882 940 b 1074 510 1006 849 1074 697 b 571 -14 1074 200 888 -14 b 68 510 254 -14 68 200 b 571 1035 68 819 254 1035 b 853 961 682 1035 776 1008 b 922 1118 892 963 922 1031 l 1001 1118 b 882 940 1001 1018 964 946 m 510 1142 b 407 1083 463 1142 435 1121 b 532 1196 431 1129 472 1196 b 707 1119 599 1196 644 1119 b 767 1154 732 1119 753 1135 b 676 1067 746 1124 719 1067 b 510 1142 629 1067 565 1142 "},"ỡ":{"ha":786,"x_min":0,"x_max":0,"o":"m 393 671 b 167 340 210 671 167 490 b 393 10 167 189 208 10 b 619 340 578 10 619 189 b 393 671 619 490 576 671 m 393 -14 b 54 340 186 -14 54 139 b 393 694 54 542 186 694 b 572 647 463 694 522 678 b 640 781 632 651 640 736 l 719 781 b 603 626 719 697 694 633 b 732 340 685 564 732 461 b 393 -14 732 139 600 -14 m 317 825 b 214 767 269 825 242 804 b 339 879 238 813 279 879 b 514 803 406 879 451 803 b 574 838 539 803 560 818 b 483 750 553 807 526 750 b 317 825 436 750 372 825 "},"Ợ":{"ha":1142,"x_min":0,"x_max":0,"o":"m 571 997 b 189 510 301 997 189 746 b 571 24 189 274 301 24 b 953 510 840 24 953 274 b 571 997 953 746 840 997 m 882 940 b 1074 510 1006 849 1074 697 b 571 -14 1074 200 888 -14 b 68 510 254 -14 68 200 b 571 1035 68 819 254 1035 b 853 961 682 1035 776 1008 b 922 1118 892 963 922 1031 l 1001 1118 b 882 940 1001 1018 964 946 m 510 -144 b 572 -82 510 -110 538 -82 b 633 -144 607 -82 633 -110 b 572 -206 633 -179 607 -206 b 510 -144 538 -206 510 -179 "},"ợ":{"ha":786,"x_min":0,"x_max":0,"o":"m 393 671 b 167 340 210 671 167 490 b 393 10 167 189 208 10 b 619 340 578 10 619 189 b 393 671 619 490 576 671 m 603 626 b 732 340 685 564 732 461 b 393 -14 732 139 600 -14 b 54 340 186 -14 54 139 b 393 694 54 542 186 694 b 574 647 463 694 522 678 b 640 781 611 650 640 694 l 719 781 b 603 626 719 682 683 632 m 331 -144 b 393 -82 331 -110 358 -82 b 454 -144 428 -82 454 -110 b 393 -206 454 -179 428 -206 b 331 -144 358 -206 331 -179 "},"Ụ":{"ha":993,"x_min":0,"x_max":0,"o":"m 510 -14 b 142 340 297 -14 142 124 l 142 917 b 36 1011 142 964 71 994 b 33 1015 36 1011 33 1013 b 39 1021 33 1018 35 1021 l 358 1021 b 364 1015 363 1021 364 1018 b 361 1011 364 1013 361 1011 b 254 917 328 994 254 964 l 254 303 b 533 24 254 135 367 24 b 813 303 706 24 813 129 l 813 917 b 707 1011 813 964 742 994 b 704 1015 707 1011 704 1013 b 710 1021 704 1018 706 1021 l 954 1021 b 960 1015 958 1021 960 1018 b 957 1011 960 1013 957 1011 b 850 917 924 994 850 964 l 850 322 b 510 -14 850 108 722 -14 m 435 -144 b 497 -82 435 -110 463 -82 b 558 -144 532 -82 558 -110 b 497 -206 558 -179 532 -206 b 435 -144 463 -206 435 -179 "},"ụ":{"ha":788,"x_min":0,"x_max":0,"o":"m 33 669 b 35 681 28 672 29 681 l 147 694 b 217 610 185 694 217 694 l 217 175 b 322 42 217 88 239 42 b 568 172 414 42 503 110 l 568 606 b 486 669 568 639 536 656 b 489 681 481 672 482 681 l 600 694 b 669 610 639 694 669 694 l 669 75 b 750 10 669 40 701 25 b 749 0 756 8 754 0 l 636 -14 b 568 71 599 -14 568 -14 l 568 142 b 281 -14 463 39 369 -14 b 114 128 164 -14 114 40 l 114 606 b 33 669 114 639 83 656 m 331 -144 b 393 -82 331 -110 358 -82 b 454 -144 428 -82 454 -110 b 393 -206 454 -179 428 -206 b 331 -144 358 -206 331 -179 "},"Ủ":{"ha":993,"x_min":0,"x_max":0,"o":"m 510 -14 b 142 340 297 -14 142 124 l 142 917 b 36 1011 142 964 71 994 b 33 1015 36 1011 33 1013 b 39 1021 33 1018 35 1021 l 358 1021 b 364 1015 363 1021 364 1018 b 361 1011 364 1013 361 1011 b 254 917 328 994 254 964 l 254 303 b 533 24 254 135 367 24 b 813 303 706 24 813 129 l 813 917 b 707 1011 813 964 742 994 b 704 1015 707 1011 704 1013 b 710 1021 704 1018 706 1021 l 954 1021 b 960 1015 958 1021 960 1018 b 957 1011 960 1013 957 1011 b 850 917 924 994 850 964 l 850 322 b 510 -14 850 108 722 -14 m 433 1271 b 463 1274 443 1272 453 1274 b 571 1208 510 1274 556 1250 b 469 1078 589 1165 575 1096 l 469 1081 b 428 1211 538 1097 551 1211 "},"ủ":{"ha":788,"x_min":0,"x_max":0,"o":"m 329 951 b 358 954 339 953 349 954 b 467 889 406 954 451 931 b 474 856 471 879 474 868 b 365 758 474 856 478 778 l 365 761 b 417 826 400 769 417 804 b 324 892 417 875 365 892 m 33 669 b 35 681 28 672 29 681 l 147 694 b 217 610 185 694 217 694 l 217 175 b 322 42 217 88 239 42 b 568 172 414 42 503 110 l 568 606 b 486 669 568 639 536 656 b 489 681 481 672 482 681 l 600 694 b 669 610 639 694 669 694 l 669 75 b 750 10 669 40 701 25 b 749 0 756 8 754 0 l 636 -14 b 568 71 599 -14 568 -14 l 568 142 b 281 -14 463 39 369 -14 b 114 128 164 -14 114 40 l 114 606 b 33 669 114 639 83 656 "},"Ứ":{"ha":993,"x_min":0,"x_max":0,"o":"m 850 322 b 510 -14 850 108 722 -14 b 142 340 297 -14 142 124 l 142 917 b 36 1011 142 964 71 994 b 33 1015 36 1011 33 1013 b 39 1021 33 1018 35 1021 l 358 1021 b 364 1015 363 1021 364 1018 b 361 1011 364 1013 361 1011 b 254 917 328 994 254 964 l 254 303 b 533 24 254 135 367 24 b 813 303 706 24 813 129 l 813 917 b 707 1011 813 964 742 994 b 704 1015 707 1011 704 1013 b 710 1021 704 1018 706 1021 l 843 1021 b 914 1154 883 1021 914 1065 l 993 1154 b 850 1000 993 1049 957 1000 m 663 1257 b 417 1068 663 1142 519 1068 l 417 1074 b 564 1257 500 1074 564 1182 "},"ứ":{"ha":788,"x_min":0,"x_max":0,"o":"m 669 628 b 669 610 669 622 669 617 l 669 75 b 750 10 669 40 701 25 b 749 0 756 8 754 0 l 636 -14 b 568 71 599 -14 568 -14 l 568 142 b 281 -14 463 39 369 -14 b 114 128 164 -14 114 40 l 114 606 b 33 669 114 639 83 656 b 35 681 28 672 29 681 l 147 694 b 217 610 185 694 217 694 l 217 175 b 322 42 217 88 239 42 b 568 172 414 42 503 110 l 568 606 b 486 669 568 639 536 656 b 489 681 481 672 482 681 l 600 694 b 665 654 631 694 656 694 b 714 782 694 668 714 710 l 793 782 b 669 628 793 679 754 629 m 515 938 b 269 749 515 822 372 749 l 269 754 b 417 938 353 754 417 863 "},"Ừ":{"ha":993,"x_min":0,"x_max":0,"o":"m 850 322 b 510 -14 850 108 722 -14 b 142 340 297 -14 142 124 l 142 917 b 36 1011 142 964 71 994 b 33 1015 36 1011 33 1013 b 39 1021 33 1018 35 1021 l 358 1021 b 364 1015 363 1021 364 1018 b 361 1011 364 1013 361 1011 b 254 917 328 994 254 964 l 254 303 b 533 24 254 135 367 24 b 813 303 706 24 813 129 l 813 917 b 707 1011 813 964 742 994 b 704 1015 707 1011 704 1013 b 710 1021 704 1018 706 1021 l 843 1021 b 914 1154 883 1021 914 1065 l 993 1154 b 850 1000 993 1049 957 1000 m 472 1263 b 619 1079 472 1188 536 1079 l 619 1074 b 374 1263 519 1074 374 1147 "},"ừ":{"ha":788,"x_min":0,"x_max":0,"o":"m 378 943 b 525 760 378 868 442 760 l 525 754 b 279 943 425 754 279 828 m 33 669 b 35 681 28 672 29 681 l 147 694 b 217 610 185 694 217 694 l 217 175 b 322 42 217 88 239 42 b 568 172 414 42 503 110 l 568 606 b 486 669 568 639 536 656 b 489 681 481 672 482 681 l 600 694 b 665 654 631 694 656 694 b 714 782 708 669 714 746 l 793 782 b 669 628 793 678 753 629 b 669 610 669 622 669 617 l 669 75 b 750 10 669 40 701 25 b 749 0 756 8 754 0 l 636 -14 b 568 71 599 -14 568 -14 l 568 142 b 281 -14 463 39 369 -14 b 114 128 164 -14 114 40 l 114 606 b 33 669 114 639 83 656 "},"Ử":{"ha":993,"x_min":0,"x_max":0,"o":"m 850 322 b 510 -14 850 108 722 -14 b 142 340 297 -14 142 124 l 142 917 b 36 1011 142 964 71 994 b 33 1015 36 1011 33 1013 b 39 1021 33 1018 35 1021 l 358 1021 b 364 1015 363 1021 364 1018 b 361 1011 364 1013 361 1011 b 254 917 328 994 254 964 l 254 303 b 533 24 254 135 367 24 b 813 303 706 24 813 129 l 813 917 b 707 1011 813 964 742 994 b 704 1015 707 1011 704 1013 b 710 1021 704 1018 706 1021 l 843 1021 b 914 1154 883 1021 914 1065 l 993 1154 b 850 1000 993 1049 957 1000 m 433 1271 b 463 1274 443 1272 453 1274 b 571 1208 510 1274 556 1250 b 469 1078 589 1165 575 1096 l 469 1081 b 428 1211 538 1097 551 1211 "},"ử":{"ha":788,"x_min":0,"x_max":0,"o":"m 669 628 b 669 610 669 622 669 617 l 669 75 b 750 10 669 40 701 25 b 749 0 756 8 754 0 l 636 -14 b 568 71 599 -14 568 -14 l 568 142 b 281 -14 463 39 369 -14 b 114 128 164 -14 114 40 l 114 606 b 33 669 114 639 83 656 b 35 681 28 672 29 681 l 147 694 b 217 610 185 694 217 694 l 217 175 b 322 42 217 88 239 42 b 568 172 414 42 503 110 l 568 606 b 486 669 568 639 536 656 b 489 681 481 672 482 681 l 600 694 b 665 654 631 694 656 694 b 714 782 694 668 714 710 l 793 782 b 669 628 793 679 754 629 m 329 951 b 358 954 339 953 349 954 b 467 889 406 954 451 931 b 365 758 485 846 471 776 l 365 761 b 324 892 433 778 447 892 "},"Ữ":{"ha":993,"x_min":0,"x_max":0,"o":"m 850 322 b 510 -14 850 108 722 -14 b 142 340 297 -14 142 124 l 142 917 b 36 1011 142 964 71 994 b 33 1015 36 1011 33 1013 b 39 1021 33 1018 35 1021 l 358 1021 b 364 1015 363 1021 364 1018 b 361 1011 364 1013 361 1011 b 254 917 328 994 254 964 l 254 303 b 533 24 254 135 367 24 b 813 303 706 24 813 129 l 813 917 b 707 1011 813 964 742 994 b 704 1015 707 1011 704 1013 b 710 1021 704 1018 706 1021 l 843 1021 b 914 1154 883 1021 914 1065 l 993 1154 b 850 1000 993 1049 957 1000 m 419 1144 b 317 1086 372 1144 344 1124 b 442 1199 340 1132 382 1199 b 617 1122 508 1199 554 1122 b 676 1157 642 1122 663 1138 b 586 1069 656 1126 629 1069 b 419 1144 539 1069 475 1144 "},"ữ":{"ha":788,"x_min":0,"x_max":0,"o":"m 669 628 b 669 610 669 622 669 617 l 669 75 b 750 10 669 40 701 25 b 749 0 756 8 754 0 l 636 -14 b 568 71 599 -14 568 -14 l 568 142 b 281 -14 463 39 369 -14 b 114 128 164 -14 114 40 l 114 606 b 33 669 114 639 83 656 b 35 681 28 672 29 681 l 147 694 b 217 610 185 694 217 694 l 217 175 b 322 42 217 88 239 42 b 568 172 414 42 503 110 l 568 606 b 486 669 568 639 536 656 b 489 681 481 672 482 681 l 600 694 b 665 654 631 694 656 694 b 714 782 694 668 714 710 l 793 782 b 669 628 793 679 754 629 m 315 825 b 213 767 268 825 240 804 b 338 879 236 813 278 879 b 513 803 404 879 450 803 b 572 838 538 803 558 818 b 482 750 551 807 525 750 b 315 825 435 750 371 825 "},"Ự":{"ha":993,"x_min":0,"x_max":0,"o":"m 850 322 b 510 -14 850 108 722 -14 b 142 340 297 -14 142 124 l 142 917 b 36 1011 142 964 71 994 b 33 1015 36 1011 33 1013 b 39 1021 33 1018 35 1021 l 358 1021 b 364 1015 363 1021 364 1018 b 361 1011 364 1013 361 1011 b 254 917 328 994 254 964 l 254 303 b 533 24 254 135 367 24 b 813 303 706 24 813 129 l 813 917 b 707 1011 813 964 742 994 b 704 1015 707 1011 704 1013 b 710 1021 704 1018 706 1021 l 843 1021 b 914 1154 883 1021 914 1065 l 993 1154 b 850 1000 993 1049 957 1000 m 435 -144 b 497 -82 435 -110 463 -82 b 558 -144 532 -82 558 -110 b 497 -206 558 -179 532 -206 b 435 -144 463 -206 435 -179 "},"ự":{"ha":788,"x_min":0,"x_max":0,"o":"m 33 669 b 35 681 28 672 29 681 l 147 694 b 217 610 185 694 217 694 l 217 175 b 322 42 217 88 239 42 b 568 172 414 42 503 110 l 568 606 b 486 669 568 639 536 656 b 489 681 481 672 482 681 l 600 694 b 665 654 631 694 656 694 b 714 782 708 669 714 746 l 793 782 b 669 628 793 678 753 629 b 669 610 669 622 669 617 l 669 75 b 750 10 669 40 701 25 b 749 0 756 8 754 0 l 636 -14 b 568 71 599 -14 568 -14 l 568 142 b 281 -14 463 39 369 -14 b 114 128 164 -14 114 40 l 114 606 b 33 669 114 639 83 656 m 360 -124 b 422 -61 360 -89 388 -61 b 483 -124 457 -61 483 -89 b 422 -185 483 -158 457 -185 b 360 -124 388 -185 360 -158 "},"Ỳ":{"ha":914,"x_min":0,"x_max":0,"o":"m 515 510 l 515 104 b 622 10 515 53 589 29 b 625 6 622 10 625 8 b 619 0 625 3 624 0 l 300 0 b 294 6 296 0 294 3 b 297 10 294 8 297 10 b 404 104 331 29 404 53 l 404 500 l 136 913 b 15 1011 97 972 72 978 b 13 1015 15 1011 13 1013 b 18 1021 13 1018 14 1021 l 339 1021 b 344 1015 343 1021 344 1018 b 342 1011 344 1013 342 1011 b 261 946 315 996 261 989 b 276 910 261 931 269 921 l 494 571 l 711 903 b 724 940 718 914 724 928 b 646 1011 724 985 675 993 b 643 1015 646 1011 643 1013 b 649 1021 643 1018 644 1021 l 896 1021 b 901 1015 900 1021 901 1018 b 899 1011 901 1013 899 1011 b 779 911 836 975 813 961 m 433 1263 b 581 1079 433 1188 497 1079 l 581 1074 b 335 1263 481 1074 335 1147 "},"ỳ":{"ha":746,"x_min":0,"x_max":0,"o":"m 26 -204 b 128 -237 53 -218 88 -237 b 315 -56 183 -237 249 -200 l 339 -4 l 100 597 b 17 669 86 631 65 656 b 18 681 11 672 13 681 l 272 681 b 274 669 278 681 279 671 b 208 604 221 661 194 638 l 399 124 l 622 606 b 557 669 638 638 610 661 b 558 681 551 671 553 681 l 728 681 b 729 669 733 681 735 672 b 646 600 685 657 665 642 l 301 -146 b 106 -353 268 -217 203 -353 m 349 943 b 496 760 349 868 413 760 l 496 754 b 250 943 396 754 250 828 "},"Ỵ":{"ha":914,"x_min":0,"x_max":0,"o":"m 515 510 l 515 104 b 622 10 515 53 589 29 b 625 6 622 10 625 8 b 619 0 625 3 624 0 l 300 0 b 294 6 296 0 294 3 b 297 10 294 8 297 10 b 404 104 331 29 404 53 l 404 500 l 136 913 b 15 1011 97 972 72 978 b 13 1015 15 1011 13 1013 b 18 1021 13 1018 14 1021 l 339 1021 b 344 1015 343 1021 344 1018 b 342 1011 344 1013 342 1011 b 261 946 315 996 261 989 b 276 910 261 931 269 921 l 494 571 l 711 903 b 724 940 718 914 724 928 b 646 1011 724 985 675 993 b 643 1015 646 1011 643 1013 b 649 1021 643 1018 644 1021 l 896 1021 b 901 1015 900 1021 901 1018 b 899 1011 901 1013 899 1011 b 779 911 836 975 813 961 m 396 -144 b 458 -82 396 -110 424 -82 b 519 -144 493 -82 519 -110 b 458 -206 519 -179 493 -206 b 396 -144 424 -206 396 -179 "},"ỵ":{"ha":746,"x_min":0,"x_max":0,"o":"m 26 -204 b 128 -237 53 -218 88 -237 b 315 -56 183 -237 249 -200 l 339 -4 l 100 597 b 17 669 86 631 65 656 b 18 681 11 672 13 681 l 272 681 b 274 669 278 681 279 671 b 208 604 221 661 194 638 l 399 124 l 622 606 b 557 669 638 638 610 661 b 558 681 551 671 553 681 l 728 681 b 729 669 733 681 735 672 b 646 600 685 657 665 642 l 301 -146 b 106 -353 268 -217 203 -353 m 399 -176 b 461 -114 399 -142 426 -114 b 522 -176 496 -114 522 -142 b 461 -237 522 -211 496 -237 b 399 -176 426 -237 399 -211 "},"Ỷ":{"ha":914,"x_min":0,"x_max":0,"o":"m 515 510 l 515 104 b 622 10 515 53 589 29 b 625 6 622 10 625 8 b 619 0 625 3 624 0 l 300 0 b 294 6 296 0 294 3 b 297 10 294 8 297 10 b 404 104 331 29 404 53 l 404 500 l 136 913 b 15 1011 97 972 72 978 b 13 1015 15 1011 13 1013 b 18 1021 13 1018 14 1021 l 339 1021 b 344 1015 343 1021 344 1018 b 342 1011 344 1013 342 1011 b 261 946 315 996 261 989 b 276 910 261 931 269 921 l 494 571 l 711 903 b 724 940 718 914 724 928 b 646 1011 724 985 675 993 b 643 1015 646 1011 643 1013 b 649 1021 643 1018 644 1021 l 896 1021 b 901 1015 900 1021 901 1018 b 899 1011 901 1013 899 1011 b 779 911 836 975 813 961 m 394 1271 b 424 1274 404 1272 414 1274 b 532 1208 471 1274 517 1250 b 431 1078 550 1165 536 1096 l 431 1081 b 389 1211 499 1097 513 1211 "},"ỷ":{"ha":746,"x_min":0,"x_max":0,"o":"m 26 -204 b 128 -237 53 -218 88 -237 b 315 -56 183 -237 249 -200 l 339 -4 l 100 597 b 17 669 86 631 65 656 b 18 681 11 672 13 681 l 272 681 b 274 669 278 681 279 671 b 208 604 221 661 194 638 l 399 124 l 622 606 b 557 669 638 638 610 661 b 558 681 551 671 553 681 l 728 681 b 729 669 733 681 735 672 b 646 600 685 657 665 642 l 301 -146 b 106 -353 268 -217 203 -353 m 324 951 b 353 954 333 953 343 954 b 461 889 400 954 446 931 b 360 758 479 846 465 776 l 360 761 b 318 892 428 778 442 892 "},"Ỹ":{"ha":914,"x_min":0,"x_max":0,"o":"m 515 510 l 515 104 b 622 10 515 53 589 29 b 625 6 622 10 625 8 b 619 0 625 3 624 0 l 300 0 b 294 6 296 0 294 3 b 297 10 294 8 297 10 b 404 104 331 29 404 53 l 404 500 l 136 913 b 15 1011 97 972 72 978 b 13 1015 15 1011 13 1013 b 18 1021 13 1018 14 1021 l 339 1021 b 344 1015 343 1021 344 1018 b 342 1011 344 1013 342 1011 b 261 946 315 996 261 989 b 276 910 261 931 269 921 l 494 571 l 711 903 b 724 940 718 914 724 928 b 646 1011 724 985 675 993 b 643 1015 646 1011 643 1013 b 649 1021 643 1018 644 1021 l 896 1021 b 901 1015 900 1021 901 1018 b 899 1011 901 1013 899 1011 b 779 911 836 975 813 961 m 381 1144 b 278 1086 333 1144 306 1124 b 403 1199 301 1132 343 1199 b 578 1122 469 1199 515 1122 b 638 1157 603 1122 624 1138 b 547 1069 617 1126 590 1069 b 381 1144 500 1069 436 1144 "},"ỹ":{"ha":746,"x_min":0,"x_max":0,"o":"m 26 -204 b 128 -237 53 -218 88 -237 b 315 -56 183 -237 249 -200 l 339 -4 l 100 597 b 17 669 86 631 65 656 b 18 681 11 672 13 681 l 272 681 b 274 669 278 681 279 671 b 208 604 221 661 194 638 l 399 124 l 622 606 b 557 669 638 638 610 661 b 558 681 551 671 553 681 l 728 681 b 729 669 733 681 735 672 b 646 600 685 657 665 642 l 301 -146 b 106 -353 268 -217 203 -353 m 296 825 b 193 767 249 825 221 804 b 318 879 217 813 258 879 b 493 803 385 879 431 803 b 553 838 518 803 539 818 b 463 750 532 807 506 750 b 296 825 415 750 351 825 "},"‘":{"ha":235,"x_min":0,"x_max":0,"o":"m 47 794 l 117 1021 l 160 1021 l 133 794 "},"’":{"ha":235,"x_min":0,"x_max":0,"o":"m 188 1021 l 118 794 l 75 794 l 101 1021 "},"“":{"ha":363,"x_min":0,"x_max":0,"o":"m 47 794 l 117 1021 l 160 1021 l 133 794 m 175 794 l 244 1021 l 288 1021 l 261 794 "},"”":{"ha":358,"x_min":0,"x_max":0,"o":"m 188 1021 l 118 794 l 75 794 l 101 1021 m 311 1021 l 242 794 l 199 794 l 225 1021 "},"€":{"ha":1156,"x_min":0,"x_max":0,"o":"m 949 719 b 700 997 989 807 892 997 b 325 626 511 997 363 863 l 761 626 l 761 558 l 318 558 b 318 546 318 554 318 550 l 317 522 b 317 510 317 518 317 514 b 318 482 317 500 317 492 l 761 482 l 761 414 l 324 414 b 700 24 354 165 507 24 b 949 300 892 24 989 214 l 1081 126 b 700 -14 1018 65 857 -14 b 203 414 429 -14 239 146 l 33 414 l 33 482 l 197 482 b 197 510 197 492 197 500 b 199 558 197 526 197 542 l 33 558 l 33 626 l 206 626 b 700 1035 249 882 436 1035 b 1081 894 857 1035 1018 954 "},"":{"ha":711,"x_min":0,"x_max":0,"o":"m 478 422 b 169 174 335 383 169 349 b 293 10 169 89 193 10 b 478 286 432 10 478 175 m 1199 -57 b 1494 -256 1335 -57 1429 -143 b 1275 -156 1433 -192 1364 -156 b 793 -307 1083 -156 1021 -307 b 478 14 600 -307 478 -175 l 478 133 b 272 -14 443 40 374 -14 b 61 163 154 -14 61 33 b 478 444 61 342 344 407 b 339 669 478 549 478 669 b 192 535 249 669 192 626 b 210 444 192 504 197 472 l 88 576 b 339 693 163 649 231 693 b 581 519 447 693 581 650 l 581 75 b 768 -271 581 -53 594 -271 b 1199 -57 939 -271 1039 -57 "},"":{"ha":789,"x_min":0,"x_max":0,"o":"m 235 24 l 263 24 b 608 340 476 24 608 111 b 431 671 608 457 590 671 b 235 340 261 671 235 469 m 47 6 b 132 75 47 19 132 19 l 132 953 b 51 1018 132 996 82 1006 b 49 1021 50 1019 49 1019 b 165 1042 49 1032 147 1042 b 235 957 226 1042 235 1017 l 235 557 b 443 694 274 649 344 694 b 721 381 628 694 721 553 b 265 0 721 85 529 0 l 54 0 b 47 6 50 0 47 3 "},"":{"ha":794,"x_min":0,"x_max":0,"o":"m 181 340 b 358 10 181 222 199 10 b 554 508 553 10 554 376 l 554 657 l 526 657 b 181 340 311 657 181 568 m 738 4 b 624 -14 719 -7 640 -14 b 551 99 553 -14 551 43 l 554 140 l 554 160 b 346 -14 521 58 460 -14 b 68 300 161 -14 68 128 b 554 681 68 617 281 681 l 554 953 b 474 1017 554 993 506 1008 b 469 1022 474 1017 469 1018 b 475 1028 469 1026 475 1028 b 588 1042 513 1032 550 1042 b 657 957 650 1042 657 1013 l 657 75 b 738 10 657 32 706 24 b 738 4 740 8 740 6 "},"":{"ha":746,"x_min":0,"x_max":0,"o":"m 379 671 b 181 371 208 671 181 508 l 558 371 b 379 671 558 494 542 671 m 68 340 b 375 694 68 524 176 694 b 675 340 593 694 675 539 l 181 340 b 424 44 188 182 246 44 b 682 178 519 44 626 100 b 381 -14 635 58 506 -14 b 68 340 174 -14 68 149 "},"":{"ha":651,"x_min":0,"x_max":0,"o":"m 240 -26 b -75 -353 240 -26 253 -353 b -557 -201 -314 -353 -357 -201 b -776 -301 -656 -201 -721 -244 b -481 -103 -661 -103 -519 -103 b -50 -317 -322 -103 -219 -317 b 139 29 163 -317 139 29 l 139 657 l 54 657 l 54 681 l 139 681 l 139 829 b 381 1042 139 918 176 1042 b 632 924 501 1042 569 985 l 510 792 b 381 1018 529 836 569 1018 b 240 858 272 1018 240 936 l 240 681 l 454 681 l 454 657 l 240 657 "},"":{"ha":718,"x_min":0,"x_max":0,"o":"m 215 450 b 363 231 215 351 240 231 b 510 450 485 231 510 350 b 363 671 510 549 485 671 b 215 450 240 671 215 549 m 147 133 b 668 -122 147 0 668 160 b 428 -354 668 -262 565 -354 b -47 -203 200 -354 144 -203 b -267 -303 -137 -203 -206 -239 b 29 -104 -201 -190 -107 -104 b 458 -307 189 -104 288 -307 b 608 -158 554 -307 608 -256 b 88 104 608 51 88 -93 b 260 225 88 194 188 217 b 117 450 164 263 117 350 b 363 694 117 592 221 694 b 464 676 397 694 432 689 b 631 804 500 739 563 782 l 668 682 b 572 728 649 708 604 728 b 479 669 532 728 500 703 b 608 450 567 629 608 543 b 363 207 608 304 508 207 b 147 133 314 207 147 207 "},"":{"ha":822,"x_min":0,"x_max":0,"o":"m 593 506 b 488 640 593 593 569 640 b 242 508 394 640 306 571 l 242 75 b 322 11 242 42 274 26 b 321 0 328 8 326 0 l 60 0 b 58 11 54 0 53 8 b 139 75 108 26 139 42 l 139 953 b 58 1018 139 988 108 1003 b 60 1028 53 1019 54 1028 l 172 1042 b 242 957 210 1042 242 1042 l 242 539 b 529 694 346 642 439 694 b 694 553 644 694 694 640 l 694 29 b 883 -317 694 29 671 -317 b 1314 -103 1053 -317 1154 -103 b 1610 -301 1353 -103 1493 -103 b 1390 -201 1554 -244 1488 -201 b 908 -353 1189 -201 1147 -353 b 593 -26 581 -353 593 -26 "},"":{"ha":374,"x_min":0,"x_max":0,"o":"m 265 968 b 265 894 285 949 285 915 l 226 857 b 190 842 217 847 203 842 b 153 857 176 842 164 847 l 115 894 b 115 968 94 915 94 949 l 153 1007 b 190 1022 164 1017 176 1022 b 226 1007 203 1022 217 1017 m 139 606 b 58 671 139 640 108 656 b 60 681 53 672 54 681 l 172 694 b 242 610 210 694 242 694 l 242 29 b 429 -317 242 29 217 -317 b 860 -103 599 -317 701 -103 b 1156 -301 899 -103 1040 -103 b 936 -201 1101 -244 1035 -201 b 454 -353 736 -201 693 -353 b 139 -26 128 -353 139 -26 "},"":{"ha":375,"x_min":0,"x_max":0,"o":"m 265 968 b 265 894 285 949 285 915 l 226 857 b 190 842 217 847 203 842 b 153 857 176 842 164 847 l 115 894 b 115 968 94 915 94 949 l 153 1007 b 190 1022 164 1017 176 1022 b 226 1007 203 1022 217 1017 m -465 -203 b -685 -303 -564 -203 -629 -246 b -389 -104 -569 -104 -428 -104 b 40 -307 -231 -104 -129 -307 b 147 -171 129 -307 147 -249 l 147 606 b 67 669 147 639 115 656 b 68 681 60 672 61 681 l 179 694 b 249 610 218 694 249 694 l 249 -142 b 32 -354 249 -229 207 -354 b -465 -203 -207 -354 -265 -203 "},"":{"ha":381,"x_min":0,"x_max":0,"o":"m 139 953 b 58 1018 139 988 107 1003 b 60 1028 53 1019 54 1028 l 172 1042 b 242 957 210 1042 242 1042 l 242 29 b 429 -317 242 29 218 -317 b 860 -103 600 -317 701 -103 b 1156 -301 900 -103 1040 -103 b 936 -201 1101 -244 1035 -201 b 456 -353 736 -201 694 -353 b 140 -26 128 -353 140 -26 "},"":{"ha":1194,"x_min":0,"x_max":0,"o":"m 964 506 b 858 640 964 593 942 640 b 654 517 782 640 710 579 l 654 75 b 735 11 654 42 686 26 b 733 0 740 8 739 0 l 472 0 b 471 11 467 0 465 8 b 551 75 519 26 551 42 l 551 506 b 447 640 551 593 529 640 b 242 517 369 640 297 579 l 242 75 b 322 11 242 42 274 26 b 321 0 328 8 326 0 l 60 0 b 58 11 54 0 53 8 b 139 75 108 26 139 42 l 139 606 b 58 671 139 640 108 656 b 60 681 53 672 54 681 l 172 694 b 242 610 210 694 242 694 l 242 550 b 488 694 322 644 403 694 b 654 553 604 694 654 640 l 654 550 b 900 694 733 644 815 694 b 1067 553 1017 694 1067 640 l 1067 29 b 1254 -317 1067 29 1042 -317 b 1685 -103 1424 -317 1526 -103 b 1981 -301 1724 -103 1865 -103 b 1761 -201 1925 -244 1860 -201 b 1279 -353 1561 -201 1518 -353 b 964 -26 951 -353 964 -26 "},"":{"ha":822,"x_min":0,"x_max":0,"o":"m 593 506 b 488 640 593 593 569 640 b 242 508 394 640 306 571 l 242 75 b 322 11 242 42 274 26 b 321 0 328 8 326 0 l 60 0 b 58 11 54 0 53 8 b 139 75 108 26 139 42 l 139 606 b 58 671 139 640 108 656 b 60 681 53 672 54 681 l 172 694 b 242 610 210 694 242 694 l 242 539 b 529 694 346 642 439 694 b 694 553 644 694 694 640 l 694 29 b 882 -317 694 29 669 -317 b 1313 -103 1051 -317 1154 -103 b 1608 -301 1351 -103 1493 -103 b 1389 -201 1553 -244 1486 -201 b 907 -353 1189 -201 1146 -353 b 592 -26 579 -353 592 -26 "},"":{"ha":814,"x_min":0,"x_max":0,"o":"m 407 694 b 746 340 614 694 746 542 b 407 -14 746 139 614 -14 b 68 340 200 -14 68 139 b 407 694 68 542 200 694 m 407 10 b 633 340 592 10 633 189 b 407 671 633 490 590 671 b 181 340 224 671 181 490 b 407 10 181 189 222 10 m 407 440 b 507 340 433 440 507 360 b 407 240 507 321 433 240 b 307 340 381 240 307 321 b 407 440 307 360 381 440 "},"":{"ha":789,"x_min":0,"x_max":0,"o":"m 608 340 b 431 671 608 457 590 671 b 235 340 261 671 235 469 l 235 24 l 263 24 b 608 340 476 24 608 111 m 443 694 b 721 381 628 694 721 553 b 235 0 721 63 508 0 l 235 -265 b 399 -329 235 -306 368 -321 b 403 -335 399 -329 403 -331 b 397 -340 403 -337 400 -340 l 54 -340 b 47 -335 50 -340 47 -337 b 132 -265 47 -321 132 -321 l 132 606 b 51 671 132 650 83 657 b 49 674 51 671 49 672 b 165 694 49 685 147 694 b 235 557 251 694 235 624 b 443 694 274 649 344 694 "},"":{"ha":789,"x_min":0,"x_max":0,"o":"m 554 657 l 526 657 b 181 340 311 657 181 571 b 358 10 181 224 199 10 b 554 572 569 10 554 438 m 657 -265 b 738 -329 657 -306 707 -321 b 742 -335 738 -329 742 -331 b 736 -340 742 -337 739 -340 l 392 -340 b 386 -335 388 -340 386 -337 b 554 -265 386 -321 554 -321 l 554 160 b 346 -14 521 58 460 -14 b 68 300 161 -14 68 128 b 525 681 68 596 260 681 l 624 681 b 740 660 638 681 740 675 b 738 657 740 658 738 657 b 657 592 707 643 657 636 "},"":{"ha":815,"x_min":0,"x_max":0,"o":"m 896 -306 b 582 21 569 -306 582 21 l 582 143 b 294 -12 476 39 383 -12 b 128 129 178 -12 128 40 l 128 606 b 47 671 128 640 97 656 b 49 682 42 672 43 682 l 161 694 b 231 611 199 694 231 694 l 231 176 b 336 42 231 89 253 42 b 582 174 428 42 517 111 l 582 606 b 500 671 582 640 550 656 b 503 682 494 672 496 682 l 614 694 b 683 611 653 694 683 694 l 683 76 b 871 -269 683 76 658 -269 b 1301 -56 1040 -269 1143 -56 b 1597 -254 1340 -56 1482 -56 b 1378 -154 1543 -197 1476 -154 b 896 -306 1178 -154 1135 -306 "},"":{"ha":761,"x_min":0,"x_max":0,"o":"m 288 669 b 221 604 236 661 208 636 l 410 146 l 604 581 b 833 842 676 742 753 842 b 979 729 881 842 929 807 b 872 776 950 760 914 776 b 640 572 796 776 707 715 l 365 -14 l 113 600 b 31 669 99 635 81 656 b 32 681 25 672 26 681 l 286 681 b 288 669 293 681 294 671 "},"":{"ha":1050,"x_min":0,"x_max":0,"o":"m 1265 729 b 1154 778 1236 760 1197 778 b 926 572 1076 778 988 718 l 681 -14 l 515 442 l 336 -14 l 113 600 b 31 669 100 635 81 656 b 32 681 25 672 26 681 l 281 681 b 282 669 286 681 288 671 b 214 601 229 661 201 635 l 378 153 l 504 474 l 457 600 b 376 669 446 635 425 656 b 378 681 369 672 371 681 l 625 681 b 626 669 632 681 633 671 b 560 601 575 661 547 635 l 722 153 l 892 581 b 1115 843 957 744 1033 843 b 1265 729 1164 843 1215 808 "},"":{"ha":800,"x_min":0,"x_max":0,"o":"m 371 314 l 208 114 b -92 -157 90 -31 -3 -157 b -226 -43 -137 -157 -182 -124 b -112 -74 -187 -62 -150 -74 b 190 131 -17 -74 79 -6 l 356 333 l 164 600 b 72 669 140 632 122 654 b 74 681 67 671 68 681 l 339 681 b 340 669 344 681 346 671 b 289 603 288 661 267 633 l 433 400 l 579 579 b 879 849 697 724 790 849 b 1014 735 925 849 968 815 b 900 765 975 756 938 765 b 597 563 803 765 707 697 l 449 379 l 665 79 b 756 10 688 47 707 25 b 754 0 761 8 761 0 l 490 0 b 489 10 485 0 483 8 b 540 78 540 18 563 47 "},"":{"ha":772,"x_min":0,"x_max":0,"o":"m 103 -307 b 351 -6 193 -307 274 -179 l 113 597 b 29 669 99 631 78 656 b 31 681 24 672 25 681 l 285 681 b 286 669 290 681 292 671 b 221 604 233 661 207 638 l 411 122 b 635 606 485 283 560 444 b 569 669 649 638 621 663 b 571 681 564 671 565 681 l 740 681 b 742 669 746 681 747 672 b 658 600 693 656 674 635 l 390 18 b 82 -354 311 -154 239 -354 b -400 -203 -115 -354 -200 -203 b -619 -303 -499 -203 -564 -246 b -324 -104 -504 -104 -362 -104 b 103 -307 -165 -104 -67 -307 "},"":{"ha":975,"x_min":0,"x_max":0,"o":"m 607 396 l 449 819 l 290 396 m 489 1035 l 824 136 b 1140 -181 875 -4 960 -181 b 1371 -104 1204 -181 1279 -158 b 1067 -246 1251 -207 1150 -246 b 736 53 885 -246 781 -65 l 621 358 l 276 358 l 182 106 b 254 10 161 51 196 31 b 253 0 260 8 258 0 l 32 0 b 31 10 26 0 25 8 b 143 107 88 31 124 54 "},"":{"ha":1067,"x_min":0,"x_max":0,"o":"m 879 296 b 590 554 879 475 788 554 l 454 554 l 454 38 l 590 38 b 879 296 788 38 879 117 m 754 585 b 992 296 922 554 992 436 b 663 0 992 132 896 0 l 238 0 b 236 10 232 0 231 8 b 342 104 293 31 342 69 l 342 790 b 454 901 342 851 392 901 l 454 592 l 553 592 b 768 788 710 592 768 643 b 522 997 768 932 681 997 b 275 554 90 997 115 671 b 517 1035 -25 572 -104 1035 b 881 788 696 1035 881 989 b 754 585 881 700 838 624 "},"":{"ha":1072,"x_min":0,"x_max":0,"o":"m 1035 251 b 610 -14 946 99 821 -14 b 82 510 278 -14 82 200 b 585 1035 82 819 268 1035 b 993 894 704 1035 904 976 l 785 593 b 833 756 817 640 833 699 b 585 997 833 906 733 997 b 203 531 315 997 203 757 b 622 65 203 318 350 65 b 1035 251 767 65 889 101 "},"":{"ha":1244,"x_min":0,"x_max":0,"o":"m 1163 511 b 664 0 1163 203 981 0 l 238 0 b 233 7 233 0 233 4 b 236 10 233 8 235 8 b 342 104 271 26 342 56 l 342 790 b 454 901 342 853 393 901 l 454 38 l 651 38 b 1043 511 922 38 1043 268 b 522 997 1043 810 808 997 b 168 761 371 997 168 949 b 275 554 168 681 211 601 b 517 1035 -28 572 -101 1035 b 1163 511 850 1035 1163 885 "},"":{"ha":1047,"x_min":0,"x_max":0,"o":"m 522 983 b 275 554 90 983 115 671 b 517 1021 -25 572 -104 1021 l 942 1021 l 947 814 b 938 813 947 808 940 807 b 739 983 918 869 874 983 m 304 0 b 303 10 299 0 297 8 b 410 104 360 31 410 69 l 410 790 b 521 901 410 851 460 901 l 521 574 l 681 574 b 775 679 715 574 756 622 b 785 678 778 685 785 683 l 785 432 b 775 429 785 425 778 424 b 681 536 756 488 715 536 l 521 536 l 521 38 l 714 38 b 949 250 849 38 922 147 b 958 247 950 256 958 253 l 951 0 "},"":{"ha":1008,"x_min":0,"x_max":0,"o":"m 924 813 b 725 983 903 869 860 983 l 522 983 b 275 554 90 983 115 671 b 517 1021 -25 572 -104 1021 l 926 1021 l 933 814 b 924 813 933 808 925 807 m 521 536 l 521 104 b 628 10 521 69 571 31 b 626 0 633 8 632 0 l 304 0 b 303 10 299 0 297 8 b 410 104 360 31 410 69 l 410 790 b 521 901 410 851 460 901 l 521 574 l 667 574 b 761 679 701 574 740 622 b 771 678 763 685 771 683 l 771 432 b 761 429 771 425 763 424 b 667 536 740 488 701 536 "},"":{"ha":1111,"x_min":0,"x_max":0,"o":"m 711 568 b 585 997 806 721 926 997 b 203 510 368 997 203 817 b 585 24 203 203 368 24 b 833 83 692 24 775 47 l 833 363 b 372 500 833 489 579 467 b 374 510 367 501 368 510 l 1051 510 b 1053 500 1057 510 1058 503 b 946 406 996 481 946 440 l 946 57 b 585 -14 846 17 742 -14 b 82 510 283 -14 82 185 b 585 1035 82 836 283 1035 b 938 839 756 1035 875 940 l 717 553 l 715 553 b 711 568 710 556 707 563 "},"":{"ha":1340,"x_min":0,"x_max":0,"o":"m 1282 1011 b 1175 917 1225 990 1175 951 l 1175 104 b 1282 10 1175 69 1225 31 b 1281 0 1288 8 1286 0 l 958 0 b 957 10 953 0 951 8 b 1064 104 1014 31 1064 69 l 1064 536 l 522 536 l 522 104 b 629 10 522 69 572 31 b 628 0 635 8 633 0 l 306 0 b 304 10 300 0 299 8 b 411 104 361 31 411 69 l 411 888 b 457 978 411 925 429 958 b 168 754 258 969 168 853 b 275 554 168 679 214 599 b 517 1021 -25 572 -104 1021 l 628 1021 b 629 1011 633 1021 635 1013 b 522 917 572 990 522 951 l 522 574 l 1064 574 l 1064 917 b 957 1011 1064 951 1014 990 b 958 1021 951 1013 953 1021 l 1281 1021 b 1282 1011 1286 1021 1288 1013 "},"":{"ha":688,"x_min":0,"x_max":0,"o":"m 629 1011 b 522 917 572 990 522 951 l 522 104 b 629 10 522 69 572 31 b 628 0 635 8 633 0 l 306 0 b 304 10 300 0 299 8 b 411 104 361 31 411 69 l 411 888 b 457 978 411 925 429 958 b 168 760 257 975 168 856 b 275 554 168 682 211 601 b 517 1021 -25 572 -104 1021 l 628 1021 b 629 1011 633 1021 635 1013 "},"":{"ha":688,"x_min":0,"x_max":0,"o":"m 182 144 b 285 -115 163 100 119 -115 b 414 44 392 -115 414 -33 l 414 888 b 460 978 414 925 432 958 b 278 554 144 972 133 660 b 519 1021 -22 572 -101 1021 l 631 1021 b 632 1011 636 1021 638 1013 b 525 917 575 990 525 951 l 525 50 b 285 -153 522 -37 479 -153 b 32 -35 163 -153 96 -96 "},"":{"ha":1256,"x_min":0,"x_max":0,"o":"m 896 10 b 964 107 953 31 993 67 l 646 542 l 522 418 l 522 104 b 629 10 522 69 572 31 b 628 0 635 8 633 0 l 306 0 b 304 10 300 0 299 8 b 411 104 361 31 411 69 l 411 888 b 457 978 411 925 429 957 b 275 554 153 963 133 658 b 517 1021 -25 572 -104 1021 l 628 1021 b 629 1011 633 1021 635 1013 b 522 917 572 990 522 951 l 522 471 l 963 917 b 907 1011 999 953 964 990 b 908 1021 901 1013 903 1021 l 1165 1021 b 1168 1011 1171 1021 1172 1013 b 1010 911 1110 990 1058 960 l 725 622 l 1101 110 b 1226 10 1138 60 1168 31 b 1224 0 1231 8 1229 0 l 897 0 b 896 10 892 0 890 8 "},"":{"ha":1035,"x_min":0,"x_max":0,"o":"m 411 888 b 457 978 411 925 429 957 b 275 554 153 963 133 658 b 517 1021 -25 572 -104 1021 l 628 1021 b 629 1011 633 1021 635 1013 b 522 917 572 990 522 951 l 522 38 l 715 38 b 950 250 850 38 924 147 b 960 247 951 256 960 253 l 953 0 l 306 0 b 304 10 300 0 299 8 b 411 104 361 31 411 69 "},"":{"ha":1211,"x_min":0,"x_max":0,"o":"m 203 104 b 310 10 203 69 251 31 b 307 0 315 8 314 0 l 61 0 b 60 10 56 0 54 8 b 165 104 117 31 165 69 l 165 953 b -97 1144 110 1054 31 1144 b -322 1069 -160 1144 -233 1122 b -22 1210 -204 1171 -106 1210 b 310 911 158 1210 261 1026 l 599 222 l 961 1021 l 1151 1021 b 1153 1011 1157 1021 1158 1013 b 1047 917 1096 990 1047 951 l 1047 104 b 1153 10 1047 69 1096 31 b 1151 0 1158 8 1157 0 l 831 0 b 828 10 824 0 822 8 b 935 104 886 31 935 69 l 935 872 l 556 35 l 203 876 "},"":{"ha":1022,"x_min":0,"x_max":0,"o":"m 164 974 b -128 1135 89 1060 -6 1135 b -335 1069 -189 1135 -258 1115 b -35 1207 -218 1169 -119 1207 b 343 917 154 1207 271 1019 l 826 233 l 826 917 b 721 1011 826 951 778 990 b 722 1021 715 1013 717 1021 l 969 1021 b 971 1011 975 1021 976 1013 b 864 917 914 990 864 951 l 864 -14 b 306 775 864 -14 865 -12 l 200 924 l 200 104 b 307 10 200 69 250 31 b 306 0 313 8 311 0 l 58 0 b 57 10 53 0 51 8 b 164 104 114 31 164 69 "},"":{"ha":1169,"x_min":0,"x_max":0,"o":"m 1088 510 b 585 -14 1088 200 901 -14 b 82 510 268 -14 82 200 b 585 1035 82 819 268 1035 b 1088 510 901 1035 1088 819 m 585 24 b 967 510 854 24 967 274 b 585 997 967 746 854 997 b 203 510 315 997 203 746 b 585 24 203 274 315 24 m 585 600 b 675 511 618 600 675 544 b 585 421 675 476 619 421 b 494 511 550 421 494 476 b 585 600 494 544 551 600 "},"":{"ha":960,"x_min":0,"x_max":0,"o":"m 561 10 b 558 0 567 8 565 0 l 238 0 b 236 10 232 0 231 8 b 342 104 293 31 342 69 l 342 790 b 454 901 342 851 392 901 l 454 500 l 557 500 b 772 733 715 500 772 589 b 522 997 772 878 732 997 b 275 554 90 997 115 671 b 517 1035 -25 572 -104 1035 b 885 733 799 1035 885 901 b 614 463 885 576 765 463 l 454 463 l 454 104 b 561 10 454 69 503 31 "},"":{"ha":1169,"x_min":0,"x_max":0,"o":"m 585 24 b 967 510 854 24 967 274 b 585 997 967 746 854 997 b 203 510 315 997 203 746 b 585 24 203 274 315 24 m 585 600 b 675 511 618 600 675 544 b 585 421 675 476 619 421 b 494 511 550 421 494 476 b 585 600 494 544 551 600 m 1088 510 b 713 -1 1088 244 950 49 b 1040 -122 831 -43 893 -122 b 1260 -22 1139 -122 1206 -79 b 964 -221 1144 -221 1004 -221 b 581 -14 821 -221 725 -49 b 82 510 267 -12 82 201 b 585 1035 82 819 268 1035 b 1088 510 901 1035 1088 819 "},"":{"ha":1174,"x_min":0,"x_max":0,"o":"m 478 525 l 478 104 b 585 10 478 69 526 31 b 582 0 590 8 589 0 l 261 0 b 260 10 256 0 254 8 b 365 104 317 31 365 69 l 365 790 b 478 901 365 853 417 901 l 478 563 l 636 563 b 851 769 786 563 851 617 b 546 997 851 914 797 997 b 299 554 114 997 139 671 b 540 1035 -1 572 -81 1035 b 964 769 713 1035 964 1001 b 707 525 964 643 878 531 l 1026 110 b 1151 10 1067 54 1094 42 b 1154 6 1151 10 1154 8 b 1149 0 1154 3 1153 0 l 839 0 b 833 6 835 0 833 3 b 836 10 833 8 836 10 b 914 81 864 25 914 40 b 607 525 914 111 663 450 "},"":{"ha":875,"x_min":0,"x_max":0,"o":"m 229 279 b 439 24 150 143 272 24 b 690 221 556 24 690 68 b 361 504 690 354 517 419 m 625 743 b 426 997 686 850 590 997 b 228 833 319 997 228 957 b 522 565 228 718 376 646 m 332 521 b 124 794 219 586 124 665 b 418 1035 124 958 271 1035 b 800 894 539 1035 710 978 l 547 551 b 799 268 678 478 799 397 b 447 -14 799 61 636 -14 b 54 140 314 -14 142 57 "},"":{"ha":981,"x_min":0,"x_max":0,"o":"m 578 983 l 578 104 b 685 10 578 69 628 31 b 683 0 690 8 689 0 l 363 0 b 360 10 356 0 354 8 b 467 104 418 31 467 69 l 467 888 b 521 983 467 929 489 964 b 275 554 146 974 122 667 b 517 1021 -25 572 -104 1021 l 899 1021 l 906 814 b 896 813 906 808 897 807 b 697 983 875 869 832 983 "},"":{"ha":1021,"x_min":0,"x_max":0,"o":"m 969 1011 b 864 917 913 990 864 951 l 864 322 b 522 -14 864 108 733 -14 b 156 340 288 -14 156 144 l 156 1032 b 32 1200 156 1143 110 1200 b -99 1163 -6 1200 -49 1188 b 92 1243 -32 1218 35 1243 b 267 1015 193 1243 267 1163 l 267 303 b 547 24 267 135 379 24 b 826 303 701 24 826 111 l 826 917 b 719 1011 826 951 776 990 b 721 1021 714 1013 715 1021 l 968 1021 b 969 1011 974 1021 975 1013 "},"":{"ha":978,"x_min":0,"x_max":0,"o":"m 947 1011 b 835 914 890 990 854 967 l 489 -14 l 153 885 b -162 1201 100 1024 17 1201 b -393 1125 -226 1201 -303 1179 b -89 1265 -275 1226 -174 1265 b 242 968 93 1265 199 1085 l 529 200 l 796 915 b 724 1011 815 969 781 990 b 725 1021 718 1013 719 1021 l 946 1021 b 947 1011 951 1021 953 1013 "},"":{"ha":1539,"x_min":0,"x_max":0,"o":"m 1508 1011 b 1396 914 1451 990 1415 967 l 1050 -14 l 769 739 l 488 -14 l 142 914 b 31 1011 122 968 88 990 b 32 1021 25 1013 26 1021 l 332 1021 b 333 1011 338 1021 339 1013 b 261 914 276 990 240 969 l 528 200 l 749 792 l 715 883 b 399 1200 663 1026 578 1200 b 169 1125 335 1200 260 1178 b 472 1265 288 1226 388 1265 b 806 964 656 1265 761 1081 l 1090 200 l 1358 918 b 1285 1011 1375 971 1342 992 b 1286 1021 1279 1013 1281 1021 l 1507 1021 b 1508 1011 1513 1021 1514 1013 "},"":{"ha":1063,"x_min":0,"x_max":0,"o":"m 686 0 b 685 10 681 0 679 8 b 746 114 743 31 783 58 l 499 479 l 243 117 b 303 10 203 60 244 31 b 300 0 308 8 307 0 l 50 0 b 49 10 44 0 43 8 b 167 99 101 29 138 60 l 468 525 l 182 947 b -151 1175 97 1067 -6 1175 b -331 1126 -206 1175 -264 1161 b -62 1239 -228 1207 -139 1239 b 317 951 106 1239 221 1090 l 554 600 l 771 906 b 711 1011 810 961 768 990 b 713 1021 706 1013 707 1021 l 963 1021 b 965 1011 969 1021 971 1013 b 839 911 907 990 869 956 l 585 554 l 888 107 b 1011 10 918 64 954 31 b 1010 0 1017 8 1015 0 "},"":{"ha":939,"x_min":0,"x_max":0,"o":"m 308 0 b 306 10 303 0 301 8 b 413 104 364 31 413 69 l 413 500 l 146 913 b -208 1175 57 1046 -50 1175 b -390 1125 -262 1175 -322 1161 b -119 1238 -287 1206 -199 1238 b 264 943 53 1238 175 1086 l 504 571 l 719 903 b 654 1011 757 960 711 990 b 656 1021 649 1013 650 1021 l 907 1021 b 908 1011 913 1021 914 1013 b 788 911 851 990 819 956 l 525 510 l 525 104 b 631 10 525 69 574 31 b 629 0 636 8 635 0 "},"":{"ha":968,"x_min":0,"x_max":0,"o":"m 871 1021 l 286 38 l 649 38 b 883 250 783 38 858 147 b 893 247 885 256 893 253 l 886 0 l 133 0 l 718 983 l 522 983 b 275 554 90 983 115 671 b 517 1021 -25 572 -104 1021 "},"":{"ha":1408,"x_min":0,"x_max":0,"o":"m 1361 10 b 1360 0 1367 8 1365 0 l 1099 0 b 1097 10 1093 0 1092 8 b 1178 75 1147 25 1178 40 l 1178 506 b 1074 639 1178 592 1156 639 b 828 507 981 639 892 571 l 828 75 b 908 10 828 40 858 25 b 907 0 914 8 913 0 l 646 0 b 644 10 640 0 639 8 b 725 75 693 25 725 40 l 725 889 b 638 997 725 914 715 997 b 563 581 453 997 450 738 b 564 579 563 581 563 581 l 564 578 b 565 576 565 578 565 576 l 443 444 b 332 671 463 489 489 671 b 217 564 263 671 217 629 b 582 160 217 375 582 385 b 336 -14 582 72 506 -14 b 68 104 239 -14 132 43 l 192 236 b 336 10 160 181 183 10 b 479 136 419 10 479 58 b 121 519 479 307 121 297 b 332 694 121 611 193 694 b 513 625 408 694 464 664 b 656 1042 399 819 446 1042 b 828 854 785 1042 828 933 l 828 538 b 1115 694 932 642 1025 694 b 1281 553 1231 694 1281 640 l 1281 75 b 1361 10 1281 40 1313 25 "},"":{"ha":1389,"x_min":0,"x_max":0,"o":"m 1357 10 b 1356 0 1364 8 1363 0 l 1071 0 b 1069 10 1065 0 1064 8 b 1125 75 1118 25 1149 40 l 904 379 l 828 311 l 828 75 b 908 10 828 40 858 25 b 907 0 914 8 913 0 l 646 0 b 644 10 640 0 639 8 b 725 75 693 25 725 40 l 725 889 b 638 997 725 914 715 997 b 563 581 467 997 450 738 b 564 579 563 581 563 581 l 564 578 b 565 576 565 578 565 576 l 443 444 b 332 671 463 489 489 671 b 217 564 263 671 217 629 b 582 160 217 375 582 385 b 336 -14 582 72 506 -14 b 68 104 239 -14 132 43 l 192 236 b 336 10 160 181 183 10 b 479 136 419 10 479 58 b 121 519 479 307 121 297 b 332 694 121 611 193 694 b 513 625 408 694 464 664 b 656 1042 399 819 446 1042 b 828 854 785 1042 828 933 l 828 343 l 1124 606 b 1103 669 1157 636 1151 656 b 1104 681 1097 672 1099 681 l 1288 681 b 1289 669 1293 681 1294 672 b 1156 603 1239 656 1200 642 l 982 449 l 1247 79 b 1357 10 1275 40 1308 25 "},"":{"ha":964,"x_min":0,"x_max":0,"o":"m 908 10 b 907 0 914 8 913 0 l 646 0 b 644 10 640 0 639 8 b 725 75 693 25 725 40 l 725 889 b 638 997 725 914 715 997 b 563 581 467 997 450 738 b 564 579 563 581 563 581 l 564 578 b 565 576 565 578 565 576 l 443 444 b 332 671 463 489 489 671 b 217 564 263 671 217 629 b 582 160 217 375 582 385 b 336 -14 582 72 506 -14 b 68 104 239 -14 132 43 l 192 236 b 336 10 160 181 183 10 b 479 136 419 10 479 58 b 121 519 479 307 121 297 b 332 694 121 611 193 694 b 513 625 408 694 464 664 b 656 1042 399 819 446 1042 b 828 854 785 1042 828 933 l 828 75 b 908 10 828 40 858 25 "},"":{"ha":1379,"x_min":0,"x_max":0,"o":"m 407 10 b 633 340 592 10 633 189 b 407 671 633 490 590 671 b 181 340 224 671 181 490 b 407 10 181 189 222 10 m 972 10 b 1199 340 1157 10 1199 189 b 972 671 1199 492 1156 671 b 746 340 789 671 746 490 b 972 10 746 189 788 10 m 972 694 b 1311 340 1179 694 1311 542 b 972 -14 1311 139 1179 -14 b 690 135 857 -14 751 35 b 407 -14 628 35 524 -14 b 68 340 200 -14 68 139 b 407 694 68 542 200 694 b 690 546 524 694 628 646 b 972 694 751 646 857 694 "},"":{"ha":1050,"x_min":0,"x_max":0,"o":"m 853 44 b 1024 168 932 44 982 110 b 821 -14 983 64 944 -14 b 621 215 660 -14 621 69 l 621 657 l 235 657 l 235 249 b 365 44 235 150 240 44 b 535 168 443 44 494 110 b 332 -14 496 64 456 -14 b 132 215 171 -14 132 69 l 132 657 l 47 657 l 47 681 b 210 853 139 681 210 764 l 233 853 l 233 681 l 539 681 b 697 915 667 681 697 811 l 722 915 l 722 681 l 935 681 l 935 657 l 722 657 l 722 249 b 853 44 722 150 728 44 "},"":{"ha":1485,"x_min":0,"x_max":0,"o":"m 1453 681 b 1454 669 1458 681 1460 672 b 1368 600 1404 656 1383 635 l 1126 -14 l 961 442 l 782 -14 l 558 600 b 474 657 546 635 522 657 l 235 657 l 235 249 b 365 44 235 132 249 44 b 535 168 449 44 500 118 b 332 -14 488 44 444 -14 b 132 215 163 -14 132 81 l 132 657 l 47 657 l 47 681 l 51 681 b 210 853 139 681 210 765 l 233 853 l 233 681 l 726 681 b 728 669 732 681 735 671 b 660 601 676 661 649 635 l 824 153 l 950 474 l 904 600 b 822 669 892 635 871 656 b 824 681 817 672 818 681 l 976 681 l 1168 153 l 1346 601 b 1282 669 1358 635 1333 661 b 1283 681 1275 671 1276 681 "},"":{"ha":1103,"x_min":0,"x_max":0,"o":"m 883 694 b 1067 574 985 694 1024 640 l 953 475 b 851 650 981 524 965 650 b 699 493 772 650 718 574 l 699 75 b 779 10 699 40 731 25 b 778 0 785 8 783 0 l 518 0 b 517 10 511 0 510 8 b 597 75 565 25 597 40 l 597 606 b 508 657 597 639 560 657 l 235 657 l 235 249 b 338 44 235 132 244 44 b 489 168 421 44 464 117 b 304 -14 475 53 404 -14 b 132 215 165 -14 132 81 l 132 657 l 47 657 l 47 681 l 51 681 b 210 853 139 681 210 765 l 233 853 l 233 681 l 518 681 b 629 694 549 681 611 694 b 699 610 668 694 699 694 l 699 567 b 883 694 732 631 799 694 "},"":{"ha":1324,"x_min":0,"x_max":0,"o":"m 1103 694 b 1288 574 1206 694 1243 640 l 1172 475 b 1072 650 1200 524 1186 650 b 918 493 993 650 938 574 l 918 75 b 1000 10 918 40 950 25 b 997 0 1006 8 1004 0 l 738 0 b 736 10 732 0 731 8 b 817 75 785 25 817 40 l 817 685 b 735 781 817 749 786 781 b 665 576 653 781 606 686 l 542 444 b 381 671 561 489 569 671 b 181 378 274 671 181 582 b 424 44 181 132 268 44 b 682 178 553 44 647 129 b 394 -14 633 54 515 -14 b 68 340 167 -14 68 144 b 381 694 68 536 168 694 b 622 613 476 694 560 658 b 760 822 572 696 632 822 b 918 610 875 822 918 738 l 918 567 b 1103 694 951 631 1018 694 "},"":{"ha":1219,"x_min":0,"x_max":0,"o":"m 999 708 b 1183 588 1101 708 1139 654 l 1068 489 b 968 664 1096 538 1082 664 b 815 507 889 664 833 588 l 815 89 b 896 24 815 54 846 39 b 893 14 901 22 900 14 l 633 14 b 632 24 628 14 626 22 b 713 89 681 39 713 54 l 713 699 b 636 794 713 763 689 794 b 556 600 557 794 504 704 b 565 590 560 597 563 593 l 443 458 b 332 685 463 503 489 685 b 217 578 263 685 217 643 b 582 174 217 389 582 399 b 336 0 582 86 506 0 b 68 118 239 0 132 57 l 192 250 b 336 24 160 194 183 24 b 479 150 419 24 479 72 b 121 533 479 321 121 311 b 332 708 121 625 193 708 b 510 640 408 708 463 679 b 650 836 474 724 529 836 b 815 624 778 836 815 751 l 815 581 b 999 708 847 644 914 708 "},"":{"ha":1399,"x_min":0,"x_max":0,"o":"m 1351 10 b 1349 0 1357 8 1356 0 l 1089 0 b 1088 10 1083 0 1082 8 b 1168 75 1136 25 1168 40 l 1168 506 b 1063 639 1168 592 1146 639 b 817 507 971 639 882 571 l 817 75 b 897 10 817 40 849 25 b 896 0 904 8 903 0 l 636 0 b 635 10 629 0 628 8 b 715 75 683 25 715 40 l 715 685 b 639 781 715 749 690 781 b 561 582 558 781 506 688 l 564 578 b 565 576 565 578 565 576 l 443 444 b 332 671 463 489 489 671 b 217 564 263 671 217 629 b 582 160 217 375 582 385 b 336 -14 582 72 506 -14 b 68 104 239 -14 132 43 l 192 236 b 336 10 160 181 183 10 b 479 136 419 10 479 58 b 121 519 479 307 121 297 b 332 694 121 611 193 694 b 514 624 410 694 465 664 b 651 822 475 707 531 822 b 817 610 781 822 817 738 l 817 538 b 1104 694 921 642 1015 694 b 1269 553 1221 694 1269 640 l 1269 75 b 1351 10 1269 40 1301 25 "},"":{"ha":1004,"x_min":0,"x_max":0,"o":"m 808 44 b 978 168 892 44 943 118 b 775 -14 931 44 888 -14 b 575 215 607 -14 575 81 l 575 657 l 235 657 l 235 93 b 392 10 235 38 342 18 b 390 0 399 10 397 0 l 53 0 b 51 10 47 0 46 8 b 132 75 101 25 132 40 l 132 657 l 47 657 l 47 681 l 132 681 l 132 829 b 374 1042 132 917 171 1042 b 590 931 471 1042 526 992 l 467 799 b 374 1018 497 846 518 1018 b 235 858 267 1018 235 935 l 235 681 l 494 681 b 653 853 582 681 653 765 l 676 853 l 676 681 l 890 681 l 890 657 l 678 657 l 678 249 b 808 44 678 132 692 44 "},"":{"ha":1238,"x_min":0,"x_max":0,"o":"m 1211 168 b 1008 -14 1172 64 1132 -14 b 808 215 849 -14 808 69 l 808 657 l 724 657 l 724 681 b 872 782 801 681 872 686 b 694 978 872 894 815 978 b 510 799 590 978 510 904 b 651 576 510 682 576 646 l 528 444 b 538 504 535 463 538 485 b 367 671 538 610 472 671 b 167 378 211 671 167 504 b 410 44 167 204 206 44 b 668 178 507 44 613 97 b 381 -14 621 60 507 -14 b 54 340 163 -14 54 133 b 367 694 54 538 156 694 b 510 667 415 694 464 685 b 472 797 486 706 472 751 b 694 1015 472 925 569 1015 b 910 782 836 1015 910 917 l 910 681 l 1124 681 l 1124 657 l 911 657 l 911 249 b 1042 44 911 150 917 44 b 1211 168 1119 44 1171 110 "},"":{"ha":1496,"x_min":0,"x_max":0,"o":"m 1449 10 b 1446 0 1454 8 1453 0 l 1186 0 b 1185 10 1181 0 1179 8 b 1265 75 1233 25 1265 40 l 1265 506 b 1160 639 1265 592 1243 639 b 914 507 1068 639 979 571 l 914 75 b 994 10 914 40 946 25 b 993 0 1001 8 1000 0 l 733 0 b 732 10 726 0 725 8 b 813 75 781 25 813 40 l 813 889 b 724 997 813 914 801 997 b 651 576 553 997 536 763 l 528 444 b 367 671 547 489 556 671 b 167 378 260 671 167 582 b 410 44 167 132 254 44 b 668 178 539 44 633 128 b 381 -14 619 54 501 -14 b 54 340 153 -14 54 144 b 367 694 54 536 154 694 b 606 614 461 694 544 658 b 743 1042 485 811 529 1042 b 914 854 872 1042 914 933 l 914 538 b 1201 694 1018 642 1113 694 b 1368 553 1318 694 1368 640 l 1368 75 b 1449 10 1368 40 1399 25 "},"":{"ha":1489,"x_min":0,"x_max":0,"o":"m 1172 0 b 1171 10 1167 0 1165 8 b 1225 75 1219 25 1250 40 l 1006 379 l 928 311 l 928 75 b 1008 10 928 40 960 25 b 1007 0 1015 8 1014 0 l 747 0 b 746 10 740 0 739 8 b 826 75 794 25 826 40 l 826 889 b 738 997 826 914 815 997 b 665 576 567 997 550 763 l 542 444 b 381 669 561 489 569 669 b 181 378 274 669 181 582 b 424 44 181 132 268 44 b 682 178 553 44 647 129 b 394 -14 633 54 515 -14 b 68 340 167 -14 68 144 b 381 694 68 536 168 694 b 619 614 475 694 558 658 b 757 1042 499 811 544 1042 b 928 853 886 1042 928 933 l 928 343 l 1225 607 b 1204 669 1258 636 1253 656 b 1206 681 1197 672 1199 681 l 1388 681 b 1389 669 1394 681 1396 672 b 1257 603 1340 656 1300 642 l 1082 449 l 1349 79 b 1458 10 1376 40 1410 25 b 1457 0 1464 8 1463 0 "},"":{"ha":1065,"x_min":0,"x_max":0,"o":"m 664 578 b 665 576 664 578 664 576 m 1008 10 b 1007 0 1015 8 1014 0 l 747 0 b 746 10 740 0 739 8 b 826 75 794 25 826 40 l 826 901 b 739 997 822 936 806 997 b 665 576 568 997 551 763 l 542 444 b 381 671 561 489 569 671 b 181 378 274 671 181 582 b 424 44 181 132 268 44 b 682 178 553 44 647 128 b 394 -14 633 54 515 -14 b 68 340 167 -14 68 144 b 381 694 68 536 168 694 b 621 613 476 694 560 658 b 757 1042 499 811 544 1042 b 929 854 888 1042 929 933 l 928 74 b 1008 10 929 40 960 25 "},"":{"ha":788,"x_min":0,"x_max":0,"o":"m 554 657 l 526 657 b 181 340 311 657 181 571 b 358 10 181 224 199 10 b 554 572 569 10 554 438 m 657 681 l 657 75 b 738 10 657 31 707 24 b 740 7 738 10 740 8 b 624 -14 740 -4 642 -14 b 554 128 549 -14 554 61 l 554 160 b 346 -14 521 58 460 -14 b 68 300 161 -14 68 128 b 525 681 68 596 260 681 "},"":{"ha":968,"x_min":0,"x_max":0,"o":"m 447 813 l 290 396 l 606 396 m 619 358 l 276 358 l 182 106 b 254 10 161 51 196 31 b 253 0 260 8 258 0 l 32 0 b 31 10 26 0 25 8 b 143 107 88 31 124 54 l 426 867 l 400 936 b 129 1144 357 1050 260 1144 b -97 1069 49 1144 -29 1110 b 203 1210 -15 1140 90 1210 b 535 911 371 1210 485 1053 l 801 164 b 1140 -181 864 -10 975 -181 b 1371 -104 1222 -181 1301 -146 b 1067 -246 1288 -176 1181 -246 b 743 35 906 -246 796 -103 "},"":{"ha":1210,"x_min":0,"x_max":0,"o":"m 201 104 b 308 10 201 69 250 31 b 306 0 314 8 313 0 l 60 0 b 58 10 54 0 53 8 b 164 104 115 31 164 69 l 164 956 b -92 1147 99 1076 19 1147 b -324 1069 -157 1147 -233 1122 b -24 1210 -206 1171 -107 1210 b 308 911 157 1210 260 1026 l 597 222 l 960 1021 l 1150 1021 b 1151 1011 1156 1021 1157 1013 b 1046 917 1094 990 1046 951 l 1046 104 b 1151 10 1046 69 1094 31 b 1150 0 1157 8 1156 0 l 829 0 b 826 10 822 0 821 8 b 933 104 885 31 933 69 l 933 872 l 615 169 b 951 -181 681 1 792 -181 b 1182 -104 1033 -181 1113 -146 b 878 -246 1099 -176 992 -246 b 549 47 736 -246 606 -89 l 201 876 "},"":{"ha":1022,"x_min":0,"x_max":0,"o":"m 200 915 l 200 104 b 307 10 200 69 250 31 b 306 0 313 8 311 0 l 58 0 b 57 10 53 0 51 8 b 164 104 114 31 164 69 l 164 974 b -117 1136 96 1063 4 1136 b -335 1069 -182 1136 -254 1118 b -33 1208 -219 1168 -119 1208 b 347 917 164 1208 282 1025 l 799 164 b 826 119 808 149 817 133 l 826 917 b 721 1011 826 951 778 990 b 722 1021 715 1013 717 1021 l 969 1021 b 971 1011 975 1021 976 1013 b 864 917 914 990 864 951 l 864 64 b 1232 -181 974 -89 1094 -181 b 1435 -104 1314 -181 1379 -146 b 1181 -246 1376 -176 1294 -246 b 751 29 974 -246 851 -131 "},"":{"ha":1539,"x_min":0,"x_max":0,"o":"m 768 735 l 488 -14 l 142 914 b 31 1011 122 968 88 990 b 32 1021 25 1013 26 1021 l 332 1021 b 333 1011 338 1021 339 1013 b 261 914 276 990 240 969 l 528 200 l 747 789 l 671 992 b 400 1200 628 1104 531 1200 b 174 1125 319 1200 242 1165 b 474 1265 256 1196 361 1265 b 806 967 642 1265 753 1108 l 1061 278 b 1090 201 1069 254 1079 228 l 1358 918 b 1285 1011 1375 971 1342 992 b 1286 1021 1279 1013 1281 1021 l 1507 1021 b 1508 1011 1513 1021 1514 1013 b 1396 914 1451 990 1415 967 l 1113 153 b 1408 -125 1174 18 1267 -125 b 1639 -49 1490 -125 1569 -90 b 1335 -190 1556 -121 1449 -190 b 1011 90 1174 -190 1063 -47 "},"":{"ha":1063,"x_min":0,"x_max":0,"o":"m 500 481 l 243 117 b 303 10 203 60 244 31 b 300 0 308 8 307 0 l 50 0 b 49 10 44 0 43 8 b 167 99 101 29 138 60 l 469 525 l 138 1004 b -154 1167 64 1093 -33 1167 b -372 1100 -219 1167 -292 1149 b -76 1239 -262 1199 -162 1239 b 321 947 121 1239 247 1056 l 554 601 l 771 906 b 711 1011 810 961 768 990 b 713 1021 706 1013 707 1021 l 963 1021 b 965 1011 969 1021 971 1013 b 839 911 907 990 869 956 l 585 556 l 828 194 b 1283 -150 969 -17 1118 -150 b 1481 -74 1365 -150 1431 -115 b 1238 -215 1428 -146 1351 -215 b 792 60 1031 -215 903 -100 "},"ﬀ":{"ha":1026,"x_min":0,"x_max":0,"o":"m 547 829 b 771 1042 547 917 567 1042 b 1007 924 874 1042 943 985 l 883 792 b 771 1018 903 836 929 1018 b 650 858 663 1018 650 936 l 650 681 l 863 681 l 863 657 l 650 657 l 650 93 b 807 11 650 38 757 18 b 806 0 814 10 813 0 l 468 0 b 467 11 463 0 461 8 b 547 75 517 25 547 42 l 547 657 l 208 657 l 208 93 b 365 11 208 38 315 18 b 364 0 372 10 371 0 l 26 0 b 25 11 21 0 19 8 b 106 75 75 25 106 42 l 106 657 l 21 657 l 21 681 l 106 681 l 106 767 b 313 979 106 856 129 979 b 506 871 397 979 465 942 l 406 765 b 321 956 436 811 426 956 b 208 796 214 956 208 874 l 208 681 l 547 681 "},"ﬁ":{"ha":815,"x_min":0,"x_max":0,"o":"m 139 829 b 414 1042 139 917 190 1042 b 706 900 604 1042 706 975 b 640 831 706 865 685 831 b 414 1018 525 831 610 1018 b 242 858 283 1018 242 936 l 242 681 l 471 681 b 614 694 532 681 614 694 b 683 610 653 694 683 694 l 683 75 b 764 11 683 42 715 25 b 763 0 769 8 768 0 l 501 0 b 500 11 496 0 494 8 b 581 75 550 25 581 42 l 581 606 b 469 657 581 639 533 657 l 242 657 l 242 93 b 399 11 242 38 349 18 b 397 0 406 10 404 0 l 60 0 b 58 11 54 0 53 8 b 139 75 108 25 139 42 l 139 657 l 54 657 l 54 681 l 139 681 "},"ﬂ":{"ha":824,"x_min":0,"x_max":0,"o":"m 582 853 b 411 1018 578 924 553 1018 b 242 858 304 1018 242 936 l 242 681 l 454 681 l 454 657 l 242 657 l 242 93 b 399 11 242 38 349 18 b 397 0 406 10 404 0 l 60 0 b 58 11 54 0 53 8 b 139 75 108 25 139 42 l 139 657 l 54 657 l 54 681 l 139 681 l 139 829 b 411 1042 139 917 208 1042 b 683 924 533 1042 621 985 l 683 75 b 764 11 683 42 715 25 b 763 0 771 8 769 0 l 503 0 b 501 11 496 0 496 8 b 582 75 550 25 582 42 "},"ﬃ":{"ha":1251,"x_min":0,"x_max":0,"o":"m 132 657 l 47 657 l 47 681 l 132 681 l 132 767 b 339 979 132 856 156 979 b 532 871 424 979 492 942 l 432 765 b 347 956 463 811 453 956 b 235 796 240 956 235 874 l 235 681 l 575 681 l 575 829 b 850 1042 575 917 626 1042 b 1140 900 1040 1042 1140 975 b 1075 831 1140 865 1121 831 b 850 1018 961 831 1044 1018 b 676 858 719 1018 676 936 l 676 681 l 907 681 b 1049 694 968 681 1049 694 b 1118 610 1088 694 1118 694 l 1118 75 b 1199 11 1118 42 1150 25 b 1197 0 1206 8 1204 0 l 938 0 b 936 11 932 0 931 8 b 1017 75 985 25 1017 42 l 1017 606 b 906 657 1017 639 968 657 l 676 657 l 676 93 b 835 11 676 38 783 18 b 833 0 840 10 839 0 l 496 0 b 494 11 489 0 489 8 b 575 75 543 25 575 42 l 575 657 l 235 657 l 235 93 b 392 11 235 38 342 18 b 390 0 399 10 397 0 l 53 0 b 51 11 47 0 46 8 b 132 75 101 25 132 42 "},"ﬄ":{"ha":1256,"x_min":0,"x_max":0,"o":"m 938 0 b 936 11 932 0 931 8 b 1017 75 986 25 1017 42 l 1017 853 b 847 1018 1014 924 988 1018 b 676 858 740 1018 676 936 l 676 681 l 890 681 l 890 657 l 676 657 l 676 93 b 835 11 676 38 783 18 b 833 0 840 10 839 0 l 496 0 b 494 11 489 0 489 8 b 575 75 543 25 575 42 l 575 657 l 235 657 l 235 93 b 392 11 235 38 342 18 b 390 0 399 10 397 0 l 53 0 b 51 11 47 0 46 8 b 132 75 101 25 132 42 l 132 657 l 47 657 l 47 681 l 132 681 l 132 767 b 339 979 132 856 156 979 b 532 871 424 979 492 942 l 432 765 b 347 956 463 811 453 956 b 235 796 240 956 235 874 l 235 681 l 575 681 l 575 829 b 847 1042 575 917 644 1042 b 1119 924 968 1042 1056 985 l 1119 75 b 1200 11 1119 42 1151 25 b 1199 0 1206 8 1204 0 "},"ﬆ":{"ha":1151,"x_min":0,"x_max":0,"o":"m 1125 168 b 922 -14 1085 64 1046 -14 b 722 215 761 -14 722 69 l 722 657 l 638 657 l 638 681 b 786 782 715 681 786 686 b 608 978 786 894 729 978 b 424 797 503 978 424 904 b 565 576 424 679 493 649 l 443 444 b 458 531 454 471 458 501 b 332 669 458 611 419 669 b 217 564 267 669 217 632 b 582 160 217 374 582 385 b 336 -14 582 31 443 -14 b 68 104 242 -14 136 39 l 192 236 b 179 178 182 218 179 197 b 336 10 179 85 239 10 b 479 136 413 10 479 54 b 121 519 479 307 121 297 b 332 694 121 638 225 694 b 415 681 360 694 389 689 b 385 797 396 717 385 757 b 608 1015 385 924 483 1015 b 824 782 749 1015 824 915 l 824 681 l 1038 681 l 1038 657 l 825 657 l 825 249 b 956 44 825 150 831 44 b 1125 168 1035 44 1085 110 "}}}
